<svg width="430" height="932" viewBox="0 0 430 932" fill="none" xmlns="http://www.w3.org/2000/svg">
<g clip-path="url(#clip0_220_4897)">
<rect width="430" height="932" fill="#F5F5F5"/>
<rect width="430" height="100" fill="#B81010"/>
<path d="M39.1705 61V34.8182H54.8693V37.6307H42.3409V46.4773H53.6932V49.2898H42.3409V61H39.1705ZM66.6818 61.4091C64.7898 61.4091 63.1577 60.9915 61.7855 60.1562C60.4219 59.3125 59.3693 58.1364 58.6278 56.6278C57.8949 55.1108 57.5284 53.3466 57.5284 51.3352C57.5284 49.3239 57.8949 47.5511 58.6278 46.017C59.3693 44.4744 60.4006 43.2727 61.7216 42.4119C63.0511 41.5426 64.6023 41.108 66.375 41.108C67.3977 41.108 68.4077 41.2784 69.4048 41.6193C70.402 41.9602 71.3097 42.5142 72.1278 43.2812C72.946 44.0398 73.598 45.0455 74.0838 46.2983C74.5696 47.5511 74.8125 49.0937 74.8125 50.9261V52.2045H59.6761V49.5966H71.7443C71.7443 48.4886 71.5227 47.5 71.0795 46.6307C70.6449 45.7614 70.0227 45.0753 69.2131 44.5724C68.4119 44.0696 67.4659 43.8182 66.375 43.8182C65.1733 43.8182 64.1335 44.1165 63.2557 44.7131C62.3864 45.3011 61.7173 46.0682 61.2486 47.0142C60.7798 47.9602 60.5455 48.9744 60.5455 50.0568V51.7955C60.5455 53.2784 60.8011 54.5355 61.3125 55.5668C61.8324 56.5895 62.5526 57.3693 63.473 57.9062C64.3935 58.4347 65.4631 58.6989 66.6818 58.6989C67.4744 58.6989 68.1903 58.5881 68.8295 58.3665C69.4773 58.1364 70.0355 57.7955 70.5043 57.3438C70.973 56.8835 71.3352 56.3125 71.5909 55.6307L74.5057 56.4489C74.1989 57.4375 73.6832 58.3068 72.9588 59.0568C72.2344 59.7983 71.3395 60.3778 70.2741 60.7955C69.2088 61.2045 68.0114 61.4091 66.6818 61.4091ZM87.6349 61.4091C85.7429 61.4091 84.1108 60.9915 82.7386 60.1562C81.375 59.3125 80.3224 58.1364 79.581 56.6278C78.848 55.1108 78.4815 53.3466 78.4815 51.3352C78.4815 49.3239 78.848 47.5511 79.581 46.017C80.3224 44.4744 81.3537 43.2727 82.6747 42.4119C84.0043 41.5426 85.5554 41.108 87.3281 41.108C88.3509 41.108 89.3608 41.2784 90.358 41.6193C91.3551 41.9602 92.2628 42.5142 93.081 43.2812C93.8991 44.0398 94.5511 45.0455 95.0369 46.2983C95.5227 47.5511 95.7656 49.0937 95.7656 50.9261V52.2045H80.6293V49.5966H92.6974C92.6974 48.4886 92.4759 47.5 92.0327 46.6307C91.598 45.7614 90.9759 45.0753 90.1662 44.5724C89.3651 44.0696 88.419 43.8182 87.3281 43.8182C86.1264 43.8182 85.0866 44.1165 84.2088 44.7131C83.3395 45.3011 82.6705 46.0682 82.2017 47.0142C81.733 47.9602 81.4986 48.9744 81.4986 50.0568V51.7955C81.4986 53.2784 81.7543 54.5355 82.2656 55.5668C82.7855 56.5895 83.5057 57.3693 84.4261 57.9062C85.3466 58.4347 86.4162 58.6989 87.6349 58.6989C88.4276 58.6989 89.1435 58.5881 89.7827 58.3665C90.4304 58.1364 90.9886 57.7955 91.4574 57.3438C91.9261 56.8835 92.2884 56.3125 92.544 55.6307L95.4588 56.4489C95.152 57.4375 94.6364 58.3068 93.9119 59.0568C93.1875 59.7983 92.2926 60.3778 91.2273 60.7955C90.1619 61.2045 88.9645 61.4091 87.6349 61.4091ZM107.77 61.4091C106.134 61.4091 104.689 60.9957 103.436 60.169C102.183 59.3338 101.203 58.1577 100.496 56.6406C99.7884 55.1151 99.4347 53.3125 99.4347 51.233C99.4347 49.1705 99.7884 47.3807 100.496 45.8636C101.203 44.3466 102.188 43.1747 103.449 42.348C104.71 41.5213 106.168 41.108 107.821 41.108C109.099 41.108 110.109 41.321 110.851 41.7472C111.601 42.1648 112.172 42.642 112.564 43.179C112.964 43.7074 113.276 44.142 113.497 44.483H113.753V34.8182H116.77V61H113.855V57.983H113.497C113.276 58.3409 112.96 58.7926 112.551 59.3381C112.142 59.875 111.558 60.3565 110.8 60.7827C110.041 61.2003 109.031 61.4091 107.77 61.4091ZM108.179 58.6989C109.389 58.6989 110.412 58.3835 111.247 57.7528C112.082 57.1136 112.717 56.2315 113.152 55.1065C113.587 53.973 113.804 52.6648 113.804 51.1818C113.804 49.7159 113.591 48.4332 113.165 47.3338C112.739 46.2259 112.108 45.3651 111.273 44.7514C110.438 44.1293 109.406 43.8182 108.179 43.8182C106.901 43.8182 105.835 44.1463 104.983 44.8026C104.139 45.4503 103.504 46.3324 103.078 47.4489C102.661 48.5568 102.452 49.8011 102.452 51.1818C102.452 52.5795 102.665 53.8494 103.091 54.9915C103.526 56.125 104.165 57.0284 105.009 57.7017C105.861 58.3665 106.918 58.6989 108.179 58.6989ZM123.124 61V34.8182H126.141V44.483H126.396C126.618 44.142 126.925 43.7074 127.317 43.179C127.717 42.642 128.288 42.1648 129.03 41.7472C129.78 41.321 130.794 41.108 132.072 41.108C133.726 41.108 135.183 41.5213 136.445 42.348C137.706 43.1747 138.69 44.3466 139.398 45.8636C140.105 47.3807 140.459 49.1705 140.459 51.233C140.459 53.3125 140.105 55.1151 139.398 56.6406C138.69 58.1577 137.71 59.3338 136.457 60.169C135.205 60.9957 133.76 61.4091 132.124 61.4091C130.862 61.4091 129.852 61.2003 129.094 60.7827C128.335 60.3565 127.751 59.875 127.342 59.3381C126.933 58.7926 126.618 58.3409 126.396 57.983H126.038V61H123.124ZM126.089 51.1818C126.089 52.6648 126.307 53.973 126.741 55.1065C127.176 56.2315 127.811 57.1136 128.646 57.7528C129.482 58.3835 130.504 58.6989 131.714 58.6989C132.976 58.6989 134.028 58.3665 134.872 57.7017C135.724 57.0284 136.364 56.125 136.79 54.9915C137.224 53.8494 137.442 52.5795 137.442 51.1818C137.442 49.8011 137.229 48.5568 136.803 47.4489C136.385 46.3324 135.75 45.4503 134.898 44.8026C134.054 44.1463 132.993 43.8182 131.714 43.8182C130.487 43.8182 129.456 44.1293 128.621 44.7514C127.786 45.3651 127.155 46.2259 126.729 47.3338C126.303 48.4332 126.089 49.7159 126.089 51.1818ZM150.852 61.4602C149.608 61.4602 148.479 61.2259 147.464 60.7571C146.45 60.2798 145.645 59.5938 145.048 58.6989C144.452 57.7955 144.153 56.7045 144.153 55.4261C144.153 54.3011 144.375 53.3892 144.818 52.6903C145.261 51.983 145.854 51.429 146.595 51.0284C147.337 50.6278 148.155 50.3295 149.05 50.1335C149.953 49.929 150.861 49.767 151.773 49.6477C152.966 49.4943 153.933 49.3793 154.675 49.3026C155.425 49.2173 155.97 49.0767 156.311 48.8807C156.661 48.6847 156.835 48.3437 156.835 47.858V47.7557C156.835 46.4943 156.49 45.5142 155.8 44.8153C155.118 44.1165 154.082 43.767 152.693 43.767C151.253 43.767 150.124 44.0824 149.305 44.7131C148.487 45.3437 147.912 46.017 147.58 46.733L144.716 45.7102C145.227 44.517 145.909 43.5881 146.761 42.9233C147.622 42.25 148.56 41.7812 149.574 41.517C150.597 41.2443 151.602 41.108 152.591 41.108C153.222 41.108 153.946 41.1847 154.764 41.3381C155.591 41.483 156.388 41.7855 157.155 42.2457C157.93 42.706 158.574 43.4006 159.085 44.3295C159.597 45.2585 159.852 46.5028 159.852 48.0625V61H156.835V58.3409H156.682C156.477 58.767 156.136 59.223 155.659 59.7088C155.182 60.1946 154.547 60.608 153.754 60.9489C152.962 61.2898 151.994 61.4602 150.852 61.4602ZM151.312 58.75C152.506 58.75 153.511 58.5156 154.33 58.0469C155.156 57.5781 155.778 56.973 156.196 56.2315C156.622 55.4901 156.835 54.7102 156.835 53.892V51.1307C156.707 51.2841 156.426 51.4247 155.991 51.5526C155.565 51.6719 155.071 51.7784 154.509 51.8722C153.955 51.9574 153.413 52.0341 152.885 52.1023C152.365 52.1619 151.943 52.2131 151.619 52.2557C150.835 52.358 150.102 52.5241 149.42 52.7543C148.747 52.9759 148.202 53.3125 147.784 53.7642C147.375 54.2074 147.17 54.8125 147.17 55.5795C147.17 56.6278 147.558 57.4205 148.334 57.9574C149.118 58.4858 150.111 58.75 151.312 58.75ZM173.336 61.4091C171.495 61.4091 169.91 60.9744 168.581 60.1051C167.251 59.2358 166.228 58.0384 165.512 56.5128C164.797 54.9872 164.439 53.2443 164.439 51.2841C164.439 49.2898 164.805 47.5298 165.538 46.0043C166.279 44.4702 167.311 43.2727 168.632 42.4119C169.961 41.5426 171.512 41.108 173.285 41.108C174.666 41.108 175.91 41.3636 177.018 41.875C178.126 42.3864 179.034 43.1023 179.741 44.0227C180.449 44.9432 180.887 46.017 181.058 47.2443H178.041C177.811 46.3494 177.299 45.5568 176.507 44.8665C175.723 44.1676 174.666 43.8182 173.336 43.8182C172.16 43.8182 171.129 44.125 170.243 44.7386C169.365 45.3437 168.679 46.2003 168.184 47.3082C167.699 48.4077 167.456 49.6989 167.456 51.1818C167.456 52.6989 167.694 54.0199 168.172 55.1449C168.657 56.2699 169.339 57.1435 170.217 57.7656C171.103 58.3878 172.143 58.6989 173.336 58.6989C174.12 58.6989 174.832 58.5625 175.471 58.2898C176.11 58.017 176.652 57.625 177.095 57.1136C177.538 56.6023 177.853 55.9886 178.041 55.2727H181.058C180.887 56.4318 180.466 57.4759 179.792 58.4048C179.127 59.3253 178.245 60.0582 177.146 60.6037C176.055 61.1406 174.785 61.4091 173.336 61.4091ZM188.281 53.8409L188.23 50.108H188.843L197.434 41.3636H201.167L192.014 50.6193H191.758L188.281 53.8409ZM185.468 61V34.8182H188.485V61H185.468ZM197.946 61L190.275 51.2841L192.423 49.1875L201.781 61H197.946Z" fill="white"/>
<g filter="url(#filter0_d_220_4897)">
<rect x="25" y="140" width="380" height="240" rx="10" fill="white" shape-rendering="crispEdges"/>
<path d="M159.415 183.818H163.199L172.096 205.551H172.403L181.301 183.818H185.085V210H182.119V190.108H181.863L173.682 210H170.818L162.636 190.108H162.381V210H159.415V183.818ZM196.811 210.46C195.567 210.46 194.438 210.226 193.423 209.757C192.409 209.28 191.604 208.594 191.007 207.699C190.411 206.795 190.112 205.705 190.112 204.426C190.112 203.301 190.334 202.389 190.777 201.69C191.22 200.983 191.813 200.429 192.554 200.028C193.296 199.628 194.114 199.33 195.009 199.134C195.912 198.929 196.82 198.767 197.732 198.648C198.925 198.494 199.892 198.379 200.634 198.303C201.384 198.217 201.929 198.077 202.27 197.881C202.619 197.685 202.794 197.344 202.794 196.858V196.756C202.794 195.494 202.449 194.514 201.759 193.815C201.077 193.116 200.041 192.767 198.652 192.767C197.212 192.767 196.083 193.082 195.264 193.713C194.446 194.344 193.871 195.017 193.539 195.733L190.675 194.71C191.186 193.517 191.868 192.588 192.72 191.923C193.581 191.25 194.519 190.781 195.533 190.517C196.556 190.244 197.561 190.108 198.55 190.108C199.181 190.108 199.905 190.185 200.723 190.338C201.55 190.483 202.347 190.786 203.114 191.246C203.889 191.706 204.533 192.401 205.044 193.33C205.556 194.259 205.811 195.503 205.811 197.062V210H202.794V207.341H202.641C202.436 207.767 202.095 208.223 201.618 208.709C201.141 209.195 200.506 209.608 199.713 209.949C198.921 210.29 197.953 210.46 196.811 210.46ZM197.271 207.75C198.465 207.75 199.47 207.516 200.289 207.047C201.115 206.578 201.737 205.973 202.155 205.232C202.581 204.49 202.794 203.71 202.794 202.892V200.131C202.666 200.284 202.385 200.425 201.95 200.553C201.524 200.672 201.03 200.778 200.468 200.872C199.914 200.957 199.372 201.034 198.844 201.102C198.324 201.162 197.902 201.213 197.578 201.256C196.794 201.358 196.061 201.524 195.379 201.754C194.706 201.976 194.161 202.312 193.743 202.764C193.334 203.207 193.129 203.812 193.129 204.58C193.129 205.628 193.517 206.42 194.293 206.957C195.077 207.486 196.07 207.75 197.271 207.75ZM211.318 210V190.364H214.233V193.33H214.437C214.795 192.358 215.443 191.57 216.381 190.964C217.318 190.359 218.375 190.057 219.551 190.057C219.773 190.057 220.05 190.061 220.382 190.07C220.714 190.078 220.966 190.091 221.136 190.108V193.176C221.034 193.151 220.8 193.112 220.433 193.061C220.075 193.001 219.696 192.972 219.295 192.972C218.341 192.972 217.488 193.172 216.738 193.572C215.997 193.964 215.409 194.51 214.974 195.209C214.548 195.899 214.335 196.687 214.335 197.574V210H211.318ZM227.525 202.841L227.474 199.108H228.088L236.678 190.364H240.411L231.258 199.619H231.002L227.525 202.841ZM224.713 210V183.818H227.73V210H224.713ZM237.19 210L229.519 200.284L231.667 198.188L241.025 210H237.19ZM251.719 210.409C249.827 210.409 248.195 209.991 246.823 209.156C245.459 208.312 244.406 207.136 243.665 205.628C242.932 204.111 242.566 202.347 242.566 200.335C242.566 198.324 242.932 196.551 243.665 195.017C244.406 193.474 245.438 192.273 246.759 191.412C248.088 190.543 249.639 190.108 251.412 190.108C252.435 190.108 253.445 190.278 254.442 190.619C255.439 190.96 256.347 191.514 257.165 192.281C257.983 193.04 258.635 194.045 259.121 195.298C259.607 196.551 259.85 198.094 259.85 199.926V201.205H244.713V198.597H256.781C256.781 197.489 256.56 196.5 256.117 195.631C255.682 194.761 255.06 194.075 254.25 193.572C253.449 193.07 252.503 192.818 251.412 192.818C250.21 192.818 249.171 193.116 248.293 193.713C247.423 194.301 246.754 195.068 246.286 196.014C245.817 196.96 245.583 197.974 245.583 199.057V200.795C245.583 202.278 245.838 203.536 246.35 204.567C246.869 205.589 247.59 206.369 248.51 206.906C249.431 207.435 250.5 207.699 251.719 207.699C252.512 207.699 253.227 207.588 253.867 207.366C254.514 207.136 255.073 206.795 255.541 206.344C256.01 205.884 256.372 205.312 256.628 204.631L259.543 205.449C259.236 206.438 258.72 207.307 257.996 208.057C257.271 208.798 256.377 209.378 255.311 209.795C254.246 210.205 253.048 210.409 251.719 210.409ZM272.979 190.364V192.92H262.803V190.364H272.979ZM265.769 185.659H268.786V204.375C268.786 205.227 268.909 205.866 269.156 206.293C269.412 206.71 269.736 206.991 270.128 207.136C270.529 207.273 270.95 207.341 271.394 207.341C271.726 207.341 271.999 207.324 272.212 207.29C272.425 207.247 272.595 207.213 272.723 207.188L273.337 209.898C273.132 209.974 272.847 210.051 272.48 210.128C272.114 210.213 271.649 210.256 271.087 210.256C270.235 210.256 269.399 210.072 268.581 209.706C267.771 209.339 267.098 208.781 266.561 208.031C266.033 207.281 265.769 206.335 265.769 205.193V185.659Z" fill="black"/>
<path d="M113.191 324V321.699L121.833 312.239C122.847 311.131 123.682 310.168 124.338 309.349C124.995 308.523 125.48 307.747 125.796 307.023C126.12 306.29 126.282 305.523 126.282 304.722C126.282 303.801 126.06 303.004 125.617 302.331C125.182 301.658 124.586 301.138 123.827 300.771C123.069 300.405 122.216 300.222 121.27 300.222C120.265 300.222 119.387 300.43 118.637 300.848C117.895 301.257 117.32 301.832 116.911 302.574C116.51 303.315 116.31 304.185 116.31 305.182H113.293C113.293 303.648 113.647 302.301 114.354 301.142C115.061 299.983 116.025 299.08 117.243 298.432C118.471 297.784 119.847 297.46 121.373 297.46C122.907 297.46 124.266 297.784 125.451 298.432C126.635 299.08 127.564 299.953 128.238 301.053C128.911 302.152 129.248 303.375 129.248 304.722C129.248 305.685 129.073 306.626 128.723 307.547C128.382 308.459 127.786 309.477 126.934 310.602C126.09 311.719 124.918 313.082 123.418 314.693L117.537 320.983V321.188H129.708V324H113.191ZM143.527 324.358C141.601 324.358 139.961 323.834 138.605 322.786C137.25 321.729 136.215 320.199 135.499 318.196C134.783 316.185 134.425 313.756 134.425 310.909C134.425 308.08 134.783 305.663 135.499 303.661C136.223 301.649 137.263 300.115 138.618 299.058C139.982 297.993 141.618 297.46 143.527 297.46C145.436 297.46 147.069 297.993 148.424 299.058C149.787 300.115 150.827 301.649 151.543 303.661C152.267 305.663 152.63 308.08 152.63 310.909C152.63 313.756 152.272 316.185 151.556 318.196C150.84 320.199 149.804 321.729 148.449 322.786C147.094 323.834 145.453 324.358 143.527 324.358ZM143.527 321.545C145.436 321.545 146.919 320.625 147.976 318.784C149.033 316.943 149.561 314.318 149.561 310.909C149.561 308.642 149.319 306.712 148.833 305.118C148.355 303.524 147.665 302.31 146.762 301.474C145.867 300.639 144.789 300.222 143.527 300.222C141.635 300.222 140.157 301.155 139.091 303.021C138.026 304.879 137.493 307.509 137.493 310.909C137.493 313.176 137.732 315.102 138.209 316.688C138.686 318.273 139.373 319.479 140.267 320.305C141.171 321.132 142.257 321.545 143.527 321.545ZM168.789 309.503V312.315H157.334V309.503H168.789ZM182.586 324.358C180.66 324.358 179.019 323.834 177.664 322.786C176.309 321.729 175.273 320.199 174.558 318.196C173.842 316.185 173.484 313.756 173.484 310.909C173.484 308.08 173.842 305.663 174.558 303.661C175.282 301.649 176.322 300.115 177.677 299.058C179.04 297.993 180.677 297.46 182.586 297.46C184.495 297.46 186.127 297.993 187.482 299.058C188.846 300.115 189.886 301.649 190.602 303.661C191.326 305.663 191.688 308.08 191.688 310.909C191.688 313.756 191.33 316.185 190.614 318.196C189.898 320.199 188.863 321.729 187.508 322.786C186.153 323.834 184.512 324.358 182.586 324.358ZM182.586 321.545C184.495 321.545 185.978 320.625 187.035 318.784C188.092 316.943 188.62 314.318 188.62 310.909C188.62 308.642 188.377 306.712 187.891 305.118C187.414 303.524 186.724 302.31 185.82 301.474C184.925 300.639 183.847 300.222 182.586 300.222C180.694 300.222 179.215 301.155 178.15 303.021C177.085 304.879 176.552 307.509 176.552 310.909C176.552 313.176 176.79 315.102 177.268 316.688C177.745 318.273 178.431 319.479 179.326 320.305C180.229 321.132 181.316 321.545 182.586 321.545ZM204.881 297.46C205.955 297.469 207.029 297.673 208.103 298.074C209.177 298.474 210.157 299.139 211.043 300.068C211.93 300.989 212.641 302.246 213.178 303.839C213.715 305.433 213.984 307.432 213.984 309.835C213.984 312.162 213.762 314.229 213.319 316.036C212.884 317.834 212.254 319.351 211.427 320.587C210.609 321.822 209.612 322.76 208.435 323.399C207.268 324.038 205.947 324.358 204.472 324.358C203.006 324.358 201.698 324.068 200.548 323.489C199.406 322.901 198.468 322.087 197.735 321.047C197.011 319.999 196.546 318.784 196.342 317.403H199.461C199.742 318.605 200.3 319.598 201.136 320.382C201.979 321.158 203.092 321.545 204.472 321.545C206.492 321.545 208.086 320.663 209.254 318.899C210.43 317.135 211.018 314.642 211.018 311.42H210.813C210.336 312.136 209.769 312.754 209.113 313.274C208.457 313.794 207.728 314.195 206.927 314.476C206.126 314.757 205.273 314.898 204.37 314.898C202.87 314.898 201.494 314.527 200.241 313.786C198.996 313.036 197.999 312.009 197.249 310.705C196.508 309.392 196.137 307.892 196.137 306.205C196.137 304.602 196.495 303.136 197.211 301.807C197.935 300.469 198.95 299.403 200.254 298.611C201.566 297.818 203.109 297.435 204.881 297.46ZM204.881 300.273C203.808 300.273 202.84 300.541 201.979 301.078C201.127 301.607 200.45 302.322 199.947 303.226C199.452 304.121 199.205 305.114 199.205 306.205C199.205 307.295 199.444 308.288 199.921 309.183C200.407 310.07 201.067 310.777 201.903 311.305C202.746 311.825 203.705 312.085 204.779 312.085C205.589 312.085 206.343 311.928 207.042 311.612C207.741 311.288 208.35 310.849 208.87 310.295C209.398 309.733 209.812 309.098 210.11 308.391C210.408 307.675 210.558 306.929 210.558 306.153C210.558 305.131 210.31 304.172 209.816 303.277C209.33 302.382 208.657 301.658 207.796 301.104C206.944 300.55 205.972 300.273 204.881 300.273ZM230.312 309.503V312.315H218.858V309.503H230.312ZM234.339 324V321.699L242.981 312.239C243.995 311.131 244.831 310.168 245.487 309.349C246.143 308.523 246.629 307.747 246.944 307.023C247.268 306.29 247.43 305.523 247.43 304.722C247.43 303.801 247.208 303.004 246.765 302.331C246.331 301.658 245.734 301.138 244.975 300.771C244.217 300.405 243.365 300.222 242.419 300.222C241.413 300.222 240.535 300.43 239.785 300.848C239.044 301.257 238.468 301.832 238.059 302.574C237.659 303.315 237.458 304.185 237.458 305.182H234.441C234.441 303.648 234.795 302.301 235.502 301.142C236.21 299.983 237.173 299.08 238.392 298.432C239.619 297.784 240.995 297.46 242.521 297.46C244.055 297.46 245.414 297.784 246.599 298.432C247.784 299.08 248.713 299.953 249.386 301.053C250.059 302.152 250.396 303.375 250.396 304.722C250.396 305.685 250.221 306.626 249.872 307.547C249.531 308.459 248.934 309.477 248.082 310.602C247.238 311.719 246.066 313.082 244.566 314.693L238.686 320.983V321.188H250.856V324H234.339ZM264.676 324.358C262.75 324.358 261.109 323.834 259.754 322.786C258.399 321.729 257.363 320.199 256.647 318.196C255.931 316.185 255.574 313.756 255.574 310.909C255.574 308.08 255.931 305.663 256.647 303.661C257.372 301.649 258.412 300.115 259.767 299.058C261.13 297.993 262.767 297.46 264.676 297.46C266.585 297.46 268.217 297.993 269.572 299.058C270.936 300.115 271.975 301.649 272.691 303.661C273.416 305.663 273.778 308.08 273.778 310.909C273.778 313.756 273.42 316.185 272.704 318.196C271.988 320.199 270.953 321.729 269.598 322.786C268.243 323.834 266.602 324.358 264.676 324.358ZM264.676 321.545C266.585 321.545 268.068 320.625 269.125 318.784C270.181 316.943 270.71 314.318 270.71 310.909C270.71 308.642 270.467 306.712 269.981 305.118C269.504 303.524 268.814 302.31 267.91 301.474C267.015 300.639 265.937 300.222 264.676 300.222C262.784 300.222 261.305 301.155 260.24 303.021C259.174 304.879 258.642 307.509 258.642 310.909C258.642 313.176 258.88 315.102 259.358 316.688C259.835 318.273 260.521 319.479 261.416 320.305C262.319 321.132 263.406 321.545 264.676 321.545ZM278.636 324V321.699L287.278 312.239C288.292 311.131 289.127 310.168 289.784 309.349C290.44 308.523 290.926 307.747 291.241 307.023C291.565 306.29 291.727 305.523 291.727 304.722C291.727 303.801 291.505 303.004 291.062 302.331C290.627 301.658 290.031 301.138 289.272 300.771C288.514 300.405 287.662 300.222 286.716 300.222C285.71 300.222 284.832 300.43 284.082 300.848C283.341 301.257 282.765 301.832 282.356 302.574C281.956 303.315 281.755 304.185 281.755 305.182H278.738C278.738 303.648 279.092 302.301 279.799 301.142C280.507 299.983 281.47 299.08 282.689 298.432C283.916 297.784 285.292 297.46 286.818 297.46C288.352 297.46 289.711 297.784 290.896 298.432C292.081 299.08 293.01 299.953 293.683 301.053C294.356 302.152 294.693 303.375 294.693 304.722C294.693 305.685 294.518 306.626 294.169 307.547C293.828 308.459 293.231 309.477 292.379 310.602C291.535 311.719 290.363 313.082 288.863 314.693L282.983 320.983V321.188H295.153V324H278.636ZM300.433 324V321.699L309.075 312.239C310.089 311.131 310.924 310.168 311.581 309.349C312.237 308.523 312.723 307.747 313.038 307.023C313.362 306.29 313.524 305.523 313.524 304.722C313.524 303.801 313.302 303.004 312.859 302.331C312.424 301.658 311.828 301.138 311.069 300.771C310.311 300.405 309.458 300.222 308.512 300.222C307.507 300.222 306.629 300.43 305.879 300.848C305.137 301.257 304.562 301.832 304.153 302.574C303.752 303.315 303.552 304.185 303.552 305.182H300.535C300.535 303.648 300.889 302.301 301.596 301.142C302.304 299.983 303.267 299.08 304.485 298.432C305.713 297.784 307.089 297.46 308.615 297.46C310.149 297.46 311.508 297.784 312.693 298.432C313.877 299.08 314.806 299.953 315.48 301.053C316.153 302.152 316.49 303.375 316.49 304.722C316.49 305.685 316.315 306.626 315.966 307.547C315.625 308.459 315.028 309.477 314.176 310.602C313.332 311.719 312.16 313.082 310.66 314.693L304.779 320.983V321.188H316.95V324H300.433Z" fill="black"/>
</g>
<g filter="url(#filter1_d_220_4897)">
<rect x="25" y="420" width="380" height="240" rx="10" fill="white" shape-rendering="crispEdges"/>
<path d="M159.415 463.818H163.199L172.096 485.551H172.403L181.301 463.818H185.085V490H182.119V470.108H181.863L173.682 490H170.818L162.636 470.108H162.381V490H159.415V463.818ZM196.811 490.46C195.567 490.46 194.438 490.226 193.423 489.757C192.409 489.28 191.604 488.594 191.007 487.699C190.411 486.795 190.112 485.705 190.112 484.426C190.112 483.301 190.334 482.389 190.777 481.69C191.22 480.983 191.813 480.429 192.554 480.028C193.296 479.628 194.114 479.33 195.009 479.134C195.912 478.929 196.82 478.767 197.732 478.648C198.925 478.494 199.892 478.379 200.634 478.303C201.384 478.217 201.929 478.077 202.27 477.881C202.619 477.685 202.794 477.344 202.794 476.858V476.756C202.794 475.494 202.449 474.514 201.759 473.815C201.077 473.116 200.041 472.767 198.652 472.767C197.212 472.767 196.083 473.082 195.264 473.713C194.446 474.344 193.871 475.017 193.539 475.733L190.675 474.71C191.186 473.517 191.868 472.588 192.72 471.923C193.581 471.25 194.519 470.781 195.533 470.517C196.556 470.244 197.561 470.108 198.55 470.108C199.181 470.108 199.905 470.185 200.723 470.338C201.55 470.483 202.347 470.786 203.114 471.246C203.889 471.706 204.533 472.401 205.044 473.33C205.556 474.259 205.811 475.503 205.811 477.062V490H202.794V487.341H202.641C202.436 487.767 202.095 488.223 201.618 488.709C201.141 489.195 200.506 489.608 199.713 489.949C198.921 490.29 197.953 490.46 196.811 490.46ZM197.271 487.75C198.465 487.75 199.47 487.516 200.289 487.047C201.115 486.578 201.737 485.973 202.155 485.232C202.581 484.49 202.794 483.71 202.794 482.892V480.131C202.666 480.284 202.385 480.425 201.95 480.553C201.524 480.672 201.03 480.778 200.468 480.872C199.914 480.957 199.372 481.034 198.844 481.102C198.324 481.162 197.902 481.213 197.578 481.256C196.794 481.358 196.061 481.524 195.379 481.754C194.706 481.976 194.161 482.312 193.743 482.764C193.334 483.207 193.129 483.812 193.129 484.58C193.129 485.628 193.517 486.42 194.293 486.957C195.077 487.486 196.07 487.75 197.271 487.75ZM211.318 490V470.364H214.233V473.33H214.437C214.795 472.358 215.443 471.57 216.381 470.964C217.318 470.359 218.375 470.057 219.551 470.057C219.773 470.057 220.05 470.061 220.382 470.07C220.714 470.078 220.966 470.091 221.136 470.108V473.176C221.034 473.151 220.8 473.112 220.433 473.061C220.075 473.001 219.696 472.972 219.295 472.972C218.341 472.972 217.488 473.172 216.738 473.572C215.997 473.964 215.409 474.51 214.974 475.209C214.548 475.899 214.335 476.687 214.335 477.574V490H211.318ZM227.525 482.841L227.474 479.108H228.088L236.678 470.364H240.411L231.258 479.619H231.002L227.525 482.841ZM224.713 490V463.818H227.73V490H224.713ZM237.19 490L229.519 480.284L231.667 478.188L241.025 490H237.19ZM251.719 490.409C249.827 490.409 248.195 489.991 246.823 489.156C245.459 488.312 244.406 487.136 243.665 485.628C242.932 484.111 242.566 482.347 242.566 480.335C242.566 478.324 242.932 476.551 243.665 475.017C244.406 473.474 245.438 472.273 246.759 471.412C248.088 470.543 249.639 470.108 251.412 470.108C252.435 470.108 253.445 470.278 254.442 470.619C255.439 470.96 256.347 471.514 257.165 472.281C257.983 473.04 258.635 474.045 259.121 475.298C259.607 476.551 259.85 478.094 259.85 479.926V481.205H244.713V478.597H256.781C256.781 477.489 256.56 476.5 256.117 475.631C255.682 474.761 255.06 474.075 254.25 473.572C253.449 473.07 252.503 472.818 251.412 472.818C250.21 472.818 249.171 473.116 248.293 473.713C247.423 474.301 246.754 475.068 246.286 476.014C245.817 476.96 245.583 477.974 245.583 479.057V480.795C245.583 482.278 245.838 483.536 246.35 484.567C246.869 485.589 247.59 486.369 248.51 486.906C249.431 487.435 250.5 487.699 251.719 487.699C252.512 487.699 253.227 487.588 253.867 487.366C254.514 487.136 255.073 486.795 255.541 486.344C256.01 485.884 256.372 485.312 256.628 484.631L259.543 485.449C259.236 486.438 258.72 487.307 257.996 488.057C257.271 488.798 256.377 489.378 255.311 489.795C254.246 490.205 253.048 490.409 251.719 490.409ZM272.979 470.364V472.92H262.803V470.364H272.979ZM265.769 465.659H268.786V484.375C268.786 485.227 268.909 485.866 269.156 486.293C269.412 486.71 269.736 486.991 270.128 487.136C270.529 487.273 270.95 487.341 271.394 487.341C271.726 487.341 271.999 487.324 272.212 487.29C272.425 487.247 272.595 487.213 272.723 487.188L273.337 489.898C273.132 489.974 272.847 490.051 272.48 490.128C272.114 490.213 271.649 490.256 271.087 490.256C270.235 490.256 269.399 490.072 268.581 489.706C267.771 489.339 267.098 488.781 266.561 488.031C266.033 487.281 265.769 486.335 265.769 485.193V465.659Z" fill="black"/>
<path d="M113.191 604V601.699L121.833 592.239C122.847 591.131 123.682 590.168 124.338 589.349C124.995 588.523 125.48 587.747 125.796 587.023C126.12 586.29 126.282 585.523 126.282 584.722C126.282 583.801 126.06 583.004 125.617 582.331C125.182 581.658 124.586 581.138 123.827 580.771C123.069 580.405 122.216 580.222 121.27 580.222C120.265 580.222 119.387 580.43 118.637 580.848C117.895 581.257 117.32 581.832 116.911 582.574C116.51 583.315 116.31 584.185 116.31 585.182H113.293C113.293 583.648 113.647 582.301 114.354 581.142C115.061 579.983 116.025 579.08 117.243 578.432C118.471 577.784 119.847 577.46 121.373 577.46C122.907 577.46 124.266 577.784 125.451 578.432C126.635 579.08 127.564 579.953 128.238 581.053C128.911 582.152 129.248 583.375 129.248 584.722C129.248 585.685 129.073 586.626 128.723 587.547C128.382 588.459 127.786 589.477 126.934 590.602C126.09 591.719 124.918 593.082 123.418 594.693L117.537 600.983V601.188H129.708V604H113.191ZM143.527 604.358C141.601 604.358 139.961 603.834 138.605 602.786C137.25 601.729 136.215 600.199 135.499 598.196C134.783 596.185 134.425 593.756 134.425 590.909C134.425 588.08 134.783 585.663 135.499 583.661C136.223 581.649 137.263 580.115 138.618 579.058C139.982 577.993 141.618 577.46 143.527 577.46C145.436 577.46 147.069 577.993 148.424 579.058C149.787 580.115 150.827 581.649 151.543 583.661C152.267 585.663 152.63 588.08 152.63 590.909C152.63 593.756 152.272 596.185 151.556 598.196C150.84 600.199 149.804 601.729 148.449 602.786C147.094 603.834 145.453 604.358 143.527 604.358ZM143.527 601.545C145.436 601.545 146.919 600.625 147.976 598.784C149.033 596.943 149.561 594.318 149.561 590.909C149.561 588.642 149.319 586.712 148.833 585.118C148.355 583.524 147.665 582.31 146.762 581.474C145.867 580.639 144.789 580.222 143.527 580.222C141.635 580.222 140.157 581.155 139.091 583.021C138.026 584.879 137.493 587.509 137.493 590.909C137.493 593.176 137.732 595.102 138.209 596.688C138.686 598.273 139.373 599.479 140.267 600.305C141.171 601.132 142.257 601.545 143.527 601.545ZM168.789 589.503V592.315H157.334V589.503H168.789ZM182.586 604.358C180.66 604.358 179.019 603.834 177.664 602.786C176.309 601.729 175.273 600.199 174.558 598.196C173.842 596.185 173.484 593.756 173.484 590.909C173.484 588.08 173.842 585.663 174.558 583.661C175.282 581.649 176.322 580.115 177.677 579.058C179.04 577.993 180.677 577.46 182.586 577.46C184.495 577.46 186.127 577.993 187.482 579.058C188.846 580.115 189.886 581.649 190.602 583.661C191.326 585.663 191.688 588.08 191.688 590.909C191.688 593.756 191.33 596.185 190.614 598.196C189.898 600.199 188.863 601.729 187.508 602.786C186.153 603.834 184.512 604.358 182.586 604.358ZM182.586 601.545C184.495 601.545 185.978 600.625 187.035 598.784C188.092 596.943 188.62 594.318 188.62 590.909C188.62 588.642 188.377 586.712 187.891 585.118C187.414 583.524 186.724 582.31 185.82 581.474C184.925 580.639 183.847 580.222 182.586 580.222C180.694 580.222 179.215 581.155 178.15 583.021C177.085 584.879 176.552 587.509 176.552 590.909C176.552 593.176 176.79 595.102 177.268 596.688C177.745 598.273 178.431 599.479 179.326 600.305C180.229 601.132 181.316 601.545 182.586 601.545ZM204.881 577.46C205.955 577.469 207.029 577.673 208.103 578.074C209.177 578.474 210.157 579.139 211.043 580.068C211.93 580.989 212.641 582.246 213.178 583.839C213.715 585.433 213.984 587.432 213.984 589.835C213.984 592.162 213.762 594.229 213.319 596.036C212.884 597.834 212.254 599.351 211.427 600.587C210.609 601.822 209.612 602.76 208.435 603.399C207.268 604.038 205.947 604.358 204.472 604.358C203.006 604.358 201.698 604.068 200.548 603.489C199.406 602.901 198.468 602.087 197.735 601.047C197.011 599.999 196.546 598.784 196.342 597.403H199.461C199.742 598.605 200.3 599.598 201.136 600.382C201.979 601.158 203.092 601.545 204.472 601.545C206.492 601.545 208.086 600.663 209.254 598.899C210.43 597.135 211.018 594.642 211.018 591.42H210.813C210.336 592.136 209.769 592.754 209.113 593.274C208.457 593.794 207.728 594.195 206.927 594.476C206.126 594.757 205.273 594.898 204.37 594.898C202.87 594.898 201.494 594.527 200.241 593.786C198.996 593.036 197.999 592.009 197.249 590.705C196.508 589.392 196.137 587.892 196.137 586.205C196.137 584.602 196.495 583.136 197.211 581.807C197.935 580.469 198.95 579.403 200.254 578.611C201.566 577.818 203.109 577.435 204.881 577.46ZM204.881 580.273C203.808 580.273 202.84 580.541 201.979 581.078C201.127 581.607 200.45 582.322 199.947 583.226C199.452 584.121 199.205 585.114 199.205 586.205C199.205 587.295 199.444 588.288 199.921 589.183C200.407 590.07 201.067 590.777 201.903 591.305C202.746 591.825 203.705 592.085 204.779 592.085C205.589 592.085 206.343 591.928 207.042 591.612C207.741 591.288 208.35 590.849 208.87 590.295C209.398 589.733 209.812 589.098 210.11 588.391C210.408 587.675 210.558 586.929 210.558 586.153C210.558 585.131 210.31 584.172 209.816 583.277C209.33 582.382 208.657 581.658 207.796 581.104C206.944 580.55 205.972 580.273 204.881 580.273ZM230.312 589.503V592.315H218.858V589.503H230.312ZM234.339 604V601.699L242.981 592.239C243.995 591.131 244.831 590.168 245.487 589.349C246.143 588.523 246.629 587.747 246.944 587.023C247.268 586.29 247.43 585.523 247.43 584.722C247.43 583.801 247.208 583.004 246.765 582.331C246.331 581.658 245.734 581.138 244.975 580.771C244.217 580.405 243.365 580.222 242.419 580.222C241.413 580.222 240.535 580.43 239.785 580.848C239.044 581.257 238.468 581.832 238.059 582.574C237.659 583.315 237.458 584.185 237.458 585.182H234.441C234.441 583.648 234.795 582.301 235.502 581.142C236.21 579.983 237.173 579.08 238.392 578.432C239.619 577.784 240.995 577.46 242.521 577.46C244.055 577.46 245.414 577.784 246.599 578.432C247.784 579.08 248.713 579.953 249.386 581.053C250.059 582.152 250.396 583.375 250.396 584.722C250.396 585.685 250.221 586.626 249.872 587.547C249.531 588.459 248.934 589.477 248.082 590.602C247.238 591.719 246.066 593.082 244.566 594.693L238.686 600.983V601.188H250.856V604H234.339ZM264.676 604.358C262.75 604.358 261.109 603.834 259.754 602.786C258.399 601.729 257.363 600.199 256.647 598.196C255.931 596.185 255.574 593.756 255.574 590.909C255.574 588.08 255.931 585.663 256.647 583.661C257.372 581.649 258.412 580.115 259.767 579.058C261.13 577.993 262.767 577.46 264.676 577.46C266.585 577.46 268.217 577.993 269.572 579.058C270.936 580.115 271.975 581.649 272.691 583.661C273.416 585.663 273.778 588.08 273.778 590.909C273.778 593.756 273.42 596.185 272.704 598.196C271.988 600.199 270.953 601.729 269.598 602.786C268.243 603.834 266.602 604.358 264.676 604.358ZM264.676 601.545C266.585 601.545 268.068 600.625 269.125 598.784C270.181 596.943 270.71 594.318 270.71 590.909C270.71 588.642 270.467 586.712 269.981 585.118C269.504 583.524 268.814 582.31 267.91 581.474C267.015 580.639 265.937 580.222 264.676 580.222C262.784 580.222 261.305 581.155 260.24 583.021C259.174 584.879 258.642 587.509 258.642 590.909C258.642 593.176 258.88 595.102 259.358 596.688C259.835 598.273 260.521 599.479 261.416 600.305C262.319 601.132 263.406 601.545 264.676 601.545ZM278.636 604V601.699L287.278 592.239C288.292 591.131 289.127 590.168 289.784 589.349C290.44 588.523 290.926 587.747 291.241 587.023C291.565 586.29 291.727 585.523 291.727 584.722C291.727 583.801 291.505 583.004 291.062 582.331C290.627 581.658 290.031 581.138 289.272 580.771C288.514 580.405 287.662 580.222 286.716 580.222C285.71 580.222 284.832 580.43 284.082 580.848C283.341 581.257 282.765 581.832 282.356 582.574C281.956 583.315 281.755 584.185 281.755 585.182H278.738C278.738 583.648 279.092 582.301 279.799 581.142C280.507 579.983 281.47 579.08 282.689 578.432C283.916 577.784 285.292 577.46 286.818 577.46C288.352 577.46 289.711 577.784 290.896 578.432C292.081 579.08 293.01 579.953 293.683 581.053C294.356 582.152 294.693 583.375 294.693 584.722C294.693 585.685 294.518 586.626 294.169 587.547C293.828 588.459 293.231 589.477 292.379 590.602C291.535 591.719 290.363 593.082 288.863 594.693L282.983 600.983V601.188H295.153V604H278.636ZM300.433 604V601.699L309.075 592.239C310.089 591.131 310.924 590.168 311.581 589.349C312.237 588.523 312.723 587.747 313.038 587.023C313.362 586.29 313.524 585.523 313.524 584.722C313.524 583.801 313.302 583.004 312.859 582.331C312.424 581.658 311.828 581.138 311.069 580.771C310.311 580.405 309.458 580.222 308.512 580.222C307.507 580.222 306.629 580.43 305.879 580.848C305.137 581.257 304.562 581.832 304.153 582.574C303.752 583.315 303.552 584.185 303.552 585.182H300.535C300.535 583.648 300.889 582.301 301.596 581.142C302.304 579.983 303.267 579.08 304.485 578.432C305.713 577.784 307.089 577.46 308.615 577.46C310.149 577.46 311.508 577.784 312.693 578.432C313.877 579.08 314.806 579.953 315.48 581.053C316.153 582.152 316.49 583.375 316.49 584.722C316.49 585.685 316.315 586.626 315.966 587.547C315.625 588.459 315.028 589.477 314.176 590.602C313.332 591.719 312.16 593.082 310.66 594.693L304.779 600.983V601.188H316.95V604H300.433Z" fill="black"/>
</g>
<rect x="1" y="832" width="430" height="100" fill="#B81010"/>
<rect x="15" y="851" width="70" height="62" fill="#B81010"/>
<rect x="20" y="852" width="60" height="60" fill="#B81010"/>
<path d="M67.6443 874.853L50.1239 860.05C49.6305 859.634 48.9392 859.639 48.4523 860.065L31.4922 874.867C31.1729 875.146 30.9858 875.57 30.9858 876.017V902.784C30.9858 903.599 31.5903 904.258 32.3366 904.258H42.4184C43.1636 904.258 43.7692 903.599 43.7692 902.784V886.395H55.384V902.784C55.384 903.599 55.9895 904.258 56.7347 904.258H66.8182C67.5634 904.258 68.1689 903.599 68.1689 902.784V876.017C68.1695 875.561 67.9754 875.131 67.6443 874.853Z" fill="white"/>
<rect x="125" y="851" width="70" height="62" fill="#B81010"/>
<rect x="130" y="853" width="60" height="60" fill="#B81010"/>
<path d="M178.27 876.769H142.575C142.164 876.769 141.831 877.237 141.831 877.815V888.27C141.831 888.847 142.164 889.315 142.575 889.315H178.27C178.681 889.315 179.014 888.847 179.014 888.27V877.814C179.014 877.237 178.681 876.769 178.27 876.769Z" fill="white"/>
<path d="M163.501 860.779V860.742H142.575C142.164 860.742 141.831 861.21 141.831 861.788V872.242C141.831 872.82 142.164 873.288 142.575 873.288H163.501V873.251C163.821 873.135 164.059 872.73 164.059 872.243V861.787C164.059 861.3 163.821 860.895 163.501 860.779Z" fill="white"/>
<path d="M168.231 892.712H142.575C142.164 892.712 141.831 893.18 141.831 893.758V904.212C141.831 904.79 142.164 905.258 142.575 905.258H168.231C168.642 905.258 168.975 904.79 168.975 904.212V893.758C168.975 893.18 168.642 892.712 168.231 892.712Z" fill="white"/>
<rect x="236" y="851" width="70" height="62" fill="#B81010"/>
<rect x="241" y="851" width="60" height="60" fill="#B81010"/>
<path d="M268.58 884.281L270.315 883.072L268.065 880.789L268.58 884.281Z" fill="white"/>
<path d="M290.014 880.977C290.014 880.462 289.804 880.009 289.485 879.725L289.492 879.712L284.996 876.58L287.584 871.173L287.575 871.166C287.733 870.729 287.727 870.21 287.514 869.765C287.3 869.32 286.932 869.054 286.538 869.001V868.986H281.346V862.74H281.335C281.291 862.265 281.07 861.821 280.701 861.564C280.332 861.306 279.902 861.299 279.538 861.491L279.532 861.478L274.961 864.662L272.429 859.372L272.42 859.378C272.185 858.994 271.81 858.742 271.384 858.742C270.957 858.742 270.581 858.995 270.347 859.38L270.335 859.372L267.762 864.749L263.33 861.663L263.325 861.674C262.962 861.483 262.533 861.491 262.164 861.748C261.794 862.005 261.574 862.45 261.53 862.926H261.517V869.135H256.4V869.147C256.007 869.201 255.638 869.466 255.425 869.911C255.212 870.357 255.206 870.875 255.364 871.313L255.353 871.321L257.883 876.607L253.353 879.763L253.359 879.774C253.04 880.058 252.831 880.51 252.831 881.024C252.831 881.539 253.041 881.992 253.36 882.275L253.353 882.289L257.849 885.42L255.261 890.828L255.27 890.834C255.112 891.272 255.118 891.79 255.331 892.235C255.545 892.68 255.914 892.946 256.308 892.999V893.015H261.499V899.26H261.51C261.554 899.735 261.774 900.179 262.143 900.436C262.513 900.694 262.943 900.701 263.306 900.509L263.313 900.522L267.884 897.338L270.416 902.628L270.425 902.622C270.66 903.006 271.035 903.258 271.461 903.258C271.888 903.258 272.263 903.005 272.498 902.621L272.509 902.628L275.083 897.251L279.514 900.337L279.52 900.326C279.883 900.517 280.312 900.509 280.681 900.252C281.05 899.995 281.271 899.55 281.315 899.074H281.328V892.866H286.445V892.854C286.839 892.8 287.207 892.534 287.42 892.089C287.633 891.644 287.639 891.125 287.481 890.687L287.492 890.68L284.962 885.394L289.492 882.238L289.487 882.227C289.805 881.944 290.014 881.491 290.014 880.977ZM265.413 889.84C264.338 890.59 263.363 890.692 262.534 890.423L262.65 888.854C263.278 889.074 264.089 889.072 264.856 888.538C265.515 888.079 265.656 887.511 265.468 887.12C264.909 885.953 262.097 888.999 260.888 886.473C260.354 885.356 260.711 883.873 262.021 882.96C262.905 882.344 263.793 882.156 264.637 882.386L264.488 883.911C263.797 883.723 263.086 883.909 262.519 884.304C262.018 884.653 261.86 885.112 262.053 885.515C262.558 886.571 265.411 883.632 266.61 886.137C267.198 887.363 266.907 888.801 265.413 889.84ZM272.136 884.997L271.242 884.104L268.857 885.765L269.05 887.146L267.707 888.081L266.639 879.877L268.124 878.844L273.479 884.062L272.136 884.997ZM273.946 883.737L270.734 877.025L271.927 876.194L274.537 881.647L276.889 880.009L277.491 881.268L273.946 883.737ZM278.291 880.71L275.079 873.999L279.016 871.256L279.617 872.514L276.866 874.431L277.54 875.84L280.233 873.964L280.835 875.221L278.142 877.097L278.873 878.627L281.626 876.71L282.228 877.968L278.291 880.71Z" fill="white"/>
<rect x="347" y="851" width="70" height="62" fill="#B81010"/>
<rect x="352" y="853" width="60" height="60" fill="#B81010"/>
<path d="M402.441 889.575L391.827 884.871L387.339 882.881C389.299 881.734 390.891 879.963 391.933 877.83C392.76 876.136 393.252 874.219 393.252 872.168C393.252 871.018 393.055 869.925 392.781 868.871C391.447 863.763 387.153 860 381.999 860C376.942 860 372.713 863.629 371.296 868.593C370.969 869.731 370.744 870.915 370.744 872.17C370.744 874.348 371.291 876.379 372.222 878.145C373.297 880.194 374.892 881.884 376.833 882.97L372.535 884.83L361.577 889.572C360.626 889.986 360 890.983 360 892.097V901.582V903.285C360 904.784 361.124 906 362.513 906H401.487C402.875 906 404 904.785 404 903.285V901.582V892.097C403.999 890.987 403.383 889.999 402.441 889.575Z" fill="white"/>
</g>
<defs>
<filter id="filter0_d_220_4897" x="25" y="140" width="388" height="248" filterUnits="userSpaceOnUse" color-interpolation-filters="sRGB">
<feFlood flood-opacity="0" result="BackgroundImageFix"/>
<feColorMatrix in="SourceAlpha" type="matrix" values="0 0 0 0 0 0 0 0 0 0 0 0 0 0 0 0 0 0 127 0" result="hardAlpha"/>
<feOffset dx="4" dy="4"/>
<feGaussianBlur stdDeviation="2"/>
<feComposite in2="hardAlpha" operator="out"/>
<feColorMatrix type="matrix" values="0 0 0 0 0 0 0 0 0 0 0 0 0 0 0 0 0 0 0.25 0"/>
<feBlend mode="normal" in2="BackgroundImageFix" result="effect1_dropShadow_220_4897"/>
<feBlend mode="normal" in="SourceGraphic" in2="effect1_dropShadow_220_4897" result="shape"/>
</filter>
<filter id="filter1_d_220_4897" x="25" y="420" width="388" height="248" filterUnits="userSpaceOnUse" color-interpolation-filters="sRGB">
<feFlood flood-opacity="0" result="BackgroundImageFix"/>
<feColorMatrix in="SourceAlpha" type="matrix" values="0 0 0 0 0 0 0 0 0 0 0 0 0 0 0 0 0 0 127 0" result="hardAlpha"/>
<feOffset dx="4" dy="4"/>
<feGaussianBlur stdDeviation="2"/>
<feComposite in2="hardAlpha" operator="out"/>
<feColorMatrix type="matrix" values="0 0 0 0 0 0 0 0 0 0 0 0 0 0 0 0 0 0 0.25 0"/>
<feBlend mode="normal" in2="BackgroundImageFix" result="effect1_dropShadow_220_4897"/>
<feBlend mode="normal" in="SourceGraphic" in2="effect1_dropShadow_220_4897" result="shape"/>
</filter>
<clipPath id="clip0_220_4897">
<rect width="430" height="932" fill="white"/>
</clipPath>
</defs>
</svg>
