<svg width="1440" height="1024" viewBox="0 0 1440 1024" fill="none" xmlns="http://www.w3.org/2000/svg">
<rect width="1440" height="1024" fill="#F5F5F5"/>
<line x1="469.76" y1="934" x2="469.76" y2="468" stroke="black"/>
<line x1="470" y1="933.497" x2="886" y2="933.497" stroke="black"/>
<rect x="509" y="554.212" width="83.2" height="378.232" fill="#B81010"/>
<rect x="630.68" y="641.197" width="83.2" height="291.246" fill="#B81010"/>
<rect x="752.36" y="683.913" width="83.2" height="248.53" fill="#B81010"/>
<line x1="953.76" y1="932" x2="953.76" y2="466" stroke="black"/>
<line x1="954" y1="931.497" x2="1370" y2="931.497" stroke="black"/>
<rect x="993" y="552.212" width="83.2" height="378.232" fill="#B81010"/>
<rect x="1114.68" y="639.197" width="83.2" height="291.246" fill="#B81010"/>
<rect x="1236.36" y="681.913" width="83.2" height="248.53" fill="#B81010"/>
<g filter="url(#filter0_d_220_2608)">
<rect x="470" y="180" width="270" height="200" rx="10" fill="white"/>
</g>
<path d="M525.526 234V207.818H541.225V210.631H528.696V219.477H540.049V222.29H528.696V234H525.526ZM553.037 234.409C551.145 234.409 549.513 233.991 548.141 233.156C546.777 232.312 545.725 231.136 544.983 229.628C544.25 228.111 543.884 226.347 543.884 224.335C543.884 222.324 544.25 220.551 544.983 219.017C545.725 217.474 546.756 216.273 548.077 215.412C549.407 214.543 550.958 214.108 552.73 214.108C553.753 214.108 554.763 214.278 555.76 214.619C556.757 214.96 557.665 215.514 558.483 216.281C559.301 217.04 559.953 218.045 560.439 219.298C560.925 220.551 561.168 222.094 561.168 223.926V225.205H546.032V222.597H558.1C558.1 221.489 557.878 220.5 557.435 219.631C557 218.761 556.378 218.075 555.569 217.572C554.767 217.07 553.821 216.818 552.73 216.818C551.529 216.818 550.489 217.116 549.611 217.713C548.742 218.301 548.073 219.068 547.604 220.014C547.135 220.96 546.901 221.974 546.901 223.057V224.795C546.901 226.278 547.157 227.536 547.668 228.567C548.188 229.589 548.908 230.369 549.828 230.906C550.749 231.435 551.819 231.699 553.037 231.699C553.83 231.699 554.546 231.588 555.185 231.366C555.833 231.136 556.391 230.795 556.86 230.344C557.328 229.884 557.691 229.312 557.946 228.631L560.861 229.449C560.554 230.438 560.039 231.307 559.314 232.057C558.59 232.798 557.695 233.378 556.63 233.795C555.564 234.205 554.367 234.409 553.037 234.409ZM573.99 234.409C572.098 234.409 570.466 233.991 569.094 233.156C567.73 232.312 566.678 231.136 565.936 229.628C565.203 228.111 564.837 226.347 564.837 224.335C564.837 222.324 565.203 220.551 565.936 219.017C566.678 217.474 567.709 216.273 569.03 215.412C570.36 214.543 571.911 214.108 573.684 214.108C574.706 214.108 575.716 214.278 576.713 214.619C577.711 214.96 578.618 215.514 579.436 216.281C580.255 217.04 580.907 218.045 581.392 219.298C581.878 220.551 582.121 222.094 582.121 223.926V225.205H566.985V222.597H579.053C579.053 221.489 578.831 220.5 578.388 219.631C577.953 218.761 577.331 218.075 576.522 217.572C575.721 217.07 574.775 216.818 573.684 216.818C572.482 216.818 571.442 217.116 570.564 217.713C569.695 218.301 569.026 219.068 568.557 220.014C568.088 220.96 567.854 221.974 567.854 223.057V224.795C567.854 226.278 568.11 227.536 568.621 228.567C569.141 229.589 569.861 230.369 570.782 230.906C571.702 231.435 572.772 231.699 573.99 231.699C574.783 231.699 575.499 231.588 576.138 231.366C576.786 231.136 577.344 230.795 577.813 230.344C578.282 229.884 578.644 229.312 578.9 228.631L581.814 229.449C581.507 230.438 580.992 231.307 580.267 232.057C579.543 232.798 578.648 233.378 577.583 233.795C576.517 234.205 575.32 234.409 573.99 234.409ZM594.125 234.409C592.489 234.409 591.044 233.996 589.792 233.169C588.539 232.334 587.559 231.158 586.851 229.641C586.144 228.115 585.79 226.312 585.79 224.233C585.79 222.17 586.144 220.381 586.851 218.864C587.559 217.347 588.543 216.175 589.804 215.348C591.066 214.521 592.523 214.108 594.176 214.108C595.455 214.108 596.465 214.321 597.206 214.747C597.956 215.165 598.527 215.642 598.919 216.179C599.32 216.707 599.631 217.142 599.853 217.483H600.108V207.818H603.125V234H600.211V230.983H599.853C599.631 231.341 599.316 231.793 598.907 232.338C598.498 232.875 597.914 233.357 597.155 233.783C596.397 234.2 595.387 234.409 594.125 234.409ZM594.534 231.699C595.745 231.699 596.767 231.384 597.603 230.753C598.438 230.114 599.073 229.232 599.507 228.107C599.942 226.973 600.159 225.665 600.159 224.182C600.159 222.716 599.946 221.433 599.52 220.334C599.094 219.226 598.463 218.365 597.628 217.751C596.793 217.129 595.762 216.818 594.534 216.818C593.256 216.818 592.191 217.146 591.338 217.803C590.495 218.45 589.86 219.332 589.434 220.449C589.016 221.557 588.807 222.801 588.807 224.182C588.807 225.58 589.02 226.849 589.446 227.991C589.881 229.125 590.52 230.028 591.364 230.702C592.216 231.366 593.273 231.699 594.534 231.699ZM609.479 234V207.818H612.496V217.483H612.752C612.973 217.142 613.28 216.707 613.672 216.179C614.073 215.642 614.644 215.165 615.385 214.747C616.135 214.321 617.15 214.108 618.428 214.108C620.081 214.108 621.539 214.521 622.8 215.348C624.061 216.175 625.046 217.347 625.753 218.864C626.461 220.381 626.814 222.17 626.814 224.233C626.814 226.312 626.461 228.115 625.753 229.641C625.046 231.158 624.066 232.334 622.813 233.169C621.56 233.996 620.115 234.409 618.479 234.409C617.218 234.409 616.208 234.2 615.449 233.783C614.691 233.357 614.107 232.875 613.698 232.338C613.289 231.793 612.973 231.341 612.752 230.983H612.394V234H609.479ZM612.445 224.182C612.445 225.665 612.662 226.973 613.097 228.107C613.532 229.232 614.167 230.114 615.002 230.753C615.837 231.384 616.86 231.699 618.07 231.699C619.331 231.699 620.384 231.366 621.228 230.702C622.08 230.028 622.719 229.125 623.145 227.991C623.58 226.849 623.797 225.58 623.797 224.182C623.797 222.801 623.584 221.557 623.158 220.449C622.74 219.332 622.105 218.45 621.253 217.803C620.409 217.146 619.348 216.818 618.07 216.818C616.843 216.818 615.811 217.129 614.976 217.751C614.141 218.365 613.51 219.226 613.084 220.334C612.658 221.433 612.445 222.716 612.445 224.182ZM637.208 234.46C635.963 234.46 634.834 234.226 633.82 233.757C632.806 233.28 632 232.594 631.404 231.699C630.807 230.795 630.509 229.705 630.509 228.426C630.509 227.301 630.73 226.389 631.174 225.69C631.617 224.983 632.209 224.429 632.951 224.028C633.692 223.628 634.51 223.33 635.405 223.134C636.309 222.929 637.216 222.767 638.128 222.648C639.321 222.494 640.289 222.379 641.03 222.303C641.78 222.217 642.326 222.077 642.667 221.881C643.016 221.685 643.191 221.344 643.191 220.858V220.756C643.191 219.494 642.846 218.514 642.155 217.815C641.473 217.116 640.438 216.767 639.049 216.767C637.608 216.767 636.479 217.082 635.661 217.713C634.843 218.344 634.267 219.017 633.935 219.733L631.071 218.71C631.583 217.517 632.265 216.588 633.117 215.923C633.978 215.25 634.915 214.781 635.929 214.517C636.952 214.244 637.958 214.108 638.946 214.108C639.577 214.108 640.301 214.185 641.12 214.338C641.946 214.483 642.743 214.786 643.51 215.246C644.286 215.706 644.929 216.401 645.441 217.33C645.952 218.259 646.208 219.503 646.208 221.062V234H643.191V231.341H643.037C642.833 231.767 642.492 232.223 642.015 232.709C641.537 233.195 640.902 233.608 640.11 233.949C639.317 234.29 638.35 234.46 637.208 234.46ZM637.668 231.75C638.861 231.75 639.867 231.516 640.685 231.047C641.512 230.578 642.134 229.973 642.551 229.232C642.978 228.49 643.191 227.71 643.191 226.892V224.131C643.063 224.284 642.782 224.425 642.347 224.553C641.921 224.672 641.426 224.778 640.864 224.872C640.31 224.957 639.769 225.034 639.24 225.102C638.721 225.162 638.299 225.213 637.975 225.256C637.191 225.358 636.458 225.524 635.776 225.754C635.103 225.976 634.557 226.312 634.14 226.764C633.73 227.207 633.526 227.812 633.526 228.58C633.526 229.628 633.914 230.42 634.689 230.957C635.473 231.486 636.466 231.75 637.668 231.75ZM659.692 234.409C657.851 234.409 656.266 233.974 654.936 233.105C653.607 232.236 652.584 231.038 651.868 229.513C651.152 227.987 650.794 226.244 650.794 224.284C650.794 222.29 651.161 220.53 651.893 219.004C652.635 217.47 653.666 216.273 654.987 215.412C656.317 214.543 657.868 214.108 659.641 214.108C661.021 214.108 662.266 214.364 663.374 214.875C664.482 215.386 665.389 216.102 666.097 217.023C666.804 217.943 667.243 219.017 667.413 220.244H664.396C664.166 219.349 663.655 218.557 662.862 217.866C662.078 217.168 661.021 216.818 659.692 216.818C658.516 216.818 657.484 217.125 656.598 217.739C655.72 218.344 655.034 219.2 654.54 220.308C654.054 221.408 653.811 222.699 653.811 224.182C653.811 225.699 654.05 227.02 654.527 228.145C655.013 229.27 655.695 230.143 656.572 230.766C657.459 231.388 658.499 231.699 659.692 231.699C660.476 231.699 661.188 231.562 661.827 231.29C662.466 231.017 663.007 230.625 663.45 230.114C663.893 229.602 664.209 228.989 664.396 228.273H667.413C667.243 229.432 666.821 230.476 666.148 231.405C665.483 232.325 664.601 233.058 663.501 233.604C662.411 234.141 661.141 234.409 659.692 234.409ZM674.636 226.841L674.585 223.108H675.199L683.79 214.364H687.523L678.369 223.619H678.114L674.636 226.841ZM671.824 234V207.818H674.841V234H671.824ZM684.301 234L676.631 224.284L678.778 222.188L688.136 234H684.301Z" fill="black"/>
<path d="M598.149 300.818V327H594.979V304.142H594.825L588.433 308.386V305.165L594.979 300.818H598.149ZM605.679 327V324.699L614.321 315.239C615.335 314.131 616.17 313.168 616.827 312.349C617.483 311.523 617.969 310.747 618.284 310.023C618.608 309.29 618.77 308.523 618.77 307.722C618.77 306.801 618.548 306.004 618.105 305.331C617.67 304.658 617.074 304.138 616.315 303.771C615.557 303.405 614.705 303.222 613.759 303.222C612.753 303.222 611.875 303.43 611.125 303.848C610.384 304.257 609.808 304.832 609.399 305.574C608.999 306.315 608.798 307.185 608.798 308.182H605.781C605.781 306.648 606.135 305.301 606.842 304.142C607.55 302.983 608.513 302.08 609.732 301.432C610.959 300.784 612.335 300.46 613.861 300.46C615.395 300.46 616.754 300.784 617.939 301.432C619.124 302.08 620.053 302.953 620.726 304.053C621.399 305.152 621.736 306.375 621.736 307.722C621.736 308.685 621.561 309.626 621.212 310.547C620.871 311.459 620.274 312.477 619.422 313.602C618.578 314.719 617.406 316.082 615.906 317.693L610.026 323.983V324.188H622.196V327H605.679Z" fill="black"/>
<g filter="url(#filter1_d_220_2608)">
<rect x="785" y="180" width="270" height="200" rx="10" fill="white"/>
</g>
<path d="M840.526 234V207.818H856.225V210.631H843.696V219.477H855.049V222.29H843.696V234H840.526ZM868.037 234.409C866.145 234.409 864.513 233.991 863.141 233.156C861.777 232.312 860.725 231.136 859.983 229.628C859.25 228.111 858.884 226.347 858.884 224.335C858.884 222.324 859.25 220.551 859.983 219.017C860.725 217.474 861.756 216.273 863.077 215.412C864.407 214.543 865.958 214.108 867.73 214.108C868.753 214.108 869.763 214.278 870.76 214.619C871.757 214.96 872.665 215.514 873.483 216.281C874.301 217.04 874.953 218.045 875.439 219.298C875.925 220.551 876.168 222.094 876.168 223.926V225.205H861.032V222.597H873.1C873.1 221.489 872.878 220.5 872.435 219.631C872 218.761 871.378 218.075 870.569 217.572C869.767 217.07 868.821 216.818 867.73 216.818C866.529 216.818 865.489 217.116 864.611 217.713C863.742 218.301 863.073 219.068 862.604 220.014C862.135 220.96 861.901 221.974 861.901 223.057V224.795C861.901 226.278 862.157 227.536 862.668 228.567C863.188 229.589 863.908 230.369 864.828 230.906C865.749 231.435 866.819 231.699 868.037 231.699C868.83 231.699 869.546 231.588 870.185 231.366C870.833 231.136 871.391 230.795 871.86 230.344C872.328 229.884 872.691 229.312 872.946 228.631L875.861 229.449C875.554 230.438 875.039 231.307 874.314 232.057C873.59 232.798 872.695 233.378 871.63 233.795C870.564 234.205 869.367 234.409 868.037 234.409ZM888.99 234.409C887.098 234.409 885.466 233.991 884.094 233.156C882.73 232.312 881.678 231.136 880.936 229.628C880.203 228.111 879.837 226.347 879.837 224.335C879.837 222.324 880.203 220.551 880.936 219.017C881.678 217.474 882.709 216.273 884.03 215.412C885.36 214.543 886.911 214.108 888.684 214.108C889.706 214.108 890.716 214.278 891.713 214.619C892.711 214.96 893.618 215.514 894.436 216.281C895.255 217.04 895.907 218.045 896.392 219.298C896.878 220.551 897.121 222.094 897.121 223.926V225.205H881.985V222.597H894.053C894.053 221.489 893.831 220.5 893.388 219.631C892.953 218.761 892.331 218.075 891.522 217.572C890.721 217.07 889.775 216.818 888.684 216.818C887.482 216.818 886.442 217.116 885.564 217.713C884.695 218.301 884.026 219.068 883.557 220.014C883.088 220.96 882.854 221.974 882.854 223.057V224.795C882.854 226.278 883.11 227.536 883.621 228.567C884.141 229.589 884.861 230.369 885.782 230.906C886.702 231.435 887.772 231.699 888.99 231.699C889.783 231.699 890.499 231.588 891.138 231.366C891.786 231.136 892.344 230.795 892.813 230.344C893.282 229.884 893.644 229.312 893.9 228.631L896.814 229.449C896.507 230.438 895.992 231.307 895.267 232.057C894.543 232.798 893.648 233.378 892.583 233.795C891.517 234.205 890.32 234.409 888.99 234.409ZM909.125 234.409C907.489 234.409 906.044 233.996 904.792 233.169C903.539 232.334 902.559 231.158 901.851 229.641C901.144 228.115 900.79 226.312 900.79 224.233C900.79 222.17 901.144 220.381 901.851 218.864C902.559 217.347 903.543 216.175 904.804 215.348C906.066 214.521 907.523 214.108 909.176 214.108C910.455 214.108 911.465 214.321 912.206 214.747C912.956 215.165 913.527 215.642 913.919 216.179C914.32 216.707 914.631 217.142 914.853 217.483H915.108V207.818H918.125V234H915.211V230.983H914.853C914.631 231.341 914.316 231.793 913.907 232.338C913.498 232.875 912.914 233.357 912.155 233.783C911.397 234.2 910.387 234.409 909.125 234.409ZM909.534 231.699C910.745 231.699 911.767 231.384 912.603 230.753C913.438 230.114 914.073 229.232 914.507 228.107C914.942 226.973 915.159 225.665 915.159 224.182C915.159 222.716 914.946 221.433 914.52 220.334C914.094 219.226 913.463 218.365 912.628 217.751C911.793 217.129 910.762 216.818 909.534 216.818C908.256 216.818 907.191 217.146 906.338 217.803C905.495 218.45 904.86 219.332 904.434 220.449C904.016 221.557 903.807 222.801 903.807 224.182C903.807 225.58 904.02 226.849 904.446 227.991C904.881 229.125 905.52 230.028 906.364 230.702C907.216 231.366 908.273 231.699 909.534 231.699ZM924.479 234V207.818H927.496V217.483H927.752C927.973 217.142 928.28 216.707 928.672 216.179C929.073 215.642 929.644 215.165 930.385 214.747C931.135 214.321 932.15 214.108 933.428 214.108C935.081 214.108 936.539 214.521 937.8 215.348C939.061 216.175 940.046 217.347 940.753 218.864C941.461 220.381 941.814 222.17 941.814 224.233C941.814 226.312 941.461 228.115 940.753 229.641C940.046 231.158 939.066 232.334 937.813 233.169C936.56 233.996 935.115 234.409 933.479 234.409C932.218 234.409 931.208 234.2 930.449 233.783C929.691 233.357 929.107 232.875 928.698 232.338C928.289 231.793 927.973 231.341 927.752 230.983H927.394V234H924.479ZM927.445 224.182C927.445 225.665 927.662 226.973 928.097 228.107C928.532 229.232 929.167 230.114 930.002 230.753C930.837 231.384 931.86 231.699 933.07 231.699C934.331 231.699 935.384 231.366 936.228 230.702C937.08 230.028 937.719 229.125 938.145 227.991C938.58 226.849 938.797 225.58 938.797 224.182C938.797 222.801 938.584 221.557 938.158 220.449C937.74 219.332 937.105 218.45 936.253 217.803C935.409 217.146 934.348 216.818 933.07 216.818C931.843 216.818 930.811 217.129 929.976 217.751C929.141 218.365 928.51 219.226 928.084 220.334C927.658 221.433 927.445 222.716 927.445 224.182ZM952.208 234.46C950.963 234.46 949.834 234.226 948.82 233.757C947.806 233.28 947 232.594 946.404 231.699C945.807 230.795 945.509 229.705 945.509 228.426C945.509 227.301 945.73 226.389 946.174 225.69C946.617 224.983 947.209 224.429 947.951 224.028C948.692 223.628 949.51 223.33 950.405 223.134C951.309 222.929 952.216 222.767 953.128 222.648C954.321 222.494 955.289 222.379 956.03 222.303C956.78 222.217 957.326 222.077 957.667 221.881C958.016 221.685 958.191 221.344 958.191 220.858V220.756C958.191 219.494 957.846 218.514 957.155 217.815C956.473 217.116 955.438 216.767 954.049 216.767C952.608 216.767 951.479 217.082 950.661 217.713C949.843 218.344 949.267 219.017 948.935 219.733L946.071 218.71C946.583 217.517 947.265 216.588 948.117 215.923C948.978 215.25 949.915 214.781 950.929 214.517C951.952 214.244 952.958 214.108 953.946 214.108C954.577 214.108 955.301 214.185 956.12 214.338C956.946 214.483 957.743 214.786 958.51 215.246C959.286 215.706 959.929 216.401 960.441 217.33C960.952 218.259 961.208 219.503 961.208 221.062V234H958.191V231.341H958.037C957.833 231.767 957.492 232.223 957.015 232.709C956.537 233.195 955.902 233.608 955.11 233.949C954.317 234.29 953.35 234.46 952.208 234.46ZM952.668 231.75C953.861 231.75 954.867 231.516 955.685 231.047C956.512 230.578 957.134 229.973 957.551 229.232C957.978 228.49 958.191 227.71 958.191 226.892V224.131C958.063 224.284 957.782 224.425 957.347 224.553C956.921 224.672 956.426 224.778 955.864 224.872C955.31 224.957 954.769 225.034 954.24 225.102C953.721 225.162 953.299 225.213 952.975 225.256C952.191 225.358 951.458 225.524 950.776 225.754C950.103 225.976 949.557 226.312 949.14 226.764C948.73 227.207 948.526 227.812 948.526 228.58C948.526 229.628 948.914 230.42 949.689 230.957C950.473 231.486 951.466 231.75 952.668 231.75ZM974.692 234.409C972.851 234.409 971.266 233.974 969.936 233.105C968.607 232.236 967.584 231.038 966.868 229.513C966.152 227.987 965.794 226.244 965.794 224.284C965.794 222.29 966.161 220.53 966.893 219.004C967.635 217.47 968.666 216.273 969.987 215.412C971.317 214.543 972.868 214.108 974.641 214.108C976.021 214.108 977.266 214.364 978.374 214.875C979.482 215.386 980.389 216.102 981.097 217.023C981.804 217.943 982.243 219.017 982.413 220.244H979.396C979.166 219.349 978.655 218.557 977.862 217.866C977.078 217.168 976.021 216.818 974.692 216.818C973.516 216.818 972.484 217.125 971.598 217.739C970.72 218.344 970.034 219.2 969.54 220.308C969.054 221.408 968.811 222.699 968.811 224.182C968.811 225.699 969.05 227.02 969.527 228.145C970.013 229.27 970.695 230.143 971.572 230.766C972.459 231.388 973.499 231.699 974.692 231.699C975.476 231.699 976.188 231.562 976.827 231.29C977.466 231.017 978.007 230.625 978.45 230.114C978.893 229.602 979.209 228.989 979.396 228.273H982.413C982.243 229.432 981.821 230.476 981.148 231.405C980.483 232.325 979.601 233.058 978.501 233.604C977.411 234.141 976.141 234.409 974.692 234.409ZM989.636 226.841L989.585 223.108H990.199L998.79 214.364H1002.52L993.369 223.619H993.114L989.636 226.841ZM986.824 234V207.818H989.841V234H986.824ZM999.301 234L991.631 224.284L993.778 222.188L1003.14 234H999.301Z" fill="black"/>
<path d="M913.149 300.818V327H909.979V304.142H909.825L903.433 308.386V305.165L909.979 300.818H913.149ZM920.679 327V324.699L929.321 315.239C930.335 314.131 931.17 313.168 931.827 312.349C932.483 311.523 932.969 310.747 933.284 310.023C933.608 309.29 933.77 308.523 933.77 307.722C933.77 306.801 933.548 306.004 933.105 305.331C932.67 304.658 932.074 304.138 931.315 303.771C930.557 303.405 929.705 303.222 928.759 303.222C927.753 303.222 926.875 303.43 926.125 303.848C925.384 304.257 924.808 304.832 924.399 305.574C923.999 306.315 923.798 307.185 923.798 308.182H920.781C920.781 306.648 921.135 305.301 921.842 304.142C922.55 302.983 923.513 302.08 924.732 301.432C925.959 300.784 927.335 300.46 928.861 300.46C930.395 300.46 931.754 300.784 932.939 301.432C934.124 302.08 935.053 302.953 935.726 304.053C936.399 305.152 936.736 306.375 936.736 307.722C936.736 308.685 936.561 309.626 936.212 310.547C935.871 311.459 935.274 312.477 934.422 313.602C933.578 314.719 932.406 316.082 930.906 317.693L925.026 323.983V324.188H937.196V327H920.679Z" fill="black"/>
<g filter="url(#filter2_d_220_2608)">
<rect x="1100" y="180" width="270" height="200" rx="10" fill="white"/>
</g>
<path d="M1155.53 234V207.818H1171.22V210.631H1158.7V219.477H1170.05V222.29H1158.7V234H1155.53ZM1183.04 234.409C1181.15 234.409 1179.51 233.991 1178.14 233.156C1176.78 232.312 1175.72 231.136 1174.98 229.628C1174.25 228.111 1173.88 226.347 1173.88 224.335C1173.88 222.324 1174.25 220.551 1174.98 219.017C1175.72 217.474 1176.76 216.273 1178.08 215.412C1179.41 214.543 1180.96 214.108 1182.73 214.108C1183.75 214.108 1184.76 214.278 1185.76 214.619C1186.76 214.96 1187.67 215.514 1188.48 216.281C1189.3 217.04 1189.95 218.045 1190.44 219.298C1190.93 220.551 1191.17 222.094 1191.17 223.926V225.205H1176.03V222.597H1188.1C1188.1 221.489 1187.88 220.5 1187.44 219.631C1187 218.761 1186.38 218.075 1185.57 217.572C1184.77 217.07 1183.82 216.818 1182.73 216.818C1181.53 216.818 1180.49 217.116 1179.61 217.713C1178.74 218.301 1178.07 219.068 1177.6 220.014C1177.14 220.96 1176.9 221.974 1176.9 223.057V224.795C1176.9 226.278 1177.16 227.536 1177.67 228.567C1178.19 229.589 1178.91 230.369 1179.83 230.906C1180.75 231.435 1181.82 231.699 1183.04 231.699C1183.83 231.699 1184.55 231.588 1185.19 231.366C1185.83 231.136 1186.39 230.795 1186.86 230.344C1187.33 229.884 1187.69 229.312 1187.95 228.631L1190.86 229.449C1190.55 230.438 1190.04 231.307 1189.31 232.057C1188.59 232.798 1187.69 233.378 1186.63 233.795C1185.56 234.205 1184.37 234.409 1183.04 234.409ZM1203.99 234.409C1202.1 234.409 1200.47 233.991 1199.09 233.156C1197.73 232.312 1196.68 231.136 1195.94 229.628C1195.2 228.111 1194.84 226.347 1194.84 224.335C1194.84 222.324 1195.2 220.551 1195.94 219.017C1196.68 217.474 1197.71 216.273 1199.03 215.412C1200.36 214.543 1201.91 214.108 1203.68 214.108C1204.71 214.108 1205.72 214.278 1206.71 214.619C1207.71 214.96 1208.62 215.514 1209.44 216.281C1210.25 217.04 1210.91 218.045 1211.39 219.298C1211.88 220.551 1212.12 222.094 1212.12 223.926V225.205H1196.98V222.597H1209.05C1209.05 221.489 1208.83 220.5 1208.39 219.631C1207.95 218.761 1207.33 218.075 1206.52 217.572C1205.72 217.07 1204.77 216.818 1203.68 216.818C1202.48 216.818 1201.44 217.116 1200.56 217.713C1199.69 218.301 1199.03 219.068 1198.56 220.014C1198.09 220.96 1197.85 221.974 1197.85 223.057V224.795C1197.85 226.278 1198.11 227.536 1198.62 228.567C1199.14 229.589 1199.86 230.369 1200.78 230.906C1201.7 231.435 1202.77 231.699 1203.99 231.699C1204.78 231.699 1205.5 231.588 1206.14 231.366C1206.79 231.136 1207.34 230.795 1207.81 230.344C1208.28 229.884 1208.64 229.312 1208.9 228.631L1211.81 229.449C1211.51 230.438 1210.99 231.307 1210.27 232.057C1209.54 232.798 1208.65 233.378 1207.58 233.795C1206.52 234.205 1205.32 234.409 1203.99 234.409ZM1224.13 234.409C1222.49 234.409 1221.04 233.996 1219.79 233.169C1218.54 232.334 1217.56 231.158 1216.85 229.641C1216.14 228.115 1215.79 226.312 1215.79 224.233C1215.79 222.17 1216.14 220.381 1216.85 218.864C1217.56 217.347 1218.54 216.175 1219.8 215.348C1221.07 214.521 1222.52 214.108 1224.18 214.108C1225.45 214.108 1226.46 214.321 1227.21 214.747C1227.96 215.165 1228.53 215.642 1228.92 216.179C1229.32 216.707 1229.63 217.142 1229.85 217.483H1230.11V207.818H1233.13V234H1230.21V230.983H1229.85C1229.63 231.341 1229.32 231.793 1228.91 232.338C1228.5 232.875 1227.91 233.357 1227.16 233.783C1226.4 234.2 1225.39 234.409 1224.13 234.409ZM1224.53 231.699C1225.74 231.699 1226.77 231.384 1227.6 230.753C1228.44 230.114 1229.07 229.232 1229.51 228.107C1229.94 226.973 1230.16 225.665 1230.16 224.182C1230.16 222.716 1229.95 221.433 1229.52 220.334C1229.09 219.226 1228.46 218.365 1227.63 217.751C1226.79 217.129 1225.76 216.818 1224.53 216.818C1223.26 216.818 1222.19 217.146 1221.34 217.803C1220.49 218.45 1219.86 219.332 1219.43 220.449C1219.02 221.557 1218.81 222.801 1218.81 224.182C1218.81 225.58 1219.02 226.849 1219.45 227.991C1219.88 229.125 1220.52 230.028 1221.36 230.702C1222.22 231.366 1223.27 231.699 1224.53 231.699ZM1239.48 234V207.818H1242.5V217.483H1242.75C1242.97 217.142 1243.28 216.707 1243.67 216.179C1244.07 215.642 1244.64 215.165 1245.39 214.747C1246.14 214.321 1247.15 214.108 1248.43 214.108C1250.08 214.108 1251.54 214.521 1252.8 215.348C1254.06 216.175 1255.05 217.347 1255.75 218.864C1256.46 220.381 1256.81 222.17 1256.81 224.233C1256.81 226.312 1256.46 228.115 1255.75 229.641C1255.05 231.158 1254.07 232.334 1252.81 233.169C1251.56 233.996 1250.12 234.409 1248.48 234.409C1247.22 234.409 1246.21 234.2 1245.45 233.783C1244.69 233.357 1244.11 232.875 1243.7 232.338C1243.29 231.793 1242.97 231.341 1242.75 230.983H1242.39V234H1239.48ZM1242.44 224.182C1242.44 225.665 1242.66 226.973 1243.1 228.107C1243.53 229.232 1244.17 230.114 1245 230.753C1245.84 231.384 1246.86 231.699 1248.07 231.699C1249.33 231.699 1250.38 231.366 1251.23 230.702C1252.08 230.028 1252.72 229.125 1253.15 227.991C1253.58 226.849 1253.8 225.58 1253.8 224.182C1253.8 222.801 1253.58 221.557 1253.16 220.449C1252.74 219.332 1252.11 218.45 1251.25 217.803C1250.41 217.146 1249.35 216.818 1248.07 216.818C1246.84 216.818 1245.81 217.129 1244.98 217.751C1244.14 218.365 1243.51 219.226 1243.08 220.334C1242.66 221.433 1242.44 222.716 1242.44 224.182ZM1267.21 234.46C1265.96 234.46 1264.83 234.226 1263.82 233.757C1262.81 233.28 1262 232.594 1261.4 231.699C1260.81 230.795 1260.51 229.705 1260.51 228.426C1260.51 227.301 1260.73 226.389 1261.17 225.69C1261.62 224.983 1262.21 224.429 1262.95 224.028C1263.69 223.628 1264.51 223.33 1265.41 223.134C1266.31 222.929 1267.22 222.767 1268.13 222.648C1269.32 222.494 1270.29 222.379 1271.03 222.303C1271.78 222.217 1272.33 222.077 1272.67 221.881C1273.02 221.685 1273.19 221.344 1273.19 220.858V220.756C1273.19 219.494 1272.85 218.514 1272.16 217.815C1271.47 217.116 1270.44 216.767 1269.05 216.767C1267.61 216.767 1266.48 217.082 1265.66 217.713C1264.84 218.344 1264.27 219.017 1263.94 219.733L1261.07 218.71C1261.58 217.517 1262.26 216.588 1263.12 215.923C1263.98 215.25 1264.92 214.781 1265.93 214.517C1266.95 214.244 1267.96 214.108 1268.95 214.108C1269.58 214.108 1270.3 214.185 1271.12 214.338C1271.95 214.483 1272.74 214.786 1273.51 215.246C1274.29 215.706 1274.93 216.401 1275.44 217.33C1275.95 218.259 1276.21 219.503 1276.21 221.062V234H1273.19V231.341H1273.04C1272.83 231.767 1272.49 232.223 1272.01 232.709C1271.54 233.195 1270.9 233.608 1270.11 233.949C1269.32 234.29 1268.35 234.46 1267.21 234.46ZM1267.67 231.75C1268.86 231.75 1269.87 231.516 1270.69 231.047C1271.51 230.578 1272.13 229.973 1272.55 229.232C1272.98 228.49 1273.19 227.71 1273.19 226.892V224.131C1273.06 224.284 1272.78 224.425 1272.35 224.553C1271.92 224.672 1271.43 224.778 1270.86 224.872C1270.31 224.957 1269.77 225.034 1269.24 225.102C1268.72 225.162 1268.3 225.213 1267.97 225.256C1267.19 225.358 1266.46 225.524 1265.78 225.754C1265.1 225.976 1264.56 226.312 1264.14 226.764C1263.73 227.207 1263.53 227.812 1263.53 228.58C1263.53 229.628 1263.91 230.42 1264.69 230.957C1265.47 231.486 1266.47 231.75 1267.67 231.75ZM1289.69 234.409C1287.85 234.409 1286.27 233.974 1284.94 233.105C1283.61 232.236 1282.58 231.038 1281.87 229.513C1281.15 227.987 1280.79 226.244 1280.79 224.284C1280.79 222.29 1281.16 220.53 1281.89 219.004C1282.63 217.47 1283.67 216.273 1284.99 215.412C1286.32 214.543 1287.87 214.108 1289.64 214.108C1291.02 214.108 1292.27 214.364 1293.37 214.875C1294.48 215.386 1295.39 216.102 1296.1 217.023C1296.8 217.943 1297.24 219.017 1297.41 220.244H1294.4C1294.17 219.349 1293.65 218.557 1292.86 217.866C1292.08 217.168 1291.02 216.818 1289.69 216.818C1288.52 216.818 1287.48 217.125 1286.6 217.739C1285.72 218.344 1285.03 219.2 1284.54 220.308C1284.05 221.408 1283.81 222.699 1283.81 224.182C1283.81 225.699 1284.05 227.02 1284.53 228.145C1285.01 229.27 1285.69 230.143 1286.57 230.766C1287.46 231.388 1288.5 231.699 1289.69 231.699C1290.48 231.699 1291.19 231.562 1291.83 231.29C1292.47 231.017 1293.01 230.625 1293.45 230.114C1293.89 229.602 1294.21 228.989 1294.4 228.273H1297.41C1297.24 229.432 1296.82 230.476 1296.15 231.405C1295.48 232.325 1294.6 233.058 1293.5 233.604C1292.41 234.141 1291.14 234.409 1289.69 234.409ZM1304.64 226.841L1304.59 223.108H1305.2L1313.79 214.364H1317.52L1308.37 223.619H1308.11L1304.64 226.841ZM1301.82 234V207.818H1304.84V234H1301.82ZM1314.3 234L1306.63 224.284L1308.78 222.188L1318.14 234H1314.3Z" fill="black"/>
<path d="M1228.15 300.818V327H1224.98V304.142H1224.83L1218.43 308.386V305.165L1224.98 300.818H1228.15ZM1235.68 327V324.699L1244.32 315.239C1245.34 314.131 1246.17 313.168 1246.83 312.349C1247.48 311.523 1247.97 310.747 1248.28 310.023C1248.61 309.29 1248.77 308.523 1248.77 307.722C1248.77 306.801 1248.55 306.004 1248.11 305.331C1247.67 304.658 1247.07 304.138 1246.32 303.771C1245.56 303.405 1244.7 303.222 1243.76 303.222C1242.75 303.222 1241.88 303.43 1241.12 303.848C1240.38 304.257 1239.81 304.832 1239.4 305.574C1239 306.315 1238.8 307.185 1238.8 308.182H1235.78C1235.78 306.648 1236.13 305.301 1236.84 304.142C1237.55 302.983 1238.51 302.08 1239.73 301.432C1240.96 300.784 1242.34 300.46 1243.86 300.46C1245.39 300.46 1246.75 300.784 1247.94 301.432C1249.12 302.08 1250.05 302.953 1250.73 304.053C1251.4 305.152 1251.74 306.375 1251.74 307.722C1251.74 308.685 1251.56 309.626 1251.21 310.547C1250.87 311.459 1250.27 312.477 1249.42 313.602C1248.58 314.719 1247.41 316.082 1245.91 317.693L1240.03 323.983V324.188H1252.2V327H1235.68Z" fill="black"/>
<path d="M476.227 89V54.0909H480.455V69.6364H499.068V54.0909H503.295V89H499.068V73.3864H480.455V89H476.227ZM521.849 89.5455C519.486 89.5455 517.412 88.983 515.628 87.858C513.855 86.733 512.469 85.1591 511.469 83.1364C510.48 81.1136 509.986 78.75 509.986 76.0455C509.986 73.3182 510.48 70.9375 511.469 68.9034C512.469 66.8693 513.855 65.2898 515.628 64.1648C517.412 63.0398 519.486 62.4773 521.849 62.4773C524.213 62.4773 526.281 63.0398 528.054 64.1648C529.838 65.2898 531.224 66.8693 532.213 68.9034C533.213 70.9375 533.713 73.3182 533.713 76.0455C533.713 78.75 533.213 81.1136 532.213 83.1364C531.224 85.1591 529.838 86.733 528.054 87.858C526.281 88.983 524.213 89.5455 521.849 89.5455ZM521.849 85.9318C523.645 85.9318 525.122 85.4716 526.281 84.5511C527.44 83.6307 528.298 82.4205 528.855 80.9205C529.412 79.4205 529.69 77.7955 529.69 76.0455C529.69 74.2955 529.412 72.6648 528.855 71.1534C528.298 69.642 527.44 68.4205 526.281 67.4886C525.122 66.5568 523.645 66.0909 521.849 66.0909C520.054 66.0909 518.577 66.5568 517.418 67.4886C516.259 68.4205 515.401 69.642 514.844 71.1534C514.287 72.6648 514.009 74.2955 514.009 76.0455C514.009 77.7955 514.287 79.4205 514.844 80.9205C515.401 82.4205 516.259 83.6307 517.418 84.5511C518.577 85.4716 520.054 85.9318 521.849 85.9318ZM539.854 89V62.8182H543.74V66.9091H544.081C544.626 65.5114 545.507 64.4261 546.723 63.6534C547.939 62.8693 549.399 62.4773 551.104 62.4773C552.831 62.4773 554.268 62.8693 555.416 63.6534C556.575 64.4261 557.479 65.5114 558.126 66.9091H558.399C559.07 65.5568 560.075 64.483 561.416 63.6875C562.757 62.8807 564.365 62.4773 566.24 62.4773C568.581 62.4773 570.496 63.2102 571.984 64.6761C573.473 66.1307 574.217 68.3977 574.217 71.4773V89H570.195V71.4773C570.195 69.5455 569.666 68.1648 568.609 67.3352C567.553 66.5057 566.308 66.0909 564.876 66.0909C563.036 66.0909 561.609 66.6477 560.598 67.7614C559.587 68.8636 559.081 70.2614 559.081 71.9545V89H554.99V71.0682C554.99 69.5795 554.507 68.3807 553.541 67.4716C552.575 66.5511 551.331 66.0909 549.808 66.0909C548.763 66.0909 547.786 66.3693 546.876 66.9261C545.979 67.483 545.251 68.2557 544.695 69.2443C544.149 70.2216 543.876 71.3523 543.876 72.6364V89H539.854ZM592.55 89.5455C590.027 89.5455 587.851 88.9886 586.021 87.875C584.203 86.75 582.8 85.1818 581.811 83.1705C580.834 81.1477 580.345 78.7955 580.345 76.1136C580.345 73.4318 580.834 71.0682 581.811 69.0227C582.8 66.9659 584.175 65.3636 585.936 64.2159C587.709 63.0568 589.777 62.4773 592.141 62.4773C593.504 62.4773 594.851 62.7045 596.18 63.1591C597.51 63.6136 598.72 64.3523 599.811 65.375C600.902 66.3864 601.771 67.7273 602.419 69.3977C603.067 71.0682 603.391 73.125 603.391 75.5682V77.2727H583.209V73.7955H599.3C599.3 72.3182 599.004 71 598.413 69.8409C597.834 68.6818 597.004 67.767 595.925 67.0966C594.857 66.4261 593.595 66.0909 592.141 66.0909C590.538 66.0909 589.152 66.4886 587.982 67.2841C586.822 68.0682 585.93 69.0909 585.305 70.3523C584.68 71.6136 584.368 72.9659 584.368 74.4091V76.7273C584.368 78.7045 584.709 80.3807 585.391 81.7557C586.084 83.1193 587.044 84.1591 588.271 84.875C589.499 85.5795 590.925 85.9318 592.55 85.9318C593.607 85.9318 594.561 85.7841 595.413 85.4886C596.277 85.1818 597.021 84.7273 597.646 84.125C598.271 83.5114 598.754 82.75 599.095 81.8409L602.982 82.9318C602.572 84.25 601.885 85.4091 600.919 86.4091C599.953 87.3977 598.76 88.1705 597.339 88.7273C595.919 89.2727 594.322 89.5455 592.55 89.5455Z" fill="black"/>
<rect width="400" height="1024" fill="#B81010"/>
<rect x="50" y="30" width="300" height="85" fill="#B81010"/>
<rect x="77" y="48" width="50" height="50" fill="#B81010"/>
<rect width="50" height="50" transform="translate(77 48)" fill="#B81010"/>
<rect x="77" y="48" width="50" height="50" fill="#B81010"/>
<path d="M119.034 78.4788L110.189 74.5588L106.449 72.901C108.082 71.9449 109.409 70.4692 110.277 68.6912C110.966 67.2796 111.376 65.6822 111.376 63.9735C111.376 63.0147 111.213 62.1042 110.984 61.2258C109.872 56.9693 106.294 53.8333 101.999 53.8333C97.7852 53.8333 94.2609 56.8575 93.08 60.9938C92.8077 61.9426 92.6197 62.9292 92.6197 63.9746C92.6197 65.7898 93.076 67.4822 93.8515 68.9542C94.7478 70.6618 96.0767 72.0698 97.6943 72.975L94.1124 74.5247L84.9809 78.4762C84.1879 78.8215 83.6666 79.6528 83.6666 80.5811V88.4853V89.9038C83.6666 91.1532 84.6036 92.1666 85.7609 92.1666H118.239C119.396 92.1666 120.333 91.1538 120.333 89.9038V88.4853V80.5806C120.332 79.6554 119.819 78.832 119.034 78.4788Z" fill="white"/>
<path d="M159.114 81V63.5455H165.011C166.381 63.5455 167.5 63.7926 168.369 64.2869C169.244 64.7756 169.892 65.4375 170.312 66.2727C170.733 67.108 170.943 68.0398 170.943 69.0682C170.943 70.0966 170.733 71.0312 170.312 71.8722C169.898 72.7131 169.256 73.3835 168.386 73.8835C167.517 74.3778 166.403 74.625 165.045 74.625H160.818V72.75H164.977C165.915 72.75 166.668 72.5881 167.236 72.2642C167.804 71.9403 168.216 71.5028 168.472 70.9517C168.733 70.3949 168.864 69.767 168.864 69.0682C168.864 68.3693 168.733 67.7443 168.472 67.1932C168.216 66.642 167.801 66.2102 167.227 65.8977C166.653 65.5795 165.892 65.4205 164.943 65.4205H161.227V81H159.114ZM174.075 81V67.9091H176.018V69.8864H176.155C176.393 69.2386 176.825 68.7131 177.45 68.3097C178.075 67.9062 178.78 67.7045 179.564 67.7045C179.712 67.7045 179.896 67.7074 180.118 67.7131C180.339 67.7187 180.507 67.7273 180.621 67.7386V69.7841C180.553 69.767 180.396 69.7415 180.152 69.7074C179.913 69.6676 179.661 69.6477 179.393 69.6477C178.757 69.6477 178.189 69.7812 177.689 70.0483C177.195 70.3097 176.803 70.6733 176.513 71.1392C176.229 71.5994 176.087 72.125 176.087 72.7159V81H174.075ZM187.925 81.2727C186.743 81.2727 185.706 80.9915 184.814 80.429C183.928 79.8665 183.234 79.0795 182.734 78.0682C182.24 77.0568 181.993 75.875 181.993 74.5227C181.993 73.1591 182.24 71.9687 182.734 70.9517C183.234 69.9347 183.928 69.1449 184.814 68.5824C185.706 68.0199 186.743 67.7386 187.925 67.7386C189.107 67.7386 190.141 68.0199 191.027 68.5824C191.919 69.1449 192.612 69.9347 193.107 70.9517C193.607 71.9687 193.857 73.1591 193.857 74.5227C193.857 75.875 193.607 77.0568 193.107 78.0682C192.612 79.0795 191.919 79.8665 191.027 80.429C190.141 80.9915 189.107 81.2727 187.925 81.2727ZM187.925 79.4659C188.822 79.4659 189.561 79.2358 190.141 78.7756C190.72 78.3153 191.149 77.7102 191.428 76.9602C191.706 76.2102 191.845 75.3977 191.845 74.5227C191.845 73.6477 191.706 72.8324 191.428 72.0767C191.149 71.321 190.72 70.7102 190.141 70.2443C189.561 69.7784 188.822 69.5455 187.925 69.5455C187.027 69.5455 186.288 69.7784 185.709 70.2443C185.129 70.7102 184.7 71.321 184.422 72.0767C184.143 72.8324 184.004 73.6477 184.004 74.5227C184.004 75.3977 184.143 76.2102 184.422 76.9602C184.7 77.7102 185.129 78.3153 185.709 78.7756C186.288 79.2358 187.027 79.4659 187.925 79.4659ZM202.756 67.9091V69.6136H195.7V67.9091H202.756ZM197.813 81V66.1023C197.813 65.3523 197.989 64.7273 198.342 64.2273C198.694 63.7273 199.151 63.3523 199.714 63.1023C200.276 62.8523 200.87 62.7273 201.495 62.7273C201.989 62.7273 202.393 62.767 202.705 62.8466C203.018 62.9261 203.251 63 203.404 63.0682L202.825 64.8068C202.722 64.7727 202.58 64.7301 202.398 64.679C202.222 64.6278 201.989 64.6023 201.7 64.6023C201.035 64.6023 200.555 64.7699 200.259 65.1051C199.969 65.4403 199.825 65.9318 199.825 66.5795V81H197.813ZM205.575 81V67.9091H207.587V81H205.575ZM206.598 65.7273C206.206 65.7273 205.868 65.5938 205.584 65.3267C205.305 65.0597 205.166 64.7386 205.166 64.3636C205.166 63.9886 205.305 63.6676 205.584 63.4006C205.868 63.1335 206.206 63 206.598 63C206.99 63 207.325 63.1335 207.604 63.4006C207.888 63.6676 208.03 63.9886 208.03 64.3636C208.03 64.7386 207.888 65.0597 207.604 65.3267C207.325 65.5938 206.99 65.7273 206.598 65.7273ZM213.282 63.5455V81H211.271V63.5455H213.282ZM222.455 81.2727C221.193 81.2727 220.105 80.9943 219.19 80.4375C218.281 79.875 217.58 79.0909 217.085 78.0852C216.597 77.0739 216.352 75.8977 216.352 74.5568C216.352 73.2159 216.597 72.0341 217.085 71.0114C217.58 69.983 218.267 69.1818 219.148 68.608C220.034 68.0284 221.068 67.7386 222.25 67.7386C222.932 67.7386 223.605 67.8523 224.27 68.0795C224.935 68.3068 225.54 68.6761 226.085 69.1875C226.631 69.6932 227.065 70.3636 227.389 71.1989C227.713 72.0341 227.875 73.0625 227.875 74.2841V75.1364H217.784V73.3977H225.83C225.83 72.6591 225.682 72 225.386 71.4205C225.097 70.8409 224.682 70.3835 224.142 70.0483C223.608 69.7131 222.977 69.5455 222.25 69.5455C221.449 69.5455 220.756 69.7443 220.17 70.142C219.591 70.5341 219.145 71.0455 218.832 71.6761C218.52 72.3068 218.364 72.983 218.364 73.7045V74.8636C218.364 75.8523 218.534 76.6903 218.875 77.3778C219.222 78.0597 219.702 78.5795 220.315 78.9375C220.929 79.2898 221.642 79.4659 222.455 79.4659C222.983 79.4659 223.46 79.392 223.886 79.2443C224.318 79.0909 224.69 78.8636 225.003 78.5625C225.315 78.2557 225.557 77.875 225.727 77.4205L227.67 77.9659C227.466 78.625 227.122 79.2045 226.639 79.7045C226.156 80.1989 225.56 80.5852 224.849 80.8636C224.139 81.1364 223.341 81.2727 222.455 81.2727Z" fill="white"/>
<rect x="50" y="115" width="300" height="85" fill="#B81010"/>
<rect x="77" y="133" width="50" height="50" fill="#B81010"/>
<rect x="77" y="133" width="50" height="50" fill="#B81010"/>
<path d="M119.816 151.845L102.539 139.099C102.052 138.74 101.371 138.745 100.89 139.111L84.1659 151.857C83.8511 152.097 83.6666 152.463 83.6666 152.848V175.898C83.6666 176.599 84.2627 177.167 84.9986 177.167H94.9404C95.6753 177.167 96.2724 176.599 96.2724 175.898V161.785H107.726V175.898C107.726 176.599 108.323 177.167 109.058 177.167H119.001C119.736 177.167 120.333 176.599 120.333 175.898V152.848C120.334 152.456 120.142 152.085 119.816 151.845Z" fill="white"/>
<path d="M159.114 166V148.545H161.227V156.318H170.534V148.545H172.648V166H170.534V158.193H161.227V166H159.114ZM181.925 166.273C180.743 166.273 179.706 165.991 178.814 165.429C177.928 164.866 177.234 164.08 176.734 163.068C176.24 162.057 175.993 160.875 175.993 159.523C175.993 158.159 176.24 156.969 176.734 155.952C177.234 154.935 177.928 154.145 178.814 153.582C179.706 153.02 180.743 152.739 181.925 152.739C183.107 152.739 184.141 153.02 185.027 153.582C185.919 154.145 186.612 154.935 187.107 155.952C187.607 156.969 187.857 158.159 187.857 159.523C187.857 160.875 187.607 162.057 187.107 163.068C186.612 164.08 185.919 164.866 185.027 165.429C184.141 165.991 183.107 166.273 181.925 166.273ZM181.925 164.466C182.822 164.466 183.561 164.236 184.141 163.776C184.72 163.315 185.149 162.71 185.428 161.96C185.706 161.21 185.845 160.398 185.845 159.523C185.845 158.648 185.706 157.832 185.428 157.077C185.149 156.321 184.72 155.71 184.141 155.244C183.561 154.778 182.822 154.545 181.925 154.545C181.027 154.545 180.288 154.778 179.709 155.244C179.129 155.71 178.7 156.321 178.422 157.077C178.143 157.832 178.004 158.648 178.004 159.523C178.004 160.398 178.143 161.21 178.422 161.96C178.7 162.71 179.129 163.315 179.709 163.776C180.288 164.236 181.027 164.466 181.925 164.466ZM190.927 166V152.909H192.87V154.955H193.04C193.313 154.256 193.754 153.713 194.362 153.327C194.969 152.935 195.7 152.739 196.552 152.739C197.415 152.739 198.134 152.935 198.708 153.327C199.288 153.713 199.739 154.256 200.063 154.955H200.2C200.535 154.278 201.038 153.741 201.708 153.344C202.379 152.94 203.183 152.739 204.12 152.739C205.29 152.739 206.248 153.105 206.992 153.838C207.737 154.565 208.109 155.699 208.109 157.239V166H206.097V157.239C206.097 156.273 205.833 155.582 205.305 155.168C204.776 154.753 204.154 154.545 203.438 154.545C202.518 154.545 201.805 154.824 201.299 155.381C200.793 155.932 200.54 156.631 200.54 157.477V166H198.495V157.034C198.495 156.29 198.254 155.69 197.771 155.236C197.288 154.776 196.665 154.545 195.904 154.545C195.381 154.545 194.893 154.685 194.438 154.963C193.989 155.241 193.626 155.628 193.347 156.122C193.075 156.611 192.938 157.176 192.938 157.818V166H190.927ZM217.275 166.273C216.013 166.273 214.925 165.994 214.011 165.438C213.102 164.875 212.4 164.091 211.906 163.085C211.417 162.074 211.173 160.898 211.173 159.557C211.173 158.216 211.417 157.034 211.906 156.011C212.4 154.983 213.087 154.182 213.968 153.608C214.854 153.028 215.888 152.739 217.07 152.739C217.752 152.739 218.425 152.852 219.09 153.08C219.755 153.307 220.36 153.676 220.906 154.188C221.451 154.693 221.886 155.364 222.21 156.199C222.533 157.034 222.695 158.062 222.695 159.284V160.136H212.604V158.398H220.65C220.65 157.659 220.502 157 220.207 156.42C219.917 155.841 219.502 155.384 218.962 155.048C218.428 154.713 217.798 154.545 217.07 154.545C216.269 154.545 215.576 154.744 214.991 155.142C214.411 155.534 213.965 156.045 213.653 156.676C213.34 157.307 213.184 157.983 213.184 158.705V159.864C213.184 160.852 213.354 161.69 213.695 162.378C214.042 163.06 214.522 163.58 215.136 163.938C215.749 164.29 216.462 164.466 217.275 164.466C217.803 164.466 218.281 164.392 218.707 164.244C219.138 164.091 219.511 163.864 219.823 163.562C220.136 163.256 220.377 162.875 220.548 162.42L222.491 162.966C222.286 163.625 221.942 164.205 221.46 164.705C220.977 165.199 220.38 165.585 219.67 165.864C218.96 166.136 218.161 166.273 217.275 166.273Z" fill="white"/>
<rect x="50" y="200" width="300" height="85" fill="#B81010"/>
<rect x="77" y="218" width="50" height="50" fill="#B81010"/>
<rect x="77" y="218" width="50" height="50" fill="#B81010"/>
<path d="M119.6 237.635H84.4001C83.9948 237.635 83.6666 238.037 83.6666 238.535V247.538C83.6666 248.035 83.9948 248.438 84.4001 248.438H119.6C120.005 248.438 120.333 248.035 120.333 247.538V238.534C120.333 238.037 120.005 237.635 119.6 237.635Z" fill="white"/>
<path d="M105.035 223.865V223.833H84.4001C83.9948 223.833 83.6666 224.236 83.6666 224.734V233.736C83.6666 234.234 83.9948 234.637 84.4001 234.637H105.035V234.605C105.351 234.505 105.585 234.156 105.585 233.737V224.733C105.585 224.314 105.351 223.965 105.035 223.865Z" fill="white"/>
<path d="M109.7 251.363H84.4001C83.9948 251.363 83.6666 251.766 83.6666 252.263V261.266C83.6666 261.764 83.9948 262.167 84.4001 262.167H109.7C110.105 262.167 110.433 261.764 110.433 261.266V252.263C110.433 251.766 110.105 251.363 109.7 251.363Z" fill="white"/>
<path d="M159.114 251V233.545H169.58V235.42H161.227V241.318H168.795V243.193H161.227V251H159.114ZM177.455 251.273C176.193 251.273 175.105 250.994 174.19 250.438C173.281 249.875 172.58 249.091 172.085 248.085C171.597 247.074 171.352 245.898 171.352 244.557C171.352 243.216 171.597 242.034 172.085 241.011C172.58 239.983 173.267 239.182 174.148 238.608C175.034 238.028 176.068 237.739 177.25 237.739C177.932 237.739 178.605 237.852 179.27 238.08C179.935 238.307 180.54 238.676 181.085 239.188C181.631 239.693 182.065 240.364 182.389 241.199C182.713 242.034 182.875 243.062 182.875 244.284V245.136H172.784V243.398H180.83C180.83 242.659 180.682 242 180.386 241.42C180.097 240.841 179.682 240.384 179.142 240.048C178.608 239.713 177.977 239.545 177.25 239.545C176.449 239.545 175.756 239.744 175.17 240.142C174.591 240.534 174.145 241.045 173.832 241.676C173.52 242.307 173.364 242.983 173.364 243.705V244.864C173.364 245.852 173.534 246.69 173.875 247.378C174.222 248.06 174.702 248.58 175.315 248.938C175.929 249.29 176.642 249.466 177.455 249.466C177.983 249.466 178.46 249.392 178.886 249.244C179.318 249.091 179.69 248.864 180.003 248.562C180.315 248.256 180.557 247.875 180.727 247.42L182.67 247.966C182.466 248.625 182.122 249.205 181.639 249.705C181.156 250.199 180.56 250.585 179.849 250.864C179.139 251.136 178.341 251.273 177.455 251.273ZM191.423 251.273C190.162 251.273 189.074 250.994 188.159 250.438C187.25 249.875 186.548 249.091 186.054 248.085C185.565 247.074 185.321 245.898 185.321 244.557C185.321 243.216 185.565 242.034 186.054 241.011C186.548 239.983 187.236 239.182 188.116 238.608C189.003 238.028 190.037 237.739 191.219 237.739C191.901 237.739 192.574 237.852 193.239 238.08C193.903 238.307 194.509 238.676 195.054 239.188C195.599 239.693 196.034 240.364 196.358 241.199C196.682 242.034 196.844 243.062 196.844 244.284V245.136H186.753V243.398H194.798C194.798 242.659 194.651 242 194.355 241.42C194.065 240.841 193.651 240.384 193.111 240.048C192.577 239.713 191.946 239.545 191.219 239.545C190.418 239.545 189.724 239.744 189.139 240.142C188.56 240.534 188.114 241.045 187.801 241.676C187.489 242.307 187.332 242.983 187.332 243.705V244.864C187.332 245.852 187.503 246.69 187.844 247.378C188.19 248.06 188.67 248.58 189.284 248.938C189.898 249.29 190.611 249.466 191.423 249.466C191.952 249.466 192.429 249.392 192.855 249.244C193.287 249.091 193.659 248.864 193.972 248.562C194.284 248.256 194.526 247.875 194.696 247.42L196.639 247.966C196.435 248.625 196.091 249.205 195.608 249.705C195.125 250.199 194.528 250.585 193.818 250.864C193.108 251.136 192.31 251.273 191.423 251.273ZM204.847 251.273C203.756 251.273 202.793 250.997 201.957 250.446C201.122 249.889 200.469 249.105 199.997 248.094C199.526 247.077 199.29 245.875 199.29 244.489C199.29 243.114 199.526 241.92 199.997 240.909C200.469 239.898 201.125 239.116 201.966 238.565C202.807 238.014 203.778 237.739 204.881 237.739C205.733 237.739 206.406 237.881 206.901 238.165C207.401 238.443 207.781 238.761 208.043 239.119C208.31 239.472 208.517 239.761 208.665 239.989H208.835V233.545H210.847V251H208.903V248.989H208.665C208.517 249.227 208.307 249.528 208.034 249.892C207.761 250.25 207.372 250.571 206.866 250.855C206.361 251.134 205.688 251.273 204.847 251.273ZM205.119 249.466C205.926 249.466 206.608 249.256 207.165 248.835C207.722 248.409 208.145 247.821 208.435 247.071C208.724 246.315 208.869 245.443 208.869 244.455C208.869 243.477 208.727 242.622 208.443 241.889C208.159 241.151 207.739 240.577 207.182 240.168C206.625 239.753 205.938 239.545 205.119 239.545C204.267 239.545 203.557 239.764 202.989 240.202C202.426 240.634 202.003 241.222 201.719 241.966C201.44 242.705 201.301 243.534 201.301 244.455C201.301 245.386 201.443 246.233 201.727 246.994C202.017 247.75 202.443 248.352 203.006 248.801C203.574 249.244 204.278 249.466 205.119 249.466ZM215.082 251V233.545H217.094V239.989H217.264C217.412 239.761 217.616 239.472 217.878 239.119C218.145 238.761 218.526 238.443 219.02 238.165C219.52 237.881 220.196 237.739 221.048 237.739C222.151 237.739 223.122 238.014 223.963 238.565C224.804 239.116 225.46 239.898 225.932 240.909C226.403 241.92 226.639 243.114 226.639 244.489C226.639 245.875 226.403 247.077 225.932 248.094C225.46 249.105 224.807 249.889 223.972 250.446C223.136 250.997 222.173 251.273 221.082 251.273C220.241 251.273 219.568 251.134 219.062 250.855C218.557 250.571 218.168 250.25 217.895 249.892C217.622 249.528 217.412 249.227 217.264 248.989H217.026V251H215.082ZM217.06 244.455C217.06 245.443 217.205 246.315 217.494 247.071C217.784 247.821 218.207 248.409 218.764 248.835C219.321 249.256 220.003 249.466 220.81 249.466C221.651 249.466 222.352 249.244 222.915 248.801C223.483 248.352 223.909 247.75 224.193 246.994C224.483 246.233 224.628 245.386 224.628 244.455C224.628 243.534 224.486 242.705 224.202 241.966C223.923 241.222 223.5 240.634 222.932 240.202C222.369 239.764 221.662 239.545 220.81 239.545C219.991 239.545 219.304 239.753 218.747 240.168C218.19 240.577 217.77 241.151 217.486 241.889C217.202 242.622 217.06 243.477 217.06 244.455ZM233.568 251.307C232.739 251.307 231.986 251.151 231.31 250.838C230.634 250.52 230.097 250.062 229.699 249.466C229.301 248.864 229.102 248.136 229.102 247.284C229.102 246.534 229.25 245.926 229.545 245.46C229.841 244.989 230.236 244.619 230.73 244.352C231.224 244.085 231.77 243.886 232.366 243.756C232.969 243.619 233.574 243.511 234.182 243.432C234.977 243.33 235.622 243.253 236.116 243.202C236.616 243.145 236.98 243.051 237.207 242.92C237.44 242.79 237.557 242.562 237.557 242.239V242.17C237.557 241.33 237.327 240.676 236.866 240.21C236.412 239.744 235.722 239.511 234.795 239.511C233.835 239.511 233.082 239.722 232.537 240.142C231.991 240.562 231.608 241.011 231.386 241.489L229.477 240.807C229.818 240.011 230.273 239.392 230.841 238.949C231.415 238.5 232.04 238.187 232.716 238.011C233.398 237.83 234.068 237.739 234.727 237.739C235.148 237.739 235.631 237.79 236.176 237.892C236.727 237.989 237.259 238.19 237.77 238.497C238.287 238.804 238.716 239.267 239.057 239.886C239.398 240.506 239.568 241.335 239.568 242.375V251H237.557V249.227H237.455C237.318 249.511 237.091 249.815 236.773 250.139C236.455 250.463 236.031 250.739 235.503 250.966C234.974 251.193 234.33 251.307 233.568 251.307ZM233.875 249.5C234.67 249.5 235.341 249.344 235.886 249.031C236.438 248.719 236.852 248.315 237.131 247.821C237.415 247.327 237.557 246.807 237.557 246.261V244.42C237.472 244.523 237.284 244.616 236.994 244.702C236.71 244.781 236.381 244.852 236.006 244.915C235.636 244.972 235.276 245.023 234.923 245.068C234.577 245.108 234.295 245.142 234.08 245.17C233.557 245.239 233.068 245.349 232.614 245.503C232.165 245.651 231.801 245.875 231.523 246.176C231.25 246.472 231.114 246.875 231.114 247.386C231.114 248.085 231.372 248.614 231.889 248.972C232.412 249.324 233.074 249.5 233.875 249.5ZM248.558 251.273C247.33 251.273 246.273 250.983 245.387 250.403C244.501 249.824 243.819 249.026 243.342 248.009C242.864 246.991 242.626 245.83 242.626 244.523C242.626 243.193 242.87 242.02 243.359 241.003C243.853 239.98 244.54 239.182 245.421 238.608C246.308 238.028 247.342 237.739 248.523 237.739C249.444 237.739 250.273 237.909 251.012 238.25C251.751 238.591 252.356 239.068 252.827 239.682C253.299 240.295 253.592 241.011 253.705 241.83H251.694C251.54 241.233 251.2 240.705 250.671 240.244C250.148 239.778 249.444 239.545 248.558 239.545C247.773 239.545 247.086 239.75 246.495 240.159C245.91 240.562 245.452 241.134 245.123 241.872C244.799 242.605 244.637 243.466 244.637 244.455C244.637 245.466 244.796 246.347 245.114 247.097C245.438 247.847 245.893 248.429 246.478 248.844C247.069 249.259 247.762 249.466 248.558 249.466C249.08 249.466 249.555 249.375 249.981 249.193C250.407 249.011 250.768 248.75 251.063 248.409C251.359 248.068 251.569 247.659 251.694 247.182H253.705C253.592 247.955 253.31 248.651 252.862 249.27C252.418 249.884 251.83 250.372 251.097 250.736C250.37 251.094 249.523 251.273 248.558 251.273ZM258.521 246.227L258.487 243.739H258.896L264.623 237.909H267.112L261.009 244.08H260.839L258.521 246.227ZM256.646 251V233.545H258.657V251H256.646ZM264.964 251L259.85 244.523L261.282 243.125L267.521 251H264.964Z" fill="white"/>
<rect x="50" y="285" width="300" height="85" fill="#B81010"/>
<rect x="77" y="303" width="50" height="50" fill="#D9D9D9"/>
<rect x="77" y="303" width="50" height="50" fill="#B81010"/>
<path d="M99.1968 330.826L100.908 329.784L98.689 327.818L99.1968 330.826Z" fill="white"/>
<path d="M120.333 327.98C120.333 327.537 120.126 327.147 119.812 326.902L119.818 326.89L115.385 324.194L117.937 319.537L117.928 319.532C118.084 319.155 118.078 318.709 117.868 318.326C117.657 317.942 117.294 317.713 116.905 317.667V317.654H111.785V312.276H111.775C111.731 311.867 111.514 311.485 111.15 311.263C110.785 311.041 110.362 311.035 110.003 311.201L109.997 311.189L105.489 313.931L102.993 309.376L102.983 309.381C102.751 309.051 102.382 308.833 101.962 308.833C101.541 308.833 101.17 309.051 100.939 309.383L100.928 309.376L98.3899 314.006L94.0202 311.348L94.015 311.358C93.6569 311.194 93.2338 311.2 92.87 311.422C92.5053 311.643 92.2885 312.027 92.2448 312.436H92.2319V317.783H87.1861V317.793C86.7981 317.839 86.4349 318.068 86.2247 318.451C86.0145 318.835 86.0084 319.281 86.1648 319.659L86.1539 319.666L88.6482 324.217L84.1816 326.934L84.1868 326.944C83.873 327.188 83.6666 327.578 83.6666 328.02C83.6666 328.464 83.8735 328.854 84.1882 329.098L84.1816 329.11L88.6149 331.806L86.063 336.463L86.0716 336.468C85.9156 336.845 85.9218 337.291 86.132 337.674C86.3426 338.058 86.7064 338.287 87.0948 338.332V338.346H92.2143V343.724H92.2248C92.2685 344.133 92.4858 344.515 92.8496 344.737C93.2143 344.959 93.6384 344.965 93.9964 344.799L94.0026 344.811L98.5106 342.069L101.007 346.624L101.016 346.619C101.248 346.949 101.617 347.167 102.038 347.167C102.459 347.167 102.829 346.949 103.061 346.618L103.071 346.624L105.609 341.994L109.979 344.651L109.984 344.642C110.342 344.806 110.766 344.8 111.129 344.578C111.494 344.357 111.711 343.973 111.755 343.564H111.768V338.218H116.814V338.207C117.202 338.161 117.565 337.932 117.775 337.549C117.985 337.165 117.992 336.719 117.835 336.342L117.846 336.335L115.352 331.783L119.818 329.066L119.813 329.057C120.127 328.812 120.333 328.423 120.333 327.98ZM96.0738 335.612C95.0135 336.258 94.0521 336.346 93.2347 336.114L93.3493 334.763C93.9684 334.952 94.7686 334.951 95.5246 334.491C96.1746 334.096 96.313 333.607 96.128 333.27C95.5769 332.265 92.8035 334.888 91.6114 332.713C91.0846 331.751 91.4369 330.473 92.7288 329.688C93.6004 329.158 94.4762 328.995 95.3088 329.193L95.1618 330.507C94.4805 330.345 93.7791 330.505 93.22 330.845C92.7264 331.145 92.57 331.54 92.7602 331.888C93.259 332.797 96.0719 330.267 97.254 332.423C97.8336 333.479 97.5468 334.717 96.0738 335.612ZM102.703 331.442L101.822 330.673L99.4697 332.103L99.6604 333.293L98.3361 334.098L97.283 327.033L98.747 326.143L104.028 330.637L102.703 331.442ZM104.488 330.357L101.321 324.577L102.497 323.861L105.071 328.557L107.39 327.147L107.984 328.23L104.488 330.357ZM108.773 327.75L105.606 321.971L109.488 319.61L110.081 320.693L107.367 322.344L108.032 323.557L110.688 321.941L111.282 323.024L108.626 324.639L109.347 325.957L112.061 324.306L112.655 325.389L108.773 327.75Z" fill="white"/>
<path d="M164.5 336H159.114V318.545H164.739C166.432 318.545 167.881 318.895 169.085 319.594C170.29 320.287 171.213 321.284 171.855 322.585C172.497 323.881 172.818 325.432 172.818 327.239C172.818 329.057 172.494 330.622 171.847 331.935C171.199 333.241 170.256 334.247 169.017 334.952C167.778 335.651 166.273 336 164.5 336ZM161.227 334.125H164.364C165.807 334.125 167.003 333.847 167.952 333.29C168.901 332.733 169.608 331.94 170.074 330.912C170.54 329.884 170.773 328.659 170.773 327.239C170.773 325.83 170.543 324.616 170.082 323.599C169.622 322.577 168.935 321.793 168.02 321.247C167.105 320.696 165.966 320.42 164.602 320.42H161.227V334.125ZM176.091 336V322.909H178.102V336H176.091ZM177.114 320.727C176.722 320.727 176.384 320.594 176.099 320.327C175.821 320.06 175.682 319.739 175.682 319.364C175.682 318.989 175.821 318.668 176.099 318.401C176.384 318.134 176.722 318 177.114 318C177.506 318 177.841 318.134 178.119 318.401C178.403 318.668 178.545 318.989 178.545 319.364C178.545 319.739 178.403 320.06 178.119 320.327C177.841 320.594 177.506 320.727 177.114 320.727ZM191.059 325.841L189.252 326.352C189.138 326.051 188.971 325.759 188.749 325.474C188.533 325.185 188.238 324.946 187.863 324.759C187.488 324.571 187.008 324.477 186.423 324.477C185.621 324.477 184.954 324.662 184.42 325.031C183.891 325.395 183.627 325.858 183.627 326.42C183.627 326.92 183.809 327.315 184.173 327.605C184.536 327.895 185.104 328.136 185.877 328.33L187.82 328.807C188.991 329.091 189.863 329.526 190.437 330.111C191.011 330.69 191.298 331.437 191.298 332.352C191.298 333.102 191.082 333.773 190.65 334.364C190.224 334.955 189.627 335.42 188.86 335.761C188.093 336.102 187.201 336.273 186.184 336.273C184.849 336.273 183.744 335.983 182.869 335.403C181.994 334.824 181.44 333.977 181.207 332.864L183.116 332.386C183.298 333.091 183.641 333.619 184.147 333.972C184.658 334.324 185.326 334.5 186.15 334.5C187.087 334.5 187.832 334.301 188.383 333.903C188.94 333.5 189.218 333.017 189.218 332.455C189.218 332 189.059 331.619 188.741 331.312C188.423 331 187.934 330.767 187.275 330.614L185.093 330.102C183.894 329.818 183.013 329.378 182.451 328.781C181.894 328.179 181.616 327.426 181.616 326.523C181.616 325.784 181.823 325.131 182.238 324.562C182.658 323.994 183.229 323.548 183.951 323.224C184.678 322.901 185.502 322.739 186.423 322.739C187.718 322.739 188.735 323.023 189.474 323.591C190.218 324.159 190.746 324.909 191.059 325.841ZM199.643 336.273C198.416 336.273 197.359 335.983 196.473 335.403C195.587 334.824 194.905 334.026 194.428 333.009C193.95 331.991 193.712 330.83 193.712 329.523C193.712 328.193 193.956 327.02 194.445 326.003C194.939 324.98 195.626 324.182 196.507 323.608C197.393 323.028 198.428 322.739 199.609 322.739C200.53 322.739 201.359 322.909 202.098 323.25C202.837 323.591 203.442 324.068 203.913 324.682C204.385 325.295 204.678 326.011 204.791 326.83H202.78C202.626 326.233 202.286 325.705 201.757 325.244C201.234 324.778 200.53 324.545 199.643 324.545C198.859 324.545 198.172 324.75 197.581 325.159C196.996 325.562 196.538 326.134 196.209 326.872C195.885 327.605 195.723 328.466 195.723 329.455C195.723 330.466 195.882 331.347 196.2 332.097C196.524 332.847 196.979 333.429 197.564 333.844C198.155 334.259 198.848 334.466 199.643 334.466C200.166 334.466 200.641 334.375 201.067 334.193C201.493 334.011 201.854 333.75 202.149 333.409C202.445 333.068 202.655 332.659 202.78 332.182H204.791C204.678 332.955 204.396 333.651 203.947 334.27C203.504 334.884 202.916 335.372 202.183 335.736C201.456 336.094 200.609 336.273 199.643 336.273ZM213.05 336.273C211.868 336.273 210.831 335.991 209.939 335.429C209.053 334.866 208.359 334.08 207.859 333.068C207.365 332.057 207.118 330.875 207.118 329.523C207.118 328.159 207.365 326.969 207.859 325.952C208.359 324.935 209.053 324.145 209.939 323.582C210.831 323.02 211.868 322.739 213.05 322.739C214.232 322.739 215.266 323.02 216.152 323.582C217.044 324.145 217.737 324.935 218.232 325.952C218.732 326.969 218.982 328.159 218.982 329.523C218.982 330.875 218.732 332.057 218.232 333.068C217.737 334.08 217.044 334.866 216.152 335.429C215.266 335.991 214.232 336.273 213.05 336.273ZM213.05 334.466C213.947 334.466 214.686 334.236 215.266 333.776C215.845 333.315 216.274 332.71 216.553 331.96C216.831 331.21 216.97 330.398 216.97 329.523C216.97 328.648 216.831 327.832 216.553 327.077C216.274 326.321 215.845 325.71 215.266 325.244C214.686 324.778 213.947 324.545 213.05 324.545C212.152 324.545 211.413 324.778 210.834 325.244C210.254 325.71 209.825 326.321 209.547 327.077C209.268 327.832 209.129 328.648 209.129 329.523C209.129 330.398 209.268 331.21 209.547 331.96C209.825 332.71 210.254 333.315 210.834 333.776C211.413 334.236 212.152 334.466 213.05 334.466ZM230.302 330.648V322.909H232.313V336H230.302V333.784H230.165C229.859 334.449 229.381 335.014 228.734 335.48C228.086 335.94 227.268 336.17 226.279 336.17C225.461 336.17 224.734 335.991 224.097 335.634C223.461 335.27 222.961 334.724 222.597 333.997C222.234 333.264 222.052 332.341 222.052 331.227V322.909H224.063V331.091C224.063 332.045 224.33 332.807 224.864 333.375C225.404 333.943 226.092 334.227 226.927 334.227C227.427 334.227 227.935 334.099 228.452 333.844C228.975 333.588 229.413 333.196 229.765 332.668C230.123 332.139 230.302 331.466 230.302 330.648ZM238.009 328.125V336H235.997V322.909H237.94V324.955H238.111C238.418 324.29 238.884 323.756 239.509 323.352C240.134 322.943 240.94 322.739 241.929 322.739C242.815 322.739 243.591 322.92 244.256 323.284C244.92 323.642 245.438 324.188 245.807 324.92C246.176 325.648 246.361 326.568 246.361 327.682V336H244.349V327.818C244.349 326.79 244.082 325.989 243.548 325.415C243.014 324.835 242.281 324.545 241.349 324.545C240.707 324.545 240.134 324.685 239.628 324.963C239.128 325.241 238.733 325.648 238.443 326.182C238.153 326.716 238.009 327.364 238.009 328.125ZM255.729 322.909V324.614H248.945V322.909H255.729ZM250.923 319.773H252.934V332.25C252.934 332.818 253.016 333.244 253.181 333.528C253.352 333.807 253.567 333.994 253.829 334.091C254.096 334.182 254.377 334.227 254.673 334.227C254.894 334.227 255.076 334.216 255.218 334.193C255.36 334.165 255.474 334.142 255.559 334.125L255.968 335.932C255.832 335.983 255.641 336.034 255.397 336.085C255.153 336.142 254.843 336.17 254.468 336.17C253.9 336.17 253.343 336.048 252.798 335.804C252.258 335.56 251.809 335.188 251.451 334.688C251.099 334.188 250.923 333.557 250.923 332.795V319.773Z" fill="white"/>
<rect x="50" y="909" width="300" height="85" fill="#B81010"/>
<rect x="77" y="927" width="50" height="50" fill="#B81010"/>
<rect x="77" y="927" width="50" height="50" fill="#B81010"/>
<path d="M102.415 970.849L119.831 953.319C120.146 953.002 120.332 952.49 120.333 951.945C120.333 951.941 120.333 951.941 120.333 951.941C120.332 951.392 120.144 950.881 119.827 950.563L102.411 933.146C102.044 932.779 101.562 932.731 101.162 933.023C100.763 933.309 100.511 933.892 100.511 934.527V942.724L84.8693 942.723C84.2046 942.723 83.6666 943.48 83.6666 944.416L83.6671 959.582C83.6666 960.516 84.2046 961.274 84.8703 961.274H100.511V969.474C100.511 970.106 100.764 970.687 101.164 970.979C101.564 971.27 102.048 971.22 102.415 970.849Z" fill="white"/>
<path d="M159.114 960V942.545H161.227V958.125H169.341V960H159.114ZM177.659 960.273C176.477 960.273 175.44 959.991 174.548 959.429C173.662 958.866 172.969 958.08 172.469 957.068C171.974 956.057 171.727 954.875 171.727 953.523C171.727 952.159 171.974 950.969 172.469 949.952C172.969 948.935 173.662 948.145 174.548 947.582C175.44 947.02 176.477 946.739 177.659 946.739C178.841 946.739 179.875 947.02 180.761 947.582C181.653 948.145 182.347 948.935 182.841 949.952C183.341 950.969 183.591 952.159 183.591 953.523C183.591 954.875 183.341 956.057 182.841 957.068C182.347 958.08 181.653 958.866 180.761 959.429C179.875 959.991 178.841 960.273 177.659 960.273ZM177.659 958.466C178.557 958.466 179.295 958.236 179.875 957.776C180.455 957.315 180.884 956.71 181.162 955.96C181.44 955.21 181.58 954.398 181.58 953.523C181.58 952.648 181.44 951.832 181.162 951.077C180.884 950.321 180.455 949.71 179.875 949.244C179.295 948.778 178.557 948.545 177.659 948.545C176.761 948.545 176.023 948.778 175.443 949.244C174.864 949.71 174.435 950.321 174.156 951.077C173.878 951.832 173.739 952.648 173.739 953.523C173.739 954.398 173.878 955.21 174.156 955.96C174.435 956.71 174.864 957.315 175.443 957.776C176.023 958.236 176.761 958.466 177.659 958.466ZM191.945 965.182C190.974 965.182 190.138 965.057 189.44 964.807C188.741 964.562 188.158 964.239 187.692 963.835C187.232 963.438 186.866 963.011 186.593 962.557L188.195 961.432C188.377 961.67 188.607 961.943 188.886 962.25C189.164 962.562 189.545 962.832 190.028 963.06C190.516 963.293 191.156 963.409 191.945 963.409C193.002 963.409 193.874 963.153 194.562 962.642C195.249 962.131 195.593 961.33 195.593 960.239V957.58H195.423C195.275 957.818 195.065 958.114 194.792 958.466C194.525 958.812 194.138 959.122 193.633 959.395C193.133 959.662 192.457 959.795 191.604 959.795C190.548 959.795 189.599 959.545 188.758 959.045C187.923 958.545 187.261 957.818 186.772 956.864C186.289 955.909 186.048 954.75 186.048 953.386C186.048 952.045 186.283 950.878 186.755 949.884C187.227 948.884 187.883 948.111 188.724 947.565C189.565 947.014 190.536 946.739 191.638 946.739C192.491 946.739 193.167 946.881 193.667 947.165C194.173 947.443 194.559 947.761 194.826 948.119C195.099 948.472 195.309 948.761 195.457 948.989H195.661V946.909H197.604V960.375C197.604 961.5 197.349 962.415 196.837 963.119C196.332 963.83 195.65 964.349 194.792 964.679C193.94 965.014 192.991 965.182 191.945 965.182ZM191.877 957.989C192.684 957.989 193.366 957.804 193.923 957.435C194.479 957.065 194.903 956.534 195.192 955.841C195.482 955.148 195.627 954.318 195.627 953.352C195.627 952.409 195.485 951.577 195.201 950.855C194.917 950.134 194.496 949.568 193.94 949.159C193.383 948.75 192.695 948.545 191.877 948.545C191.025 948.545 190.315 948.761 189.746 949.193C189.184 949.625 188.761 950.205 188.477 950.932C188.198 951.659 188.059 952.466 188.059 953.352C188.059 954.261 188.201 955.065 188.485 955.764C188.775 956.457 189.201 957.003 189.763 957.401C190.332 957.793 191.036 957.989 191.877 957.989ZM206.604 960.273C205.423 960.273 204.386 959.991 203.494 959.429C202.607 958.866 201.914 958.08 201.414 957.068C200.92 956.057 200.673 954.875 200.673 953.523C200.673 952.159 200.92 950.969 201.414 949.952C201.914 948.935 202.607 948.145 203.494 947.582C204.386 947.02 205.423 946.739 206.604 946.739C207.786 946.739 208.82 947.02 209.707 947.582C210.599 948.145 211.292 948.935 211.786 949.952C212.286 950.969 212.536 952.159 212.536 953.523C212.536 954.875 212.286 956.057 211.786 957.068C211.292 958.08 210.599 958.866 209.707 959.429C208.82 959.991 207.786 960.273 206.604 960.273ZM206.604 958.466C207.502 958.466 208.241 958.236 208.82 957.776C209.4 957.315 209.829 956.71 210.107 955.96C210.386 955.21 210.525 954.398 210.525 953.523C210.525 952.648 210.386 951.832 210.107 951.077C209.829 950.321 209.4 949.71 208.82 949.244C208.241 948.778 207.502 948.545 206.604 948.545C205.707 948.545 204.968 948.778 204.388 949.244C203.809 949.71 203.38 950.321 203.102 951.077C202.823 951.832 202.684 952.648 202.684 953.523C202.684 954.398 202.823 955.21 203.102 955.96C203.38 956.71 203.809 957.315 204.388 957.776C204.968 958.236 205.707 958.466 206.604 958.466ZM223.857 954.648V946.909H225.868V960H223.857V957.784H223.72C223.413 958.449 222.936 959.014 222.288 959.48C221.641 959.94 220.822 960.17 219.834 960.17C219.016 960.17 218.288 959.991 217.652 959.634C217.016 959.27 216.516 958.724 216.152 957.997C215.788 957.264 215.607 956.341 215.607 955.227V946.909H217.618V955.091C217.618 956.045 217.885 956.807 218.419 957.375C218.959 957.943 219.646 958.227 220.482 958.227C220.982 958.227 221.49 958.099 222.007 957.844C222.53 957.588 222.967 957.196 223.32 956.668C223.678 956.139 223.857 955.466 223.857 954.648ZM235.245 946.909V948.614H228.461V946.909H235.245ZM230.438 943.773H232.45V956.25C232.45 956.818 232.532 957.244 232.697 957.528C232.867 957.807 233.083 957.994 233.344 958.091C233.612 958.182 233.893 958.227 234.188 958.227C234.41 958.227 234.592 958.216 234.734 958.193C234.876 958.165 234.989 958.142 235.075 958.125L235.484 959.932C235.347 959.983 235.157 960.034 234.913 960.085C234.668 960.142 234.359 960.17 233.984 960.17C233.415 960.17 232.859 960.048 232.313 959.804C231.773 959.56 231.325 959.188 230.967 958.688C230.614 958.188 230.438 957.557 230.438 956.795V943.773Z" fill="white"/>
<defs>
<filter id="filter0_d_220_2608" x="470" y="180" width="278" height="208" filterUnits="userSpaceOnUse" color-interpolation-filters="sRGB">
<feFlood flood-opacity="0" result="BackgroundImageFix"/>
<feColorMatrix in="SourceAlpha" type="matrix" values="0 0 0 0 0 0 0 0 0 0 0 0 0 0 0 0 0 0 127 0" result="hardAlpha"/>
<feOffset dx="4" dy="4"/>
<feGaussianBlur stdDeviation="2"/>
<feComposite in2="hardAlpha" operator="out"/>
<feColorMatrix type="matrix" values="0 0 0 0 0 0 0 0 0 0 0 0 0 0 0 0 0 0 0.25 0"/>
<feBlend mode="normal" in2="BackgroundImageFix" result="effect1_dropShadow_220_2608"/>
<feBlend mode="normal" in="SourceGraphic" in2="effect1_dropShadow_220_2608" result="shape"/>
</filter>
<filter id="filter1_d_220_2608" x="785" y="180" width="278" height="208" filterUnits="userSpaceOnUse" color-interpolation-filters="sRGB">
<feFlood flood-opacity="0" result="BackgroundImageFix"/>
<feColorMatrix in="SourceAlpha" type="matrix" values="0 0 0 0 0 0 0 0 0 0 0 0 0 0 0 0 0 0 127 0" result="hardAlpha"/>
<feOffset dx="4" dy="4"/>
<feGaussianBlur stdDeviation="2"/>
<feComposite in2="hardAlpha" operator="out"/>
<feColorMatrix type="matrix" values="0 0 0 0 0 0 0 0 0 0 0 0 0 0 0 0 0 0 0.25 0"/>
<feBlend mode="normal" in2="BackgroundImageFix" result="effect1_dropShadow_220_2608"/>
<feBlend mode="normal" in="SourceGraphic" in2="effect1_dropShadow_220_2608" result="shape"/>
</filter>
<filter id="filter2_d_220_2608" x="1100" y="180" width="278" height="208" filterUnits="userSpaceOnUse" color-interpolation-filters="sRGB">
<feFlood flood-opacity="0" result="BackgroundImageFix"/>
<feColorMatrix in="SourceAlpha" type="matrix" values="0 0 0 0 0 0 0 0 0 0 0 0 0 0 0 0 0 0 127 0" result="hardAlpha"/>
<feOffset dx="4" dy="4"/>
<feGaussianBlur stdDeviation="2"/>
<feComposite in2="hardAlpha" operator="out"/>
<feColorMatrix type="matrix" values="0 0 0 0 0 0 0 0 0 0 0 0 0 0 0 0 0 0 0.25 0"/>
<feBlend mode="normal" in2="BackgroundImageFix" result="effect1_dropShadow_220_2608"/>
<feBlend mode="normal" in="SourceGraphic" in2="effect1_dropShadow_220_2608" result="shape"/>
</filter>
</defs>
</svg>
