<svg width="430" height="932" viewBox="0 0 430 932" fill="none" xmlns="http://www.w3.org/2000/svg">
<g clip-path="url(#clip0_220_4907)">
<rect width="430" height="932" fill="#F5F5F5"/>
<rect width="430" height="100" fill="#B81010"/>
<path d="M39.1705 61V34.8182H48.017C50.071 34.8182 51.75 35.1889 53.054 35.9304C54.3665 36.6634 55.3381 37.6562 55.9688 38.9091C56.5994 40.1619 56.9148 41.5597 56.9148 43.1023C56.9148 44.6449 56.5994 46.0469 55.9688 47.3082C55.3466 48.5696 54.3835 49.5753 53.0795 50.3253C51.7756 51.0668 50.1051 51.4375 48.0682 51.4375H41.7273V48.625H47.9659C49.3722 48.625 50.5014 48.3821 51.3537 47.8963C52.206 47.4105 52.8239 46.7543 53.2074 45.9276C53.5994 45.0923 53.7955 44.1506 53.7955 43.1023C53.7955 42.054 53.5994 41.1165 53.2074 40.2898C52.8239 39.4631 52.2017 38.8153 51.3409 38.3466C50.4801 37.8693 49.3381 37.6307 47.9148 37.6307H42.3409V61H39.1705ZM61.6129 61V41.3636H64.5277V44.3295H64.7322C65.0902 43.358 65.7379 42.5696 66.6754 41.9645C67.6129 41.3594 68.6697 41.0568 69.8459 41.0568C70.0675 41.0568 70.3445 41.0611 70.6768 41.0696C71.0092 41.0781 71.2607 41.0909 71.4311 41.108V44.1761C71.3288 44.1506 71.0945 44.1122 70.728 44.0611C70.37 44.0014 69.9908 43.9716 69.5902 43.9716C68.6357 43.9716 67.7834 44.1719 67.0334 44.5724C66.2919 44.9645 65.7038 45.5099 65.2692 46.2088C64.843 46.8991 64.63 47.6875 64.63 48.5739V61H61.6129ZM82.3871 61.4091C80.6143 61.4091 79.0589 60.9872 77.7209 60.1435C76.3913 59.2997 75.3516 58.1193 74.6016 56.6023C73.8601 55.0852 73.4893 53.3125 73.4893 51.2841C73.4893 49.2386 73.8601 47.4531 74.6016 45.9276C75.3516 44.402 76.3913 43.2173 77.7209 42.3736C79.0589 41.5298 80.6143 41.108 82.3871 41.108C84.1598 41.108 85.7109 41.5298 87.0405 42.3736C88.3786 43.2173 89.4183 44.402 90.1598 45.9276C90.9098 47.4531 91.2848 49.2386 91.2848 51.2841C91.2848 53.3125 90.9098 55.0852 90.1598 56.6023C89.4183 58.1193 88.3786 59.2997 87.0405 60.1435C85.7109 60.9872 84.1598 61.4091 82.3871 61.4091ZM82.3871 58.6989C83.7337 58.6989 84.8416 58.3537 85.7109 57.6634C86.5803 56.973 87.2237 56.0653 87.6413 54.9403C88.0589 53.8153 88.2678 52.5966 88.2678 51.2841C88.2678 49.9716 88.0589 48.7486 87.6413 47.6151C87.2237 46.4815 86.5803 45.5653 85.7109 44.8665C84.8416 44.1676 83.7337 43.8182 82.3871 43.8182C81.0405 43.8182 79.9325 44.1676 79.0632 44.8665C78.1939 45.5653 77.5504 46.4815 77.1328 47.6151C76.7152 48.7486 76.5064 49.9716 76.5064 51.2841C76.5064 52.5966 76.7152 53.8153 77.1328 54.9403C77.5504 56.0653 78.1939 56.973 79.0632 57.6634C79.9325 58.3537 81.0405 58.6989 82.3871 58.6989ZM104.635 41.3636V43.9205H94.0494V41.3636H104.635ZM97.2198 61V38.6534C97.2198 37.5284 97.484 36.5909 98.0124 35.8409C98.5408 35.0909 99.2269 34.5284 100.071 34.1534C100.914 33.7784 101.805 33.5909 102.743 33.5909C103.484 33.5909 104.089 33.6506 104.558 33.7699C105.027 33.8892 105.376 34 105.606 34.1023L104.737 36.7102C104.583 36.6591 104.37 36.5952 104.098 36.5185C103.833 36.4418 103.484 36.4034 103.049 36.4034C102.052 36.4034 101.332 36.6548 100.889 37.1577C100.454 37.6605 100.237 38.3977 100.237 39.3693V61H97.2198ZM108.863 61V41.3636H111.88V61H108.863ZM110.397 38.0909C109.809 38.0909 109.302 37.8906 108.876 37.4901C108.458 37.0895 108.249 36.608 108.249 36.0455C108.249 35.483 108.458 35.0014 108.876 34.6009C109.302 34.2003 109.809 34 110.397 34C110.985 34 111.488 34.2003 111.906 34.6009C112.332 35.0014 112.545 35.483 112.545 36.0455C112.545 36.608 112.332 37.0895 111.906 37.4901C111.488 37.8906 110.985 38.0909 110.397 38.0909ZM120.423 34.8182V61H117.406V34.8182H120.423ZM134.182 61.4091C132.29 61.4091 130.658 60.9915 129.286 60.1562C127.922 59.3125 126.869 58.1364 126.128 56.6278C125.395 55.1108 125.028 53.3466 125.028 51.3352C125.028 49.3239 125.395 47.5511 126.128 46.017C126.869 44.4744 127.901 43.2727 129.222 42.4119C130.551 41.5426 132.102 41.108 133.875 41.108C134.898 41.108 135.908 41.2784 136.905 41.6193C137.902 41.9602 138.81 42.5142 139.628 43.2812C140.446 44.0398 141.098 45.0455 141.584 46.2983C142.07 47.5511 142.312 49.0937 142.312 50.9261V52.2045H127.176V49.5966H139.244C139.244 48.4886 139.023 47.5 138.58 46.6307C138.145 45.7614 137.523 45.0753 136.713 44.5724C135.912 44.0696 134.966 43.8182 133.875 43.8182C132.673 43.8182 131.634 44.1165 130.756 44.7131C129.886 45.3011 129.217 46.0682 128.749 47.0142C128.28 47.9602 128.045 48.9744 128.045 50.0568V51.7955C128.045 53.2784 128.301 54.5355 128.812 55.5668C129.332 56.5895 130.053 57.3693 130.973 57.9062C131.893 58.4347 132.963 58.6989 134.182 58.6989C134.974 58.6989 135.69 58.5881 136.33 58.3665C136.977 58.1364 137.536 57.7955 138.004 57.3438C138.473 56.8835 138.835 56.3125 139.091 55.6307L142.006 56.4489C141.699 57.4375 141.183 58.3068 140.459 59.0568C139.734 59.7983 138.839 60.3778 137.774 60.7955C136.709 61.2045 135.511 61.4091 134.182 61.4091Z" fill="white"/>
<rect y="832" width="430" height="100" fill="#B81010"/>
<rect x="14" y="851" width="70" height="62" fill="#B81010"/>
<rect x="19" y="852" width="60" height="60" fill="#B81010"/>
<path d="M66.6443 874.853L49.1239 860.05C48.6305 859.634 47.9392 859.639 47.4523 860.065L30.4922 874.867C30.1729 875.146 29.9858 875.57 29.9858 876.017V902.784C29.9858 903.599 30.5903 904.258 31.3366 904.258H41.4184C42.1636 904.258 42.7692 903.599 42.7692 902.784V886.395H54.384V902.784C54.384 903.599 54.9895 904.258 55.7347 904.258H65.8182C66.5634 904.258 67.1689 903.599 67.1689 902.784V876.017C67.1695 875.561 66.9754 875.131 66.6443 874.853Z" fill="white"/>
<rect x="124" y="851" width="70" height="62" fill="#B81010"/>
<rect x="129" y="853" width="60" height="60" fill="#B81010"/>
<path d="M177.27 876.769H141.575C141.164 876.769 140.831 877.237 140.831 877.815V888.27C140.831 888.847 141.164 889.315 141.575 889.315H177.27C177.681 889.315 178.014 888.847 178.014 888.27V877.814C178.014 877.237 177.681 876.769 177.27 876.769Z" fill="white"/>
<path d="M162.501 860.779V860.742H141.575C141.164 860.742 140.831 861.21 140.831 861.788V872.242C140.831 872.82 141.164 873.288 141.575 873.288H162.501V873.251C162.821 873.135 163.059 872.73 163.059 872.243V861.787C163.059 861.3 162.821 860.895 162.501 860.779Z" fill="white"/>
<path d="M167.231 892.712H141.575C141.164 892.712 140.831 893.18 140.831 893.758V904.212C140.831 904.79 141.164 905.258 141.575 905.258H167.231C167.642 905.258 167.975 904.79 167.975 904.212V893.758C167.975 893.18 167.642 892.712 167.231 892.712Z" fill="white"/>
<rect x="235" y="851" width="70" height="62" fill="#B81010"/>
<rect x="240" y="851" width="60" height="60" fill="#B81010"/>
<path d="M267.58 884.281L269.315 883.072L267.065 880.789L267.58 884.281Z" fill="white"/>
<path d="M289.014 880.977C289.014 880.462 288.804 880.009 288.485 879.725L288.492 879.712L283.996 876.58L286.584 871.173L286.575 871.166C286.733 870.729 286.727 870.21 286.514 869.765C286.3 869.32 285.932 869.054 285.538 869.001V868.986H280.346V862.74H280.335C280.291 862.265 280.07 861.821 279.701 861.564C279.332 861.306 278.902 861.299 278.538 861.491L278.532 861.478L273.961 864.662L271.429 859.372L271.42 859.378C271.185 858.994 270.81 858.742 270.384 858.742C269.957 858.742 269.581 858.995 269.347 859.38L269.335 859.372L266.762 864.749L262.33 861.663L262.325 861.674C261.962 861.483 261.533 861.491 261.164 861.748C260.794 862.005 260.574 862.45 260.53 862.926H260.517V869.135H255.4V869.147C255.007 869.201 254.638 869.466 254.425 869.911C254.212 870.357 254.206 870.875 254.364 871.313L254.353 871.321L256.883 876.607L252.353 879.763L252.359 879.774C252.04 880.058 251.831 880.51 251.831 881.024C251.831 881.539 252.041 881.992 252.36 882.275L252.353 882.289L256.849 885.42L254.261 890.828L254.27 890.834C254.112 891.272 254.118 891.79 254.331 892.235C254.545 892.68 254.914 892.946 255.308 892.999V893.015H260.499V899.26H260.51C260.554 899.735 260.774 900.179 261.143 900.436C261.513 900.694 261.943 900.701 262.306 900.509L262.313 900.522L266.884 897.338L269.416 902.628L269.425 902.622C269.66 903.006 270.035 903.258 270.461 903.258C270.888 903.258 271.263 903.005 271.498 902.621L271.509 902.628L274.083 897.251L278.514 900.337L278.52 900.326C278.883 900.517 279.312 900.509 279.681 900.252C280.05 899.995 280.271 899.55 280.315 899.074H280.328V892.866H285.445V892.854C285.839 892.8 286.207 892.534 286.42 892.089C286.633 891.644 286.639 891.125 286.481 890.687L286.492 890.68L283.962 885.394L288.492 882.238L288.487 882.227C288.805 881.944 289.014 881.491 289.014 880.977ZM264.413 889.84C263.338 890.59 262.363 890.692 261.534 890.423L261.65 888.854C262.278 889.074 263.089 889.072 263.856 888.538C264.515 888.079 264.656 887.511 264.468 887.12C263.909 885.953 261.097 888.999 259.888 886.473C259.354 885.356 259.711 883.873 261.021 882.96C261.905 882.344 262.793 882.156 263.637 882.386L263.488 883.911C262.797 883.723 262.086 883.909 261.519 884.304C261.018 884.653 260.86 885.112 261.053 885.515C261.558 886.571 264.411 883.632 265.61 886.137C266.198 887.363 265.907 888.801 264.413 889.84ZM271.136 884.997L270.242 884.104L267.857 885.765L268.05 887.146L266.707 888.081L265.639 879.877L267.124 878.844L272.479 884.062L271.136 884.997ZM272.946 883.737L269.734 877.025L270.927 876.194L273.537 881.647L275.889 880.009L276.491 881.268L272.946 883.737ZM277.291 880.71L274.079 873.999L278.016 871.256L278.617 872.514L275.866 874.431L276.54 875.84L279.233 873.964L279.835 875.221L277.142 877.097L277.873 878.627L280.626 876.71L281.228 877.968L277.291 880.71Z" fill="white"/>
<rect x="346" y="851" width="70" height="62" fill="#B81010"/>
<rect x="351" y="853" width="60" height="60" fill="#B81010"/>
<path d="M401.441 889.575L390.827 884.871L386.339 882.881C388.299 881.734 389.891 879.963 390.933 877.83C391.76 876.136 392.252 874.219 392.252 872.168C392.252 871.018 392.055 869.925 391.781 868.871C390.447 863.763 386.153 860 380.999 860C375.942 860 371.713 863.629 370.296 868.593C369.969 869.731 369.744 870.915 369.744 872.17C369.744 874.348 370.291 876.379 371.222 878.145C372.297 880.194 373.892 881.884 375.833 882.97L371.535 884.83L360.577 889.572C359.626 889.986 359 890.983 359 892.097V901.582V903.285C359 904.784 360.124 906 361.513 906H400.487C401.875 906 403 904.785 403 903.285V901.582V892.097C402.999 890.987 402.383 889.999 401.441 889.575Z" fill="white"/>
<path d="M78.4068 179V152.818H81.5772V165.807H81.8841L93.6454 152.818H97.7875L86.7931 164.631L97.7875 179H93.9522L84.85 166.83L81.5772 170.511V179H78.4068ZM107.26 179.46C106.016 179.46 104.887 179.226 103.873 178.757C102.858 178.28 102.053 177.594 101.456 176.699C100.86 175.795 100.562 174.705 100.562 173.426C100.562 172.301 100.783 171.389 101.226 170.69C101.67 169.983 102.262 169.429 103.003 169.028C103.745 168.628 104.563 168.33 105.458 168.134C106.361 167.929 107.269 167.767 108.181 167.648C109.374 167.494 110.341 167.379 111.083 167.303C111.833 167.217 112.378 167.077 112.719 166.881C113.069 166.685 113.243 166.344 113.243 165.858V165.756C113.243 164.494 112.898 163.514 112.208 162.815C111.526 162.116 110.491 161.767 109.101 161.767C107.661 161.767 106.532 162.082 105.714 162.713C104.895 163.344 104.32 164.017 103.988 164.733L101.124 163.71C101.635 162.517 102.317 161.588 103.17 160.923C104.03 160.25 104.968 159.781 105.982 159.517C107.005 159.244 108.01 159.108 108.999 159.108C109.63 159.108 110.354 159.185 111.172 159.338C111.999 159.483 112.796 159.786 113.563 160.246C114.339 160.706 114.982 161.401 115.493 162.33C116.005 163.259 116.26 164.503 116.26 166.062V179H113.243V176.341H113.09C112.885 176.767 112.545 177.223 112.067 177.709C111.59 178.195 110.955 178.608 110.162 178.949C109.37 179.29 108.403 179.46 107.26 179.46ZM107.721 176.75C108.914 176.75 109.92 176.516 110.738 176.047C111.564 175.578 112.187 174.973 112.604 174.232C113.03 173.49 113.243 172.71 113.243 171.892V169.131C113.116 169.284 112.834 169.425 112.4 169.553C111.974 169.672 111.479 169.778 110.917 169.872C110.363 169.957 109.822 170.034 109.293 170.102C108.773 170.162 108.351 170.213 108.028 170.256C107.243 170.358 106.51 170.524 105.829 170.754C105.155 170.976 104.61 171.312 104.192 171.764C103.783 172.207 103.579 172.812 103.579 173.58C103.579 174.628 103.966 175.42 104.742 175.957C105.526 176.486 106.519 176.75 107.721 176.75ZM121.767 179V159.364H124.682V162.33H124.887C125.244 161.358 125.892 160.57 126.83 159.964C127.767 159.359 128.824 159.057 130 159.057C130.222 159.057 130.499 159.061 130.831 159.07C131.164 159.078 131.415 159.091 131.585 159.108V162.176C131.483 162.151 131.249 162.112 130.882 162.061C130.524 162.001 130.145 161.972 129.744 161.972C128.79 161.972 127.938 162.172 127.188 162.572C126.446 162.964 125.858 163.51 125.423 164.209C124.997 164.899 124.784 165.687 124.784 166.574V179H121.767ZM140.94 179.46C139.696 179.46 138.567 179.226 137.552 178.757C136.538 178.28 135.733 177.594 135.136 176.699C134.54 175.795 134.241 174.705 134.241 173.426C134.241 172.301 134.463 171.389 134.906 170.69C135.349 169.983 135.942 169.429 136.683 169.028C137.425 168.628 138.243 168.33 139.138 168.134C140.041 167.929 140.949 167.767 141.861 167.648C143.054 167.494 144.021 167.379 144.763 167.303C145.513 167.217 146.058 167.077 146.399 166.881C146.748 166.685 146.923 166.344 146.923 165.858V165.756C146.923 164.494 146.578 163.514 145.888 162.815C145.206 162.116 144.17 161.767 142.781 161.767C141.341 161.767 140.211 162.082 139.393 162.713C138.575 163.344 138 164.017 137.667 164.733L134.804 163.71C135.315 162.517 135.997 161.588 136.849 160.923C137.71 160.25 138.648 159.781 139.662 159.517C140.684 159.244 141.69 159.108 142.679 159.108C143.309 159.108 144.034 159.185 144.852 159.338C145.679 159.483 146.476 159.786 147.243 160.246C148.018 160.706 148.662 161.401 149.173 162.33C149.684 163.259 149.94 164.503 149.94 166.062V179H146.923V176.341H146.77C146.565 176.767 146.224 177.223 145.747 177.709C145.27 178.195 144.635 178.608 143.842 178.949C143.05 179.29 142.082 179.46 140.94 179.46ZM141.4 176.75C142.594 176.75 143.599 176.516 144.417 176.047C145.244 175.578 145.866 174.973 146.284 174.232C146.71 173.49 146.923 172.71 146.923 171.892V169.131C146.795 169.284 146.514 169.425 146.079 169.553C145.653 169.672 145.159 169.778 144.596 169.872C144.042 169.957 143.501 170.034 142.973 170.102C142.453 170.162 142.031 170.213 141.707 170.256C140.923 170.358 140.19 170.524 139.508 170.754C138.835 170.976 138.29 171.312 137.872 171.764C137.463 172.207 137.258 172.812 137.258 173.58C137.258 174.628 137.646 175.42 138.422 175.957C139.206 176.486 140.199 176.75 141.4 176.75ZM155.447 179V159.364H158.362V162.432H158.617C159.026 161.384 159.687 160.57 160.599 159.99C161.511 159.402 162.606 159.108 163.884 159.108C165.18 159.108 166.258 159.402 167.119 159.99C167.988 160.57 168.666 161.384 169.151 162.432H169.356C169.859 161.418 170.613 160.612 171.619 160.016C172.624 159.411 173.83 159.108 175.237 159.108C176.992 159.108 178.428 159.658 179.545 160.757C180.661 161.848 181.22 163.548 181.22 165.858V179H178.203V165.858C178.203 164.409 177.806 163.374 177.014 162.751C176.221 162.129 175.288 161.818 174.214 161.818C172.833 161.818 171.764 162.236 171.005 163.071C170.247 163.898 169.867 164.946 169.867 166.216V179H166.799V165.551C166.799 164.435 166.437 163.536 165.713 162.854C164.988 162.163 164.055 161.818 162.913 161.818C162.129 161.818 161.396 162.027 160.714 162.445C160.041 162.862 159.495 163.442 159.078 164.183C158.669 164.916 158.464 165.764 158.464 166.727V179H155.447ZM198.344 179H195.02L204.634 152.818H207.906L217.52 179H214.196L206.372 156.96H206.168L198.344 179ZM199.571 168.773H212.969V171.585H199.571V168.773ZM224.206 152.818V179H221.189V152.818H224.206ZM241.34 179H238.016L247.63 152.818H250.903L260.516 179H257.192L249.368 156.96H249.164L241.34 179ZM242.567 168.773H255.965V171.585H242.567V168.773ZM278.094 163.761L275.384 164.528C275.214 164.077 274.962 163.638 274.63 163.212C274.306 162.777 273.863 162.419 273.3 162.138C272.738 161.857 272.018 161.716 271.14 161.716C269.938 161.716 268.937 161.993 268.135 162.547C267.343 163.092 266.947 163.787 266.947 164.631C266.947 165.381 267.219 165.973 267.765 166.408C268.31 166.842 269.162 167.205 270.322 167.494L273.236 168.21C274.992 168.636 276.3 169.288 277.161 170.166C278.022 171.036 278.452 172.156 278.452 173.528C278.452 174.653 278.128 175.659 277.481 176.545C276.841 177.432 275.947 178.131 274.796 178.642C273.645 179.153 272.307 179.409 270.782 179.409C268.779 179.409 267.121 178.974 265.809 178.105C264.496 177.236 263.665 175.966 263.316 174.295L266.18 173.58C266.452 174.636 266.968 175.429 267.726 175.957C268.493 176.486 269.495 176.75 270.731 176.75C272.137 176.75 273.253 176.452 274.08 175.855C274.915 175.25 275.333 174.526 275.333 173.682C275.333 173 275.094 172.429 274.617 171.969C274.14 171.5 273.407 171.151 272.418 170.92L269.145 170.153C267.347 169.727 266.026 169.067 265.182 168.172C264.347 167.268 263.93 166.139 263.93 164.784C263.93 163.676 264.241 162.696 264.863 161.844C265.493 160.991 266.35 160.322 267.432 159.837C268.523 159.351 269.759 159.108 271.14 159.108C273.083 159.108 274.608 159.534 275.716 160.386C276.833 161.239 277.626 162.364 278.094 163.761ZM286.011 167.188V179H282.994V152.818H286.011V162.432H286.267C286.727 161.418 287.417 160.612 288.338 160.016C289.267 159.411 290.502 159.108 292.045 159.108C293.383 159.108 294.555 159.376 295.561 159.913C296.566 160.442 297.346 161.256 297.9 162.355C298.463 163.446 298.744 164.835 298.744 166.523V179H295.727V166.727C295.727 165.168 295.322 163.962 294.512 163.109C293.711 162.249 292.599 161.818 291.176 161.818C290.187 161.818 289.301 162.027 288.517 162.445C287.741 162.862 287.127 163.472 286.676 164.273C286.232 165.074 286.011 166.045 286.011 167.188ZM307.076 171.841L307.025 168.108H307.638L316.229 159.364H319.962L310.809 168.619H310.553L307.076 171.841ZM304.263 179V152.818H307.28V179H304.263ZM316.741 179L309.07 169.284L311.218 167.188L320.576 179H316.741ZM329.624 179.46C328.379 179.46 327.25 179.226 326.236 178.757C325.222 178.28 324.416 177.594 323.82 176.699C323.223 175.795 322.925 174.705 322.925 173.426C322.925 172.301 323.146 171.389 323.59 170.69C324.033 169.983 324.625 169.429 325.367 169.028C326.108 168.628 326.926 168.33 327.821 168.134C328.725 167.929 329.632 167.767 330.544 167.648C331.737 167.494 332.705 167.379 333.446 167.303C334.196 167.217 334.742 167.077 335.083 166.881C335.432 166.685 335.607 166.344 335.607 165.858V165.756C335.607 164.494 335.262 163.514 334.571 162.815C333.889 162.116 332.854 161.767 331.465 161.767C330.024 161.767 328.895 162.082 328.077 162.713C327.259 163.344 326.683 164.017 326.351 164.733L323.487 163.71C323.999 162.517 324.681 161.588 325.533 160.923C326.394 160.25 327.331 159.781 328.345 159.517C329.368 159.244 330.374 159.108 331.362 159.108C331.993 159.108 332.718 159.185 333.536 159.338C334.362 159.483 335.159 159.786 335.926 160.246C336.702 160.706 337.345 161.401 337.857 162.33C338.368 163.259 338.624 164.503 338.624 166.062V179H335.607V176.341H335.453C335.249 176.767 334.908 177.223 334.431 177.709C333.953 178.195 333.318 178.608 332.526 178.949C331.733 179.29 330.766 179.46 329.624 179.46ZM330.084 176.75C331.277 176.75 332.283 176.516 333.101 176.047C333.928 175.578 334.55 174.973 334.968 174.232C335.394 173.49 335.607 172.71 335.607 171.892V169.131C335.479 169.284 335.198 169.425 334.763 169.553C334.337 169.672 333.843 169.778 333.28 169.872C332.726 169.957 332.185 170.034 331.656 170.102C331.137 170.162 330.715 170.213 330.391 170.256C329.607 170.358 328.874 170.524 328.192 170.754C327.519 170.976 326.973 171.312 326.556 171.764C326.146 172.207 325.942 172.812 325.942 173.58C325.942 174.628 326.33 175.42 327.105 175.957C327.889 176.486 328.882 176.75 330.084 176.75ZM344.131 179V159.364H347.045V162.33H347.25C347.608 161.358 348.256 160.57 349.193 159.964C350.131 159.359 351.187 159.057 352.363 159.057C352.585 159.057 352.862 159.061 353.194 159.07C353.527 159.078 353.778 159.091 353.949 159.108V162.176C353.846 162.151 353.612 162.112 353.246 162.061C352.888 162.001 352.508 161.972 352.108 161.972C351.153 161.972 350.301 162.172 349.551 162.572C348.809 162.964 348.221 163.51 347.787 164.209C347.361 164.899 347.148 165.687 347.148 166.574V179H344.131Z" fill="black"/>
<g filter="url(#filter0_d_220_4907)">
<rect x="85" y="226" width="260" height="160" rx="10" fill="white"/>
</g>
<path d="M162.184 275V257.545H172.65V259.42H164.298V265.318H171.866V267.193H164.298V275H162.184ZM180.525 275.273C179.263 275.273 178.175 274.994 177.261 274.438C176.352 273.875 175.65 273.091 175.156 272.085C174.667 271.074 174.423 269.898 174.423 268.557C174.423 267.216 174.667 266.034 175.156 265.011C175.65 263.983 176.337 263.182 177.218 262.608C178.104 262.028 179.138 261.739 180.32 261.739C181.002 261.739 181.675 261.852 182.34 262.08C183.005 262.307 183.61 262.676 184.156 263.188C184.701 263.693 185.136 264.364 185.46 265.199C185.783 266.034 185.945 267.062 185.945 268.284V269.136H175.854V267.398H183.9C183.9 266.659 183.752 266 183.457 265.42C183.167 264.841 182.752 264.384 182.212 264.048C181.678 263.713 181.048 263.545 180.32 263.545C179.519 263.545 178.826 263.744 178.241 264.142C177.661 264.534 177.215 265.045 176.903 265.676C176.59 266.307 176.434 266.983 176.434 267.705V268.864C176.434 269.852 176.604 270.69 176.945 271.378C177.292 272.06 177.772 272.58 178.386 272.938C178.999 273.29 179.712 273.466 180.525 273.466C181.053 273.466 181.531 273.392 181.957 273.244C182.388 273.091 182.761 272.864 183.073 272.562C183.386 272.256 183.627 271.875 183.798 271.42L185.741 271.966C185.536 272.625 185.192 273.205 184.71 273.705C184.227 274.199 183.63 274.585 182.92 274.864C182.21 275.136 181.411 275.273 180.525 275.273ZM194.494 275.273C193.232 275.273 192.144 274.994 191.229 274.438C190.32 273.875 189.619 273.091 189.124 272.085C188.636 271.074 188.391 269.898 188.391 268.557C188.391 267.216 188.636 266.034 189.124 265.011C189.619 263.983 190.306 263.182 191.187 262.608C192.073 262.028 193.107 261.739 194.289 261.739C194.971 261.739 195.644 261.852 196.309 262.08C196.974 262.307 197.579 262.676 198.124 263.188C198.67 263.693 199.104 264.364 199.428 265.199C199.752 266.034 199.914 267.062 199.914 268.284V269.136H189.823V267.398H197.869C197.869 266.659 197.721 266 197.425 265.42C197.136 264.841 196.721 264.384 196.181 264.048C195.647 263.713 195.016 263.545 194.289 263.545C193.488 263.545 192.795 263.744 192.21 264.142C191.63 264.534 191.184 265.045 190.871 265.676C190.559 266.307 190.403 266.983 190.403 267.705V268.864C190.403 269.852 190.573 270.69 190.914 271.378C191.261 272.06 191.741 272.58 192.354 272.938C192.968 273.29 193.681 273.466 194.494 273.466C195.022 273.466 195.499 273.392 195.925 273.244C196.357 273.091 196.729 272.864 197.042 272.562C197.354 272.256 197.596 271.875 197.766 271.42L199.71 271.966C199.505 272.625 199.161 273.205 198.678 273.705C198.195 274.199 197.599 274.585 196.888 274.864C196.178 275.136 195.38 275.273 194.494 275.273ZM207.917 275.273C206.826 275.273 205.863 274.997 205.028 274.446C204.192 273.889 203.539 273.105 203.067 272.094C202.596 271.077 202.36 269.875 202.36 268.489C202.36 267.114 202.596 265.92 203.067 264.909C203.539 263.898 204.195 263.116 205.036 262.565C205.877 262.014 206.849 261.739 207.951 261.739C208.803 261.739 209.477 261.881 209.971 262.165C210.471 262.443 210.852 262.761 211.113 263.119C211.38 263.472 211.587 263.761 211.735 263.989H211.906V257.545H213.917V275H211.974V272.989H211.735C211.587 273.227 211.377 273.528 211.104 273.892C210.832 274.25 210.442 274.571 209.937 274.855C209.431 275.134 208.758 275.273 207.917 275.273ZM208.19 273.466C208.996 273.466 209.678 273.256 210.235 272.835C210.792 272.409 211.215 271.821 211.505 271.071C211.795 270.315 211.94 269.443 211.94 268.455C211.94 267.477 211.798 266.622 211.513 265.889C211.229 265.151 210.809 264.577 210.252 264.168C209.695 263.753 209.008 263.545 208.19 263.545C207.337 263.545 206.627 263.764 206.059 264.202C205.496 264.634 205.073 265.222 204.789 265.966C204.511 266.705 204.371 267.534 204.371 268.455C204.371 269.386 204.513 270.233 204.798 270.994C205.087 271.75 205.513 272.352 206.076 272.801C206.644 273.244 207.349 273.466 208.19 273.466ZM218.153 275V257.545H220.164V263.989H220.335C220.482 263.761 220.687 263.472 220.948 263.119C221.215 262.761 221.596 262.443 222.09 262.165C222.59 261.881 223.266 261.739 224.119 261.739C225.221 261.739 226.192 262.014 227.033 262.565C227.874 263.116 228.531 263.898 229.002 264.909C229.474 265.92 229.71 267.114 229.71 268.489C229.71 269.875 229.474 271.077 229.002 272.094C228.531 273.105 227.877 273.889 227.042 274.446C226.207 274.997 225.244 275.273 224.153 275.273C223.312 275.273 222.638 275.134 222.133 274.855C221.627 274.571 221.238 274.25 220.965 273.892C220.692 273.528 220.482 273.227 220.335 272.989H220.096V275H218.153ZM220.13 268.455C220.13 269.443 220.275 270.315 220.565 271.071C220.854 271.821 221.278 272.409 221.835 272.835C222.391 273.256 223.073 273.466 223.88 273.466C224.721 273.466 225.423 273.244 225.985 272.801C226.553 272.352 226.979 271.75 227.263 270.994C227.553 270.233 227.698 269.386 227.698 268.455C227.698 267.534 227.556 266.705 227.272 265.966C226.994 265.222 226.57 264.634 226.002 264.202C225.44 263.764 224.732 263.545 223.88 263.545C223.062 263.545 222.374 263.753 221.817 264.168C221.261 264.577 220.84 265.151 220.556 265.889C220.272 266.622 220.13 267.477 220.13 268.455ZM236.638 275.307C235.809 275.307 235.056 275.151 234.38 274.838C233.704 274.52 233.167 274.062 232.769 273.466C232.371 272.864 232.173 272.136 232.173 271.284C232.173 270.534 232.32 269.926 232.616 269.46C232.911 268.989 233.306 268.619 233.8 268.352C234.295 268.085 234.84 267.886 235.437 267.756C236.039 267.619 236.644 267.511 237.252 267.432C238.048 267.33 238.692 267.253 239.187 267.202C239.687 267.145 240.05 267.051 240.278 266.92C240.511 266.79 240.627 266.562 240.627 266.239V266.17C240.627 265.33 240.397 264.676 239.937 264.21C239.482 263.744 238.792 263.511 237.866 263.511C236.906 263.511 236.153 263.722 235.607 264.142C235.062 264.562 234.678 265.011 234.457 265.489L232.548 264.807C232.888 264.011 233.343 263.392 233.911 262.949C234.485 262.5 235.11 262.187 235.786 262.011C236.468 261.83 237.138 261.739 237.798 261.739C238.218 261.739 238.701 261.79 239.246 261.892C239.798 261.989 240.329 262.19 240.84 262.497C241.357 262.804 241.786 263.267 242.127 263.886C242.468 264.506 242.638 265.335 242.638 266.375V275H240.627V273.227H240.525C240.388 273.511 240.161 273.815 239.843 274.139C239.525 274.463 239.102 274.739 238.573 274.966C238.045 275.193 237.4 275.307 236.638 275.307ZM236.945 273.5C237.741 273.5 238.411 273.344 238.957 273.031C239.508 272.719 239.923 272.315 240.201 271.821C240.485 271.327 240.627 270.807 240.627 270.261V268.42C240.542 268.523 240.354 268.616 240.065 268.702C239.781 268.781 239.451 268.852 239.076 268.915C238.707 268.972 238.346 269.023 237.994 269.068C237.647 269.108 237.366 269.142 237.15 269.17C236.627 269.239 236.138 269.349 235.684 269.503C235.235 269.651 234.871 269.875 234.593 270.176C234.32 270.472 234.184 270.875 234.184 271.386C234.184 272.085 234.442 272.614 234.96 272.972C235.482 273.324 236.144 273.5 236.945 273.5ZM251.628 275.273C250.401 275.273 249.344 274.983 248.457 274.403C247.571 273.824 246.889 273.026 246.412 272.009C245.935 270.991 245.696 269.83 245.696 268.523C245.696 267.193 245.94 266.02 246.429 265.003C246.923 263.98 247.611 263.182 248.491 262.608C249.378 262.028 250.412 261.739 251.594 261.739C252.514 261.739 253.344 261.909 254.082 262.25C254.821 262.591 255.426 263.068 255.898 263.682C256.369 264.295 256.662 265.011 256.776 265.83H254.764C254.611 265.233 254.27 264.705 253.741 264.244C253.219 263.778 252.514 263.545 251.628 263.545C250.844 263.545 250.156 263.75 249.565 264.159C248.98 264.562 248.523 265.134 248.193 265.872C247.869 266.605 247.707 267.466 247.707 268.455C247.707 269.466 247.866 270.347 248.185 271.097C248.509 271.847 248.963 272.429 249.548 272.844C250.139 273.259 250.832 273.466 251.628 273.466C252.151 273.466 252.625 273.375 253.051 273.193C253.477 273.011 253.838 272.75 254.134 272.409C254.429 272.068 254.639 271.659 254.764 271.182H256.776C256.662 271.955 256.381 272.651 255.932 273.27C255.489 273.884 254.901 274.372 254.168 274.736C253.44 275.094 252.594 275.273 251.628 275.273ZM261.591 270.227L261.557 267.739H261.966L267.693 261.909H270.182L264.08 268.08H263.909L261.591 270.227ZM259.716 275V257.545H261.727V275H259.716ZM268.034 275L262.92 268.523L264.352 267.125L270.591 275H268.034Z" fill="black"/>
<path d="M210.099 329.545V347H207.986V331.761H207.884L203.622 334.591V332.443L207.986 329.545H210.099ZM215.119 347V345.466L220.881 339.159C221.557 338.42 222.114 337.778 222.551 337.233C222.989 336.682 223.313 336.165 223.523 335.682C223.739 335.193 223.847 334.682 223.847 334.148C223.847 333.534 223.699 333.003 223.403 332.554C223.114 332.105 222.716 331.759 222.21 331.514C221.705 331.27 221.136 331.148 220.506 331.148C219.835 331.148 219.25 331.287 218.75 331.565C218.256 331.838 217.872 332.222 217.599 332.716C217.332 333.21 217.199 333.79 217.199 334.455H215.188C215.188 333.432 215.423 332.534 215.895 331.761C216.366 330.989 217.009 330.386 217.821 329.955C218.639 329.523 219.557 329.307 220.574 329.307C221.597 329.307 222.503 329.523 223.293 329.955C224.082 330.386 224.702 330.969 225.151 331.702C225.599 332.435 225.824 333.25 225.824 334.148C225.824 334.79 225.707 335.418 225.474 336.031C225.247 336.639 224.849 337.318 224.281 338.068C223.719 338.812 222.938 339.722 221.938 340.795L218.017 344.989V345.125H226.131V347H215.119Z" fill="black"/>
<g filter="url(#filter1_d_220_4907)">
<rect x="85" y="411" width="260" height="160" rx="10" fill="white"/>
</g>
<path d="M172.543 460H167.157V442.545H172.782C174.475 442.545 175.924 442.895 177.128 443.594C178.333 444.287 179.256 445.284 179.898 446.585C180.54 447.881 180.861 449.432 180.861 451.239C180.861 453.057 180.537 454.622 179.89 455.935C179.242 457.241 178.299 458.247 177.06 458.952C175.821 459.651 174.316 460 172.543 460ZM169.27 458.125H172.407C173.85 458.125 175.046 457.847 175.995 457.29C176.944 456.733 177.651 455.94 178.117 454.912C178.583 453.884 178.816 452.659 178.816 451.239C178.816 449.83 178.586 448.616 178.125 447.599C177.665 446.577 176.978 445.793 176.063 445.247C175.148 444.696 174.009 444.42 172.645 444.42H169.27V458.125ZM184.134 460V446.909H186.145V460H184.134ZM185.157 444.727C184.765 444.727 184.426 444.594 184.142 444.327C183.864 444.06 183.725 443.739 183.725 443.364C183.725 442.989 183.864 442.668 184.142 442.401C184.426 442.134 184.765 442 185.157 442C185.549 442 185.884 442.134 186.162 442.401C186.446 442.668 186.588 442.989 186.588 443.364C186.588 443.739 186.446 444.06 186.162 444.327C185.884 444.594 185.549 444.727 185.157 444.727ZM199.102 449.841L197.295 450.352C197.181 450.051 197.014 449.759 196.792 449.474C196.576 449.185 196.281 448.946 195.906 448.759C195.531 448.571 195.051 448.477 194.466 448.477C193.664 448.477 192.997 448.662 192.463 449.031C191.934 449.395 191.67 449.858 191.67 450.42C191.67 450.92 191.852 451.315 192.216 451.605C192.579 451.895 193.147 452.136 193.92 452.33L195.863 452.807C197.034 453.091 197.906 453.526 198.48 454.111C199.054 454.69 199.341 455.437 199.341 456.352C199.341 457.102 199.125 457.773 198.693 458.364C198.267 458.955 197.67 459.42 196.903 459.761C196.136 460.102 195.244 460.273 194.227 460.273C192.892 460.273 191.787 459.983 190.912 459.403C190.037 458.824 189.483 457.977 189.25 456.864L191.159 456.386C191.341 457.091 191.684 457.619 192.19 457.972C192.701 458.324 193.369 458.5 194.193 458.5C195.13 458.5 195.875 458.301 196.426 457.903C196.983 457.5 197.261 457.017 197.261 456.455C197.261 456 197.102 455.619 196.784 455.312C196.466 455 195.977 454.767 195.318 454.614L193.136 454.102C191.937 453.818 191.056 453.378 190.494 452.781C189.937 452.179 189.659 451.426 189.659 450.523C189.659 449.784 189.866 449.131 190.281 448.562C190.701 447.994 191.272 447.548 191.994 447.224C192.721 446.901 193.545 446.739 194.466 446.739C195.761 446.739 196.778 447.023 197.517 447.591C198.261 448.159 198.789 448.909 199.102 449.841ZM207.686 460.273C206.459 460.273 205.402 459.983 204.516 459.403C203.63 458.824 202.948 458.026 202.471 457.009C201.993 455.991 201.755 454.83 201.755 453.523C201.755 452.193 201.999 451.02 202.488 450.003C202.982 448.98 203.669 448.182 204.55 447.608C205.436 447.028 206.471 446.739 207.652 446.739C208.573 446.739 209.402 446.909 210.141 447.25C210.88 447.591 211.485 448.068 211.956 448.682C212.428 449.295 212.721 450.011 212.834 450.83H210.823C210.669 450.233 210.328 449.705 209.8 449.244C209.277 448.778 208.573 448.545 207.686 448.545C206.902 448.545 206.215 448.75 205.624 449.159C205.039 449.562 204.581 450.134 204.252 450.872C203.928 451.605 203.766 452.466 203.766 453.455C203.766 454.466 203.925 455.347 204.243 456.097C204.567 456.847 205.022 457.429 205.607 457.844C206.198 458.259 206.891 458.466 207.686 458.466C208.209 458.466 208.684 458.375 209.11 458.193C209.536 458.011 209.897 457.75 210.192 457.409C210.488 457.068 210.698 456.659 210.823 456.182H212.834C212.721 456.955 212.439 457.651 211.99 458.27C211.547 458.884 210.959 459.372 210.226 459.736C209.499 460.094 208.652 460.273 207.686 460.273ZM221.093 460.273C219.911 460.273 218.874 459.991 217.982 459.429C217.096 458.866 216.402 458.08 215.902 457.068C215.408 456.057 215.161 454.875 215.161 453.523C215.161 452.159 215.408 450.969 215.902 449.952C216.402 448.935 217.096 448.145 217.982 447.582C218.874 447.02 219.911 446.739 221.093 446.739C222.275 446.739 223.309 447.02 224.195 447.582C225.087 448.145 225.78 448.935 226.275 449.952C226.775 450.969 227.025 452.159 227.025 453.523C227.025 454.875 226.775 456.057 226.275 457.068C225.78 458.08 225.087 458.866 224.195 459.429C223.309 459.991 222.275 460.273 221.093 460.273ZM221.093 458.466C221.99 458.466 222.729 458.236 223.309 457.776C223.888 457.315 224.317 456.71 224.596 455.96C224.874 455.21 225.013 454.398 225.013 453.523C225.013 452.648 224.874 451.832 224.596 451.077C224.317 450.321 223.888 449.71 223.309 449.244C222.729 448.778 221.99 448.545 221.093 448.545C220.195 448.545 219.456 448.778 218.877 449.244C218.297 449.71 217.868 450.321 217.59 451.077C217.311 451.832 217.172 452.648 217.172 453.523C217.172 454.398 217.311 455.21 217.59 455.96C217.868 456.71 218.297 457.315 218.877 457.776C219.456 458.236 220.195 458.466 221.093 458.466ZM238.345 454.648V446.909H240.356V460H238.345V457.784H238.208C237.902 458.449 237.424 459.014 236.777 459.48C236.129 459.94 235.311 460.17 234.322 460.17C233.504 460.17 232.777 459.991 232.14 459.634C231.504 459.27 231.004 458.724 230.64 457.997C230.277 457.264 230.095 456.341 230.095 455.227V446.909H232.106V455.091C232.106 456.045 232.373 456.807 232.907 457.375C233.447 457.943 234.135 458.227 234.97 458.227C235.47 458.227 235.978 458.099 236.495 457.844C237.018 457.588 237.456 457.196 237.808 456.668C238.166 456.139 238.345 455.466 238.345 454.648ZM246.051 452.125V460H244.04V446.909H245.983V448.955H246.154C246.461 448.29 246.926 447.756 247.551 447.352C248.176 446.943 248.983 446.739 249.972 446.739C250.858 446.739 251.634 446.92 252.299 447.284C252.963 447.642 253.48 448.188 253.85 448.92C254.219 449.648 254.404 450.568 254.404 451.682V460H252.392V451.818C252.392 450.79 252.125 449.989 251.591 449.415C251.057 448.835 250.324 448.545 249.392 448.545C248.75 448.545 248.176 448.685 247.671 448.963C247.171 449.241 246.776 449.648 246.486 450.182C246.196 450.716 246.051 451.364 246.051 452.125ZM263.772 446.909V448.614H256.988V446.909H263.772ZM258.966 443.773H260.977V456.25C260.977 456.818 261.059 457.244 261.224 457.528C261.395 457.807 261.61 457.994 261.872 458.091C262.139 458.182 262.42 458.227 262.716 458.227C262.937 458.227 263.119 458.216 263.261 458.193C263.403 458.165 263.517 458.142 263.602 458.125L264.011 459.932C263.875 459.983 263.684 460.034 263.44 460.085C263.196 460.142 262.886 460.17 262.511 460.17C261.943 460.17 261.386 460.048 260.841 459.804C260.301 459.56 259.852 459.188 259.494 458.688C259.142 458.188 258.966 457.557 258.966 456.795V443.773Z" fill="black"/>
<path d="M210.099 514.545V532H207.986V516.761H207.884L203.622 519.591V517.443L207.986 514.545H210.099ZM215.119 532V530.466L220.881 524.159C221.557 523.42 222.114 522.778 222.551 522.233C222.989 521.682 223.313 521.165 223.523 520.682C223.739 520.193 223.847 519.682 223.847 519.148C223.847 518.534 223.699 518.003 223.403 517.554C223.114 517.105 222.716 516.759 222.21 516.514C221.705 516.27 221.136 516.148 220.506 516.148C219.835 516.148 219.25 516.287 218.75 516.565C218.256 516.838 217.872 517.222 217.599 517.716C217.332 518.21 217.199 518.79 217.199 519.455H215.188C215.188 518.432 215.423 517.534 215.895 516.761C216.366 515.989 217.009 515.386 217.821 514.955C218.639 514.523 219.557 514.307 220.574 514.307C221.597 514.307 222.503 514.523 223.293 514.955C224.082 515.386 224.702 515.969 225.151 516.702C225.599 517.435 225.824 518.25 225.824 519.148C225.824 519.79 225.707 520.418 225.474 521.031C225.247 521.639 224.849 522.318 224.281 523.068C223.719 523.812 222.938 524.722 221.938 525.795L218.017 529.989V530.125H226.131V532H215.119Z" fill="black"/>
<rect x="84" y="615" width="260" height="60" rx="10" fill="#B81010"/>
<path d="M185.799 652V638.909H187.384V650.594H193.47V652H185.799ZM199.708 652.205C198.822 652.205 198.044 651.994 197.375 651.572C196.71 651.15 196.19 650.56 195.815 649.801C195.445 649.043 195.259 648.156 195.259 647.142C195.259 646.119 195.445 645.227 195.815 644.464C196.19 643.701 196.71 643.109 197.375 642.687C198.044 642.265 198.822 642.054 199.708 642.054C200.595 642.054 201.37 642.265 202.035 642.687C202.704 643.109 203.224 643.701 203.595 644.464C203.97 645.227 204.157 646.119 204.157 647.142C204.157 648.156 203.97 649.043 203.595 649.801C203.224 650.56 202.704 651.15 202.035 651.572C201.37 651.994 200.595 652.205 199.708 652.205ZM199.708 650.849C200.381 650.849 200.935 650.677 201.37 650.332C201.805 649.987 202.127 649.533 202.335 648.97C202.544 648.408 202.649 647.798 202.649 647.142C202.649 646.486 202.544 645.874 202.335 645.308C202.127 644.741 201.805 644.283 201.37 643.933C200.935 643.584 200.381 643.409 199.708 643.409C199.035 643.409 198.481 643.584 198.046 643.933C197.612 644.283 197.29 644.741 197.081 645.308C196.872 645.874 196.768 646.486 196.768 647.142C196.768 647.798 196.872 648.408 197.081 648.97C197.29 649.533 197.612 649.987 198.046 650.332C198.481 650.677 199.035 650.849 199.708 650.849ZM210.423 655.886C209.694 655.886 209.068 655.793 208.544 655.605C208.019 655.422 207.583 655.179 207.233 654.876C206.888 654.578 206.613 654.259 206.409 653.918L207.61 653.074C207.747 653.253 207.919 653.457 208.128 653.688C208.337 653.922 208.622 654.124 208.985 654.295C209.351 654.469 209.831 654.557 210.423 654.557C211.215 654.557 211.87 654.365 212.385 653.982C212.901 653.598 213.159 652.997 213.159 652.179V650.185H213.031C212.92 650.364 212.762 650.585 212.558 650.849C212.358 651.109 212.068 651.342 211.688 651.546C211.313 651.746 210.806 651.847 210.167 651.847C209.375 651.847 208.663 651.659 208.032 651.284C207.406 650.909 206.909 650.364 206.543 649.648C206.181 648.932 206 648.062 206 647.04C206 646.034 206.176 645.158 206.53 644.413C206.884 643.663 207.376 643.083 208.007 642.674C208.637 642.261 209.366 642.054 210.193 642.054C210.832 642.054 211.339 642.161 211.714 642.374C212.093 642.582 212.383 642.821 212.583 643.089C212.788 643.354 212.946 643.571 213.056 643.741H213.21V642.182H214.667V652.281C214.667 653.125 214.475 653.811 214.092 654.339C213.713 654.872 213.201 655.262 212.558 655.509C211.919 655.761 211.207 655.886 210.423 655.886ZM210.372 650.491C210.977 650.491 211.488 650.353 211.906 650.076C212.323 649.799 212.641 649.401 212.858 648.881C213.076 648.361 213.184 647.739 213.184 647.014C213.184 646.307 213.078 645.683 212.865 645.141C212.652 644.6 212.336 644.176 211.919 643.869C211.501 643.562 210.985 643.409 210.372 643.409C209.733 643.409 209.2 643.571 208.774 643.895C208.352 644.219 208.034 644.653 207.821 645.199C207.612 645.744 207.508 646.349 207.508 647.014C207.508 647.696 207.615 648.299 207.828 648.823C208.045 649.343 208.365 649.752 208.786 650.05C209.213 650.344 209.741 650.491 210.372 650.491ZM221.417 652.205C220.531 652.205 219.753 651.994 219.084 651.572C218.419 651.15 217.899 650.56 217.524 649.801C217.154 649.043 216.968 648.156 216.968 647.142C216.968 646.119 217.154 645.227 217.524 644.464C217.899 643.701 218.419 643.109 219.084 642.687C219.753 642.265 220.531 642.054 221.417 642.054C222.304 642.054 223.079 642.265 223.744 642.687C224.413 643.109 224.933 643.701 225.304 644.464C225.679 645.227 225.866 646.119 225.866 647.142C225.866 648.156 225.679 649.043 225.304 649.801C224.933 650.56 224.413 651.15 223.744 651.572C223.079 651.994 222.304 652.205 221.417 652.205ZM221.417 650.849C222.09 650.849 222.644 650.677 223.079 650.332C223.514 649.987 223.835 649.533 224.044 648.97C224.253 648.408 224.358 647.798 224.358 647.142C224.358 646.486 224.253 645.874 224.044 645.308C223.835 644.741 223.514 644.283 223.079 643.933C222.644 643.584 222.09 643.409 221.417 643.409C220.744 643.409 220.19 643.584 219.755 643.933C219.321 644.283 218.999 644.741 218.79 645.308C218.581 645.874 218.477 646.486 218.477 647.142C218.477 647.798 218.581 648.408 218.79 648.97C218.999 649.533 219.321 649.987 219.755 650.332C220.19 650.677 220.744 650.849 221.417 650.849ZM234.356 647.986V642.182H235.865V652H234.356V650.338H234.254C234.024 650.837 233.666 651.261 233.18 651.61C232.694 651.955 232.081 652.128 231.339 652.128C230.726 652.128 230.18 651.994 229.703 651.725C229.226 651.452 228.851 651.043 228.578 650.498C228.305 649.948 228.169 649.256 228.169 648.42V642.182H229.677V648.318C229.677 649.034 229.878 649.605 230.278 650.031C230.683 650.457 231.199 650.67 231.825 650.67C232.2 650.67 232.581 650.575 232.969 650.383C233.361 650.191 233.689 649.897 233.954 649.501C234.222 649.104 234.356 648.599 234.356 647.986ZM242.898 642.182V643.46H237.81V642.182H242.898ZM239.293 639.83H240.801V649.188C240.801 649.614 240.863 649.933 240.986 650.146C241.114 650.355 241.276 650.496 241.472 650.568C241.672 650.636 241.883 650.67 242.105 650.67C242.271 650.67 242.408 650.662 242.514 650.645C242.621 650.624 242.706 650.607 242.77 650.594L243.077 651.949C242.974 651.987 242.832 652.026 242.648 652.064C242.465 652.107 242.233 652.128 241.952 652.128C241.525 652.128 241.108 652.036 240.699 651.853C240.294 651.67 239.957 651.391 239.689 651.016C239.425 650.641 239.293 650.168 239.293 649.597V639.83Z" fill="white"/>
</g>
<defs>
<filter id="filter0_d_220_4907" x="85" y="226" width="268" height="168" filterUnits="userSpaceOnUse" color-interpolation-filters="sRGB">
<feFlood flood-opacity="0" result="BackgroundImageFix"/>
<feColorMatrix in="SourceAlpha" type="matrix" values="0 0 0 0 0 0 0 0 0 0 0 0 0 0 0 0 0 0 127 0" result="hardAlpha"/>
<feOffset dx="4" dy="4"/>
<feGaussianBlur stdDeviation="2"/>
<feComposite in2="hardAlpha" operator="out"/>
<feColorMatrix type="matrix" values="0 0 0 0 0 0 0 0 0 0 0 0 0 0 0 0 0 0 0.25 0"/>
<feBlend mode="normal" in2="BackgroundImageFix" result="effect1_dropShadow_220_4907"/>
<feBlend mode="normal" in="SourceGraphic" in2="effect1_dropShadow_220_4907" result="shape"/>
</filter>
<filter id="filter1_d_220_4907" x="85" y="411" width="268" height="168" filterUnits="userSpaceOnUse" color-interpolation-filters="sRGB">
<feFlood flood-opacity="0" result="BackgroundImageFix"/>
<feColorMatrix in="SourceAlpha" type="matrix" values="0 0 0 0 0 0 0 0 0 0 0 0 0 0 0 0 0 0 127 0" result="hardAlpha"/>
<feOffset dx="4" dy="4"/>
<feGaussianBlur stdDeviation="2"/>
<feComposite in2="hardAlpha" operator="out"/>
<feColorMatrix type="matrix" values="0 0 0 0 0 0 0 0 0 0 0 0 0 0 0 0 0 0 0.25 0"/>
<feBlend mode="normal" in2="BackgroundImageFix" result="effect1_dropShadow_220_4907"/>
<feBlend mode="normal" in="SourceGraphic" in2="effect1_dropShadow_220_4907" result="shape"/>
</filter>
<clipPath id="clip0_220_4907">
<rect width="430" height="932" fill="white"/>
</clipPath>
</defs>
</svg>
