<svg width="1363" height="167" viewBox="0 0 1363 167" fill="none" xmlns="http://www.w3.org/2000/svg">
<rect width="1363" height="167" rx="15" fill="#F0F0F0"/>
<path d="M0 15C0 6.71573 6.71573 0 15 0H37V167H15C6.71573 167 0 160.284 0 152V15Z" fill="#424241"/>
<path d="M100.906 54.9219L93.3945 52.2383V49.0859L103.602 53.375V55.6367L100.906 54.9219ZM93.3945 57.1719L100.918 54.4297L103.602 53.7852V56.0352L93.3945 60.3242V57.1719ZM114.242 44.9375L117.805 52.7188L121.367 44.9375H125.199L119.586 55.7891V62H116.023V55.7891L110.398 44.9375H114.242ZM125.234 55.7891V55.543C125.234 54.6133 125.367 53.7578 125.633 52.9766C125.898 52.1875 126.285 51.5039 126.793 50.9258C127.301 50.3477 127.926 49.8984 128.668 49.5781C129.41 49.25 130.262 49.0859 131.223 49.0859C132.184 49.0859 133.039 49.25 133.789 49.5781C134.539 49.8984 135.168 50.3477 135.676 50.9258C136.191 51.5039 136.582 52.1875 136.848 52.9766C137.113 53.7578 137.246 54.6133 137.246 55.543V55.7891C137.246 56.7109 137.113 57.5664 136.848 58.3555C136.582 59.1367 136.191 59.8203 135.676 60.4062C135.168 60.9844 134.543 61.4336 133.801 61.7539C133.059 62.0742 132.207 62.2344 131.246 62.2344C130.285 62.2344 129.43 62.0742 128.68 61.7539C127.938 61.4336 127.309 60.9844 126.793 60.4062C126.285 59.8203 125.898 59.1367 125.633 58.3555C125.367 57.5664 125.234 56.7109 125.234 55.7891ZM128.609 55.543V55.7891C128.609 56.3203 128.656 56.8164 128.75 57.2773C128.844 57.7383 128.992 58.1445 129.195 58.4961C129.406 58.8398 129.68 59.1094 130.016 59.3047C130.352 59.5 130.762 59.5977 131.246 59.5977C131.715 59.5977 132.117 59.5 132.453 59.3047C132.789 59.1094 133.059 58.8398 133.262 58.4961C133.465 58.1445 133.613 57.7383 133.707 57.2773C133.809 56.8164 133.859 56.3203 133.859 55.7891V55.543C133.859 55.0273 133.809 54.543 133.707 54.0898C133.613 53.6289 133.461 53.2227 133.25 52.8711C133.047 52.5117 132.777 52.2305 132.441 52.0273C132.105 51.8242 131.699 51.7227 131.223 51.7227C130.746 51.7227 130.34 51.8242 130.004 52.0273C129.676 52.2305 129.406 52.5117 129.195 52.8711C128.992 53.2227 128.844 53.6289 128.75 54.0898C128.656 54.543 128.609 55.0273 128.609 55.543ZM146.82 58.9648V49.3203H150.195V62H147.02L146.82 58.9648ZM147.195 56.3633L148.191 56.3398C148.191 57.1836 148.094 57.9688 147.898 58.6953C147.703 59.4141 147.41 60.0391 147.02 60.5703C146.629 61.0938 146.137 61.5039 145.543 61.8008C144.949 62.0898 144.25 62.2344 143.445 62.2344C142.828 62.2344 142.258 62.1484 141.734 61.9766C141.219 61.7969 140.773 61.5195 140.398 61.1445C140.031 60.7617 139.742 60.2734 139.531 59.6797C139.328 59.0781 139.227 58.3555 139.227 57.5117V49.3203H142.602V57.5352C142.602 57.9102 142.645 58.2266 142.73 58.4844C142.824 58.7422 142.953 58.9531 143.117 59.1172C143.281 59.2812 143.473 59.3984 143.691 59.4688C143.918 59.5391 144.168 59.5742 144.441 59.5742C145.137 59.5742 145.684 59.4336 146.082 59.1523C146.488 58.8711 146.773 58.4883 146.938 58.0039C147.109 57.5117 147.195 56.9648 147.195 56.3633ZM156.148 52.0859V62H152.773V49.3203H155.949L156.148 52.0859ZM159.969 49.2383L159.91 52.3672C159.746 52.3438 159.547 52.3242 159.312 52.3086C159.086 52.2852 158.879 52.2734 158.691 52.2734C158.215 52.2734 157.801 52.3359 157.449 52.4609C157.105 52.5781 156.816 52.7539 156.582 52.9883C156.355 53.2227 156.184 53.5078 156.066 53.8438C155.957 54.1797 155.895 54.5625 155.879 54.9922L155.199 54.7812C155.199 53.9609 155.281 53.207 155.445 52.5195C155.609 51.8242 155.848 51.2188 156.16 50.7031C156.48 50.1875 156.871 49.7891 157.332 49.5078C157.793 49.2266 158.32 49.0859 158.914 49.0859C159.102 49.0859 159.293 49.1016 159.488 49.1328C159.684 49.1562 159.844 49.1914 159.969 49.2383ZM171.266 44.9375V62H167.75V44.9375H171.266ZM178.062 52.2266V54.9688H170.305V52.2266H178.062ZM178.883 44.9375V47.6914H170.305V44.9375H178.883ZM186.289 62.2344C185.305 62.2344 184.422 62.0781 183.641 61.7656C182.859 61.4453 182.195 61.0039 181.648 60.4414C181.109 59.8789 180.695 59.2266 180.406 58.4844C180.117 57.7344 179.973 56.9375 179.973 56.0938V55.625C179.973 54.6641 180.109 53.7852 180.383 52.9883C180.656 52.1914 181.047 51.5 181.555 50.9141C182.07 50.3281 182.695 49.8789 183.43 49.5664C184.164 49.2461 184.992 49.0859 185.914 49.0859C186.812 49.0859 187.609 49.2344 188.305 49.5312C189 49.8281 189.582 50.25 190.051 50.7969C190.527 51.3438 190.887 52 191.129 52.7656C191.371 53.5234 191.492 54.3672 191.492 55.2969V56.7031H181.414V54.4531H188.176V54.1953C188.176 53.7266 188.09 53.3086 187.918 52.9414C187.754 52.5664 187.504 52.2695 187.168 52.0508C186.832 51.832 186.402 51.7227 185.879 51.7227C185.434 51.7227 185.051 51.8203 184.73 52.0156C184.41 52.2109 184.148 52.4844 183.945 52.8359C183.75 53.1875 183.602 53.6016 183.5 54.0781C183.406 54.5469 183.359 55.0625 183.359 55.625V56.0938C183.359 56.6016 183.43 57.0703 183.57 57.5C183.719 57.9297 183.926 58.3008 184.191 58.6133C184.465 58.9258 184.793 59.168 185.176 59.3398C185.566 59.5117 186.008 59.5977 186.5 59.5977C187.109 59.5977 187.676 59.4805 188.199 59.2461C188.73 59.0039 189.188 58.6406 189.57 58.1562L191.211 59.9375C190.945 60.3203 190.582 60.6875 190.121 61.0391C189.668 61.3906 189.121 61.6797 188.48 61.9062C187.84 62.125 187.109 62.2344 186.289 62.2344ZM199.25 62.2344C198.266 62.2344 197.383 62.0781 196.602 61.7656C195.82 61.4453 195.156 61.0039 194.609 60.4414C194.07 59.8789 193.656 59.2266 193.367 58.4844C193.078 57.7344 192.934 56.9375 192.934 56.0938V55.625C192.934 54.6641 193.07 53.7852 193.344 52.9883C193.617 52.1914 194.008 51.5 194.516 50.9141C195.031 50.3281 195.656 49.8789 196.391 49.5664C197.125 49.2461 197.953 49.0859 198.875 49.0859C199.773 49.0859 200.57 49.2344 201.266 49.5312C201.961 49.8281 202.543 50.25 203.012 50.7969C203.488 51.3438 203.848 52 204.09 52.7656C204.332 53.5234 204.453 54.3672 204.453 55.2969V56.7031H194.375V54.4531H201.137V54.1953C201.137 53.7266 201.051 53.3086 200.879 52.9414C200.715 52.5664 200.465 52.2695 200.129 52.0508C199.793 51.832 199.363 51.7227 198.84 51.7227C198.395 51.7227 198.012 51.8203 197.691 52.0156C197.371 52.2109 197.109 52.4844 196.906 52.8359C196.711 53.1875 196.562 53.6016 196.461 54.0781C196.367 54.5469 196.32 55.0625 196.32 55.625V56.0938C196.32 56.6016 196.391 57.0703 196.531 57.5C196.68 57.9297 196.887 58.3008 197.152 58.6133C197.426 58.9258 197.754 59.168 198.137 59.3398C198.527 59.5117 198.969 59.5977 199.461 59.5977C200.07 59.5977 200.637 59.4805 201.16 59.2461C201.691 59.0039 202.148 58.6406 202.531 58.1562L204.172 59.9375C203.906 60.3203 203.543 60.6875 203.082 61.0391C202.629 61.3906 202.082 61.6797 201.441 61.9062C200.801 62.125 200.07 62.2344 199.25 62.2344ZM213.863 59.2344V44H217.262V62H214.203L213.863 59.2344ZM205.848 55.8125V55.5664C205.848 54.5977 205.957 53.7188 206.176 52.9297C206.395 52.1328 206.715 51.4492 207.137 50.8789C207.559 50.3086 208.078 49.8672 208.695 49.5547C209.312 49.2422 210.016 49.0859 210.805 49.0859C211.547 49.0859 212.195 49.2422 212.75 49.5547C213.312 49.8672 213.789 50.3125 214.18 50.8906C214.578 51.4609 214.898 52.1367 215.141 52.918C215.383 53.6914 215.559 54.5391 215.668 55.4609V56C215.559 56.8828 215.383 57.7031 215.141 58.4609C214.898 59.2188 214.578 59.8828 214.18 60.4531C213.789 61.0156 213.312 61.4531 212.75 61.7656C212.188 62.0781 211.531 62.2344 210.781 62.2344C209.992 62.2344 209.289 62.0742 208.672 61.7539C208.062 61.4336 207.547 60.9844 207.125 60.4062C206.711 59.8281 206.395 59.1484 206.176 58.3672C205.957 57.5859 205.848 56.7344 205.848 55.8125ZM209.223 55.5664V55.8125C209.223 56.3359 209.262 56.8242 209.34 57.2773C209.426 57.7305 209.562 58.1328 209.75 58.4844C209.945 58.8281 210.195 59.0977 210.5 59.293C210.812 59.4805 211.191 59.5742 211.637 59.5742C212.215 59.5742 212.691 59.4453 213.066 59.1875C213.441 58.9219 213.727 58.5586 213.922 58.0977C214.125 57.6367 214.242 57.1055 214.273 56.5039V54.9688C214.25 54.4766 214.18 54.0352 214.062 53.6445C213.953 53.2461 213.789 52.9062 213.57 52.625C213.359 52.3438 213.094 52.125 212.773 51.9688C212.461 51.8125 212.09 51.7344 211.66 51.7344C211.223 51.7344 210.848 51.8359 210.535 52.0391C210.223 52.2344 209.969 52.5039 209.773 52.8477C209.586 53.1914 209.445 53.5977 209.352 54.0664C209.266 54.5273 209.223 55.0273 209.223 55.5664ZM219.898 44H223.273V59.0938L222.934 62H219.898V44ZM231.301 55.5312V55.7773C231.301 56.7227 231.199 57.5898 230.996 58.3789C230.801 59.168 230.496 59.8516 230.082 60.4297C229.668 61 229.152 61.4453 228.535 61.7656C227.926 62.0781 227.207 62.2344 226.379 62.2344C225.605 62.2344 224.934 62.0781 224.363 61.7656C223.801 61.4531 223.328 61.0117 222.945 60.4414C222.562 59.8711 222.254 59.2031 222.02 58.4375C221.785 57.6719 221.609 56.8359 221.492 55.9297V55.3906C221.609 54.4844 221.785 53.6484 222.02 52.8828C222.254 52.1172 222.562 51.4492 222.945 50.8789C223.328 50.3086 223.801 49.8672 224.363 49.5547C224.926 49.2422 225.59 49.0859 226.355 49.0859C227.191 49.0859 227.918 49.2461 228.535 49.5664C229.16 49.8789 229.676 50.3242 230.082 50.9023C230.496 51.4727 230.801 52.1523 230.996 52.9414C231.199 53.7227 231.301 54.5859 231.301 55.5312ZM227.926 55.7773V55.5312C227.926 55.0156 227.887 54.5312 227.809 54.0781C227.738 53.6172 227.613 53.2148 227.434 52.8711C227.254 52.5195 227.008 52.2422 226.695 52.0391C226.391 51.8359 225.996 51.7344 225.512 51.7344C225.051 51.7344 224.66 51.8125 224.34 51.9688C224.02 52.125 223.754 52.3438 223.543 52.625C223.34 52.9062 223.188 53.2422 223.086 53.6328C222.984 54.0156 222.922 54.4375 222.898 54.8984V56.4336C222.922 57.0508 223.023 57.5977 223.203 58.0742C223.391 58.543 223.672 58.9141 224.047 59.1875C224.43 59.4531 224.926 59.5859 225.535 59.5859C226.012 59.5859 226.406 59.4922 226.719 59.3047C227.031 59.1172 227.273 58.8516 227.445 58.5078C227.625 58.1641 227.75 57.7617 227.82 57.3008C227.891 56.832 227.926 56.3242 227.926 55.7773ZM240.242 59.1406V53.4922C240.242 53.0859 240.176 52.7383 240.043 52.4492C239.91 52.1523 239.703 51.9219 239.422 51.7578C239.148 51.5938 238.793 51.5117 238.355 51.5117C237.98 51.5117 237.656 51.5781 237.383 51.7109C237.109 51.8359 236.898 52.0195 236.75 52.2617C236.602 52.4961 236.527 52.7734 236.527 53.0938H233.152C233.152 52.5547 233.277 52.043 233.527 51.5586C233.777 51.0742 234.141 50.6484 234.617 50.2812C235.094 49.9062 235.66 49.6133 236.316 49.4023C236.98 49.1914 237.723 49.0859 238.543 49.0859C239.527 49.0859 240.402 49.25 241.168 49.5781C241.934 49.9062 242.535 50.3984 242.973 51.0547C243.418 51.7109 243.641 52.5312 243.641 53.5156V58.9414C243.641 59.6367 243.684 60.207 243.77 60.6523C243.855 61.0898 243.98 61.4727 244.145 61.8008V62H240.734C240.57 61.6562 240.445 61.2266 240.359 60.7109C240.281 60.1875 240.242 59.6641 240.242 59.1406ZM240.688 54.2773L240.711 56.1875H238.824C238.379 56.1875 237.992 56.2383 237.664 56.3398C237.336 56.4414 237.066 56.5859 236.855 56.7734C236.645 56.9531 236.488 57.1641 236.387 57.4062C236.293 57.6484 236.246 57.9141 236.246 58.2031C236.246 58.4922 236.312 58.7539 236.445 58.9883C236.578 59.2148 236.77 59.3945 237.02 59.5273C237.27 59.6523 237.562 59.7148 237.898 59.7148C238.406 59.7148 238.848 59.6133 239.223 59.4102C239.598 59.207 239.887 58.957 240.09 58.6602C240.301 58.3633 240.41 58.082 240.418 57.8164L241.309 59.2461C241.184 59.5664 241.012 59.8984 240.793 60.2422C240.582 60.5859 240.312 60.9102 239.984 61.2148C239.656 61.5117 239.262 61.7578 238.801 61.9531C238.34 62.1406 237.793 62.2344 237.16 62.2344C236.355 62.2344 235.625 62.0742 234.969 61.7539C234.32 61.4258 233.805 60.9766 233.422 60.4062C233.047 59.8281 232.859 59.1719 232.859 58.4375C232.859 57.7734 232.984 57.1836 233.234 56.668C233.484 56.1523 233.852 55.7188 234.336 55.3672C234.828 55.0078 235.441 54.7383 236.176 54.5586C236.91 54.3711 237.762 54.2773 238.73 54.2773H240.688ZM251.48 59.5977C251.895 59.5977 252.262 59.5195 252.582 59.3633C252.902 59.1992 253.152 58.9727 253.332 58.6836C253.52 58.3867 253.617 58.0391 253.625 57.6406H256.801C256.793 58.5312 256.555 59.3242 256.086 60.0195C255.617 60.707 254.988 61.25 254.199 61.6484C253.41 62.0391 252.527 62.2344 251.551 62.2344C250.566 62.2344 249.707 62.0703 248.973 61.7422C248.246 61.4141 247.641 60.9609 247.156 60.3828C246.672 59.7969 246.309 59.1172 246.066 58.3438C245.824 57.5625 245.703 56.7266 245.703 55.8359V55.4961C245.703 54.5977 245.824 53.7617 246.066 52.9883C246.309 52.207 246.672 51.5273 247.156 50.9492C247.641 50.3633 248.246 49.9062 248.973 49.5781C249.699 49.25 250.551 49.0859 251.527 49.0859C252.566 49.0859 253.477 49.2852 254.258 49.6836C255.047 50.082 255.664 50.6523 256.109 51.3945C256.562 52.1289 256.793 53 256.801 54.0078H253.625C253.617 53.5859 253.527 53.2031 253.355 52.8594C253.191 52.5156 252.949 52.2422 252.629 52.0391C252.316 51.8281 251.93 51.7227 251.469 51.7227C250.977 51.7227 250.574 51.8281 250.262 52.0391C249.949 52.2422 249.707 52.5234 249.535 52.8828C249.363 53.2344 249.242 53.6367 249.172 54.0898C249.109 54.5352 249.078 55.0039 249.078 55.4961V55.8359C249.078 56.3281 249.109 56.8008 249.172 57.2539C249.234 57.707 249.352 58.1094 249.523 58.4609C249.703 58.8125 249.949 59.0898 250.262 59.293C250.574 59.4961 250.98 59.5977 251.48 59.5977ZM262.133 43.9883V62H258.758V43.9883H262.133ZM270.125 49.3203L264.617 55.6016L261.664 58.5898L260.434 56.1523L262.777 53.1758L266.07 49.3203H270.125ZM266.621 62L262.871 56.1406L265.203 54.1016L270.512 62H266.621Z" fill="#888888"/>
<path d="M107.205 107.146H99.251V101.191H107.205C108.289 101.191 109.168 101.008 109.842 100.642C110.516 100.275 111.006 99.77 111.314 99.1255C111.636 98.4663 111.797 97.7266 111.797 96.9062C111.797 96.0273 111.636 95.2144 111.314 94.4673C111.006 93.7202 110.516 93.1196 109.842 92.6655C109.168 92.1968 108.289 91.9624 107.205 91.9624H102.151V118H94.439V86.0078H107.205C109.769 86.0078 111.973 86.4766 113.819 87.4141C115.679 88.3516 117.107 89.6406 118.104 91.2812C119.1 92.9072 119.598 94.7676 119.598 96.8623C119.598 98.9277 119.1 100.729 118.104 102.268C117.107 103.806 115.679 105.007 113.819 105.871C111.973 106.721 109.769 107.146 107.205 107.146ZM130.87 100.114V118H123.465V94.2256H130.386L130.87 100.114ZM137.901 94.0498L137.769 100.927C137.476 100.898 137.081 100.861 136.583 100.817C136.084 100.773 135.667 100.751 135.33 100.751C134.466 100.751 133.719 100.854 133.089 101.059C132.474 101.25 131.961 101.542 131.551 101.938C131.155 102.319 130.862 102.802 130.672 103.388C130.496 103.974 130.416 104.655 130.43 105.432L129.09 104.553C129.09 102.956 129.244 101.506 129.551 100.202C129.874 98.8838 130.328 97.7485 130.914 96.7964C131.5 95.8296 132.21 95.0898 133.045 94.5771C133.88 94.0498 134.817 93.7861 135.857 93.7861C136.224 93.7861 136.583 93.8081 136.934 93.8521C137.3 93.896 137.623 93.9619 137.901 94.0498ZM138.736 106.354V105.893C138.736 104.15 138.985 102.546 139.483 101.081C139.981 99.6016 140.713 98.3198 141.68 97.2358C142.647 96.1519 143.841 95.3096 145.262 94.709C146.683 94.0938 148.323 93.7861 150.184 93.7861C152.059 93.7861 153.707 94.0938 155.127 94.709C156.563 95.3096 157.764 96.1519 158.731 97.2358C159.698 98.3198 160.43 99.6016 160.928 101.081C161.426 102.546 161.675 104.15 161.675 105.893V106.354C161.675 108.083 161.426 109.687 160.928 111.167C160.43 112.631 159.698 113.913 158.731 115.012C157.764 116.096 156.57 116.938 155.149 117.539C153.729 118.139 152.088 118.439 150.228 118.439C148.367 118.439 146.719 118.139 145.284 117.539C143.848 116.938 142.647 116.096 141.68 115.012C140.713 113.913 139.981 112.631 139.483 111.167C138.985 109.687 138.736 108.083 138.736 106.354ZM146.141 105.893V106.354C146.141 107.248 146.207 108.083 146.338 108.859C146.47 109.636 146.69 110.317 146.998 110.903C147.305 111.474 147.723 111.921 148.25 112.243C148.777 112.565 149.437 112.727 150.228 112.727C151.004 112.727 151.648 112.565 152.161 112.243C152.688 111.921 153.106 111.474 153.414 110.903C153.721 110.317 153.941 109.636 154.073 108.859C154.205 108.083 154.271 107.248 154.271 106.354V105.893C154.271 105.029 154.205 104.216 154.073 103.454C153.941 102.678 153.721 101.997 153.414 101.411C153.106 100.81 152.688 100.341 152.161 100.004C151.634 99.6675 150.975 99.499 150.184 99.499C149.407 99.499 148.755 99.6675 148.228 100.004C147.715 100.341 147.305 100.81 146.998 101.411C146.69 101.997 146.47 102.678 146.338 103.454C146.207 104.216 146.141 105.029 146.141 105.893ZM177.496 94.2256V99.3672H163.169V94.2256H177.496ZM166.18 88.3149H173.584V110.244C173.584 110.874 173.658 111.364 173.804 111.716C173.951 112.053 174.2 112.294 174.551 112.441C174.917 112.573 175.401 112.639 176.001 112.639C176.426 112.639 176.778 112.631 177.056 112.617C177.334 112.587 177.598 112.551 177.847 112.507V117.802C177.217 118.007 176.558 118.161 175.87 118.264C175.181 118.381 174.449 118.439 173.672 118.439C172.09 118.439 170.735 118.19 169.607 117.692C168.494 117.194 167.645 116.411 167.059 115.341C166.473 114.272 166.18 112.88 166.18 111.167V88.3149ZM178.858 106.354V105.893C178.858 104.15 179.107 102.546 179.605 101.081C180.103 99.6016 180.835 98.3198 181.802 97.2358C182.769 96.1519 183.963 95.3096 185.384 94.709C186.805 94.0938 188.445 93.7861 190.306 93.7861C192.181 93.7861 193.829 94.0938 195.25 94.709C196.685 95.3096 197.886 96.1519 198.853 97.2358C199.82 98.3198 200.552 99.6016 201.05 101.081C201.548 102.546 201.797 104.15 201.797 105.893V106.354C201.797 108.083 201.548 109.687 201.05 111.167C200.552 112.631 199.82 113.913 198.853 115.012C197.886 116.096 196.692 116.938 195.271 117.539C193.851 118.139 192.21 118.439 190.35 118.439C188.489 118.439 186.841 118.139 185.406 117.539C183.97 116.938 182.769 116.096 181.802 115.012C180.835 113.913 180.103 112.631 179.605 111.167C179.107 109.687 178.858 108.083 178.858 106.354ZM186.263 105.893V106.354C186.263 107.248 186.329 108.083 186.46 108.859C186.592 109.636 186.812 110.317 187.12 110.903C187.427 111.474 187.845 111.921 188.372 112.243C188.899 112.565 189.559 112.727 190.35 112.727C191.126 112.727 191.771 112.565 192.283 112.243C192.811 111.921 193.228 111.474 193.536 110.903C193.843 110.317 194.063 109.636 194.195 108.859C194.327 108.083 194.393 107.248 194.393 106.354V105.893C194.393 105.029 194.327 104.216 194.195 103.454C194.063 102.678 193.843 101.997 193.536 101.411C193.228 100.81 192.811 100.341 192.283 100.004C191.756 99.6675 191.097 99.499 190.306 99.499C189.529 99.499 188.877 99.6675 188.35 100.004C187.837 100.341 187.427 100.81 187.12 101.411C186.812 101.997 186.592 102.678 186.46 103.454C186.329 104.216 186.263 105.029 186.263 105.893ZM217.618 94.2256V99.3672H203.292V94.2256H217.618ZM206.302 88.3149H213.707V110.244C213.707 110.874 213.78 111.364 213.926 111.716C214.073 112.053 214.322 112.294 214.673 112.441C215.04 112.573 215.523 112.639 216.124 112.639C216.548 112.639 216.9 112.631 217.178 112.617C217.457 112.587 217.72 112.551 217.969 112.507V117.802C217.339 118.007 216.68 118.161 215.992 118.264C215.303 118.381 214.571 118.439 213.794 118.439C212.212 118.439 210.857 118.19 209.729 117.692C208.616 117.194 207.767 116.411 207.181 115.341C206.595 114.272 206.302 112.88 206.302 111.167V88.3149ZM227.857 115.209L234.009 94.2256H241.963L232.405 121.538C232.2 122.138 231.929 122.783 231.592 123.471C231.255 124.174 230.794 124.841 230.208 125.471C229.622 126.101 228.868 126.613 227.945 127.009C227.037 127.404 225.909 127.602 224.561 127.602C223.843 127.602 223.316 127.565 222.979 127.492C222.657 127.434 222.159 127.324 221.485 127.163V121.867C221.675 121.867 221.836 121.867 221.968 121.867C222.115 121.867 222.276 121.867 222.452 121.867C223.243 121.867 223.873 121.787 224.341 121.625C224.825 121.464 225.191 121.23 225.44 120.922C225.704 120.615 225.909 120.241 226.055 119.802L227.857 115.209ZM226.297 94.2256L230.977 110.859L231.79 118.703H226.824L218.365 94.2256H226.297ZM251.368 98.7959V127.141H243.963V94.2256H250.862L251.368 98.7959ZM265.958 105.827V106.289C265.958 108.017 265.76 109.621 265.364 111.101C264.969 112.58 264.383 113.869 263.606 114.968C262.83 116.066 261.863 116.923 260.706 117.539C259.563 118.139 258.238 118.439 256.729 118.439C255.308 118.439 254.085 118.125 253.06 117.495C252.034 116.865 251.177 115.993 250.489 114.88C249.8 113.767 249.244 112.492 248.819 111.057C248.394 109.621 248.057 108.105 247.808 106.508V105.915C248.057 104.201 248.394 102.612 248.819 101.147C249.244 99.6675 249.8 98.3784 250.489 97.2798C251.177 96.1812 252.027 95.3242 253.038 94.709C254.063 94.0938 255.286 93.7861 256.707 93.7861C258.216 93.7861 259.542 94.0718 260.684 94.6431C261.841 95.2144 262.808 96.0347 263.584 97.104C264.375 98.1587 264.969 99.4258 265.364 100.905C265.76 102.385 265.958 104.025 265.958 105.827ZM258.553 106.289V105.827C258.553 104.904 258.487 104.062 258.355 103.3C258.223 102.524 258.011 101.85 257.718 101.279C257.439 100.708 257.066 100.268 256.597 99.9604C256.128 99.6528 255.55 99.499 254.861 99.499C254.07 99.499 253.404 99.6235 252.862 99.8726C252.334 100.107 251.91 100.473 251.587 100.971C251.28 101.455 251.06 102.062 250.928 102.795C250.811 103.513 250.76 104.355 250.774 105.322V107.124C250.745 108.237 250.855 109.218 251.104 110.068C251.353 110.903 251.785 111.555 252.4 112.023C253.016 112.492 253.851 112.727 254.905 112.727C255.608 112.727 256.194 112.565 256.663 112.243C257.132 111.906 257.505 111.445 257.784 110.859C258.062 110.258 258.26 109.57 258.377 108.793C258.494 108.017 258.553 107.182 258.553 106.289ZM277.076 94.2256V118H269.649V94.2256H277.076ZM269.209 88.0952C269.209 87.0405 269.59 86.1763 270.352 85.5024C271.114 84.8286 272.103 84.4917 273.318 84.4917C274.534 84.4917 275.523 84.8286 276.285 85.5024C277.046 86.1763 277.427 87.0405 277.427 88.0952C277.427 89.1499 277.046 90.0142 276.285 90.688C275.523 91.3618 274.534 91.6987 273.318 91.6987C272.103 91.6987 271.114 91.3618 270.352 90.688C269.59 90.0142 269.209 89.1499 269.209 88.0952ZM288.919 99.3013V118H281.514V94.2256H288.458L288.919 99.3013ZM288.04 105.3L286.304 105.344C286.304 103.527 286.524 101.909 286.963 100.488C287.403 99.0522 288.025 97.8364 288.831 96.8403C289.637 95.8442 290.596 95.0898 291.709 94.5771C292.837 94.0498 294.09 93.7861 295.467 93.7861C296.565 93.7861 297.569 93.9473 298.477 94.2695C299.4 94.5918 300.191 95.1118 300.85 95.8296C301.524 96.5474 302.037 97.4995 302.388 98.686C302.754 99.8579 302.938 101.308 302.938 103.037V118H295.489V103.015C295.489 102.062 295.357 101.337 295.093 100.839C294.83 100.327 294.449 99.9751 293.951 99.7847C293.453 99.5942 292.845 99.499 292.127 99.499C291.365 99.499 290.721 99.6455 290.193 99.9385C289.666 100.231 289.241 100.642 288.919 101.169C288.611 101.682 288.384 102.29 288.238 102.993C288.106 103.696 288.04 104.465 288.04 105.3ZM321.988 94.2256H328.711V117.077C328.711 119.274 328.206 121.135 327.195 122.658C326.185 124.196 324.771 125.361 322.955 126.152C321.153 126.958 319.043 127.36 316.626 127.36C315.557 127.36 314.466 127.221 313.353 126.943C312.239 126.679 311.199 126.284 310.232 125.756C309.266 125.229 308.453 124.577 307.793 123.801L310.892 119.45C311.492 120.124 312.247 120.695 313.155 121.164C314.063 121.647 315.132 121.889 316.363 121.889C317.432 121.889 318.326 121.699 319.043 121.318C319.776 120.937 320.333 120.38 320.713 119.648C321.094 118.93 321.285 118.059 321.285 117.033V99.8506L321.988 94.2256ZM306.189 106.398V105.937C306.189 104.135 306.409 102.495 306.849 101.015C307.303 99.521 307.947 98.2393 308.782 97.1699C309.632 96.0859 310.657 95.251 311.858 94.665C313.06 94.0791 314.415 93.7861 315.923 93.7861C317.549 93.7861 318.882 94.1011 319.922 94.731C320.977 95.3462 321.819 96.2104 322.449 97.3237C323.094 98.437 323.592 99.7407 323.943 101.235C324.31 102.714 324.617 104.311 324.866 106.025V106.574C324.617 108.186 324.273 109.709 323.833 111.145C323.409 112.565 322.852 113.825 322.164 114.924C321.475 116.022 320.611 116.887 319.571 117.517C318.545 118.132 317.315 118.439 315.879 118.439C314.385 118.439 313.038 118.139 311.836 117.539C310.65 116.938 309.632 116.096 308.782 115.012C307.947 113.928 307.303 112.653 306.849 111.188C306.409 109.724 306.189 108.127 306.189 106.398ZM313.594 105.937V106.398C313.594 107.292 313.675 108.12 313.836 108.881C314.012 109.643 314.275 110.317 314.627 110.903C314.979 111.474 315.411 111.921 315.923 112.243C316.451 112.565 317.066 112.727 317.769 112.727C318.838 112.727 319.703 112.5 320.362 112.045C321.021 111.591 321.497 110.947 321.79 110.112C322.083 109.277 322.208 108.295 322.164 107.167V105.432C322.193 104.465 322.127 103.615 321.966 102.883C321.805 102.136 321.548 101.513 321.197 101.015C320.86 100.517 320.406 100.144 319.834 99.8945C319.278 99.6309 318.604 99.499 317.813 99.499C317.125 99.499 316.517 99.6602 315.989 99.9824C315.462 100.305 315.022 100.759 314.671 101.345C314.319 101.916 314.048 102.597 313.858 103.388C313.682 104.165 313.594 105.014 313.594 105.937Z" fill="#424241"/>
<path d="M1363 15C1363 6.71573 1356.28 0 1348 0H1134V167H1348C1356.28 167 1363 160.284 1363 152V15Z" fill="#B81010"/>
<path fill-rule="evenodd" clip-rule="evenodd" d="M1203 49C1203 47.8954 1203.9 47 1205 47H1292.5C1293.6 47 1294.5 47.8954 1294.5 49V118.996C1294.5 120.101 1293.6 120.996 1292.5 120.996H1205C1203.9 120.996 1203 120.101 1203 118.996V49ZM1207 51V55.4945H1290.5V51H1207ZM1290.5 59.4945H1235.44V116.996H1290.5V59.4945ZM1231.44 116.996V59.4945H1207V116.996H1231.44Z" fill="white"/>
<path fill-rule="evenodd" clip-rule="evenodd" d="M1209.97 64.8004C1209.97 63.6958 1210.87 62.8004 1211.97 62.8004H1225.97C1227.08 62.8004 1227.97 63.6958 1227.97 64.8004V84.1956C1227.97 85.3001 1227.08 86.1956 1225.97 86.1956H1211.97C1210.87 86.1956 1209.97 85.3001 1209.97 84.1956V64.8004ZM1213.97 66.8004V82.1956H1223.97V66.8004H1213.97ZM1239.58 65.6964C1239.58 64.5918 1240.47 63.6964 1241.58 63.6964H1284.5C1285.61 63.6964 1286.5 64.5918 1286.5 65.6964V111.905C1286.5 113.01 1285.61 113.905 1284.5 113.905H1241.58C1240.47 113.905 1239.58 113.01 1239.58 111.905V65.6964ZM1243.58 67.6964V109.905H1282.5V67.6964H1243.58ZM1209.81 95.9363C1209.81 94.8317 1210.71 93.9363 1211.81 93.9363H1220.73C1221.84 93.9363 1222.73 94.8317 1222.73 95.9363C1222.73 97.0409 1221.84 97.9363 1220.73 97.9363H1211.81C1210.71 97.9363 1209.81 97.0409 1209.81 95.9363ZM1209.81 102.936C1209.81 101.832 1210.71 100.936 1211.81 100.936H1226.35C1227.46 100.936 1228.35 101.832 1228.35 102.936C1228.35 104.041 1227.46 104.936 1226.35 104.936H1211.81C1210.71 104.936 1209.81 104.041 1209.81 102.936ZM1209.81 109.936C1209.81 108.832 1210.71 107.936 1211.81 107.936H1220.73C1221.84 107.936 1222.73 108.832 1222.73 109.936C1222.73 111.041 1221.84 111.936 1220.73 111.936H1211.81C1210.71 111.936 1209.81 111.041 1209.81 109.936Z" fill="white"/>
</svg>
