<svg width="1363" height="301" viewBox="0 0 1363 301" fill="none" xmlns="http://www.w3.org/2000/svg">
<rect width="1363" height="301" rx="15" fill="#F0F0F0"/>
<path d="M0 15C0 6.71573 6.71573 0 15 0H37V301H15C6.71573 301 0 294.284 0 286V15Z" fill="#B81010"/>
<path d="M102.071 104.898L109.268 121.871L116.492 104.898H126.644L114.075 129.955V144H104.488V129.955L91.8926 104.898H102.071ZM126.187 129.767V129.203C126.187 127.072 126.491 125.112 127.1 123.321C127.709 121.513 128.604 119.946 129.786 118.622C130.967 117.297 132.426 116.267 134.163 115.533C135.9 114.781 137.905 114.405 140.179 114.405C142.47 114.405 144.485 114.781 146.221 115.533C147.976 116.267 149.444 117.297 150.625 118.622C151.807 119.946 152.702 121.513 153.311 123.321C153.92 125.112 154.224 127.072 154.224 129.203V129.767C154.224 131.879 153.92 133.84 153.311 135.648C152.702 137.438 151.807 139.005 150.625 140.348C149.444 141.673 147.985 142.702 146.248 143.436C144.511 144.17 142.506 144.537 140.232 144.537C137.959 144.537 135.944 144.17 134.19 143.436C132.435 142.702 130.967 141.673 129.786 140.348C128.604 139.005 127.709 137.438 127.1 135.648C126.491 133.84 126.187 131.879 126.187 129.767ZM135.237 129.203V129.767C135.237 130.859 135.318 131.879 135.479 132.828C135.64 133.777 135.909 134.61 136.285 135.326C136.661 136.024 137.171 136.57 137.815 136.964C138.46 137.358 139.266 137.555 140.232 137.555C141.181 137.555 141.969 137.358 142.596 136.964C143.24 136.57 143.75 136.024 144.126 135.326C144.502 134.61 144.771 133.777 144.932 132.828C145.093 131.879 145.174 130.859 145.174 129.767V129.203C145.174 128.146 145.093 127.153 144.932 126.222C144.771 125.273 144.502 124.44 144.126 123.724C143.75 122.99 143.24 122.417 142.596 122.005C141.951 121.594 141.146 121.388 140.179 121.388C139.23 121.388 138.433 121.594 137.789 122.005C137.162 122.417 136.661 122.99 136.285 123.724C135.909 124.44 135.64 125.273 135.479 126.222C135.318 127.153 135.237 128.146 135.237 129.203ZM175.225 136.937V114.942H184.302V144H175.816L175.225 136.937ZM176.084 131.029L178.448 130.975C178.448 132.927 178.215 134.735 177.75 136.4C177.284 138.047 176.595 139.479 175.682 140.697C174.786 141.914 173.676 142.863 172.352 143.543C171.045 144.206 169.532 144.537 167.813 144.537C166.381 144.537 165.065 144.34 163.865 143.946C162.684 143.535 161.663 142.899 160.804 142.04C159.944 141.162 159.273 140.043 158.79 138.683C158.324 137.304 158.091 135.657 158.091 133.741V114.942H167.142V133.795C167.142 134.439 167.222 134.994 167.383 135.46C167.544 135.925 167.777 136.319 168.082 136.642C168.386 136.946 168.762 137.179 169.209 137.34C169.675 137.483 170.203 137.555 170.794 137.555C172.155 137.555 173.22 137.268 173.99 136.695C174.76 136.122 175.297 135.344 175.601 134.359C175.923 133.374 176.084 132.264 176.084 131.029ZM198.428 122.14V144H189.378V114.942H197.837L198.428 122.14ZM207.022 114.728L206.861 123.133C206.503 123.097 206.019 123.053 205.411 122.999C204.802 122.945 204.292 122.918 203.88 122.918C202.824 122.918 201.91 123.044 201.141 123.294C200.389 123.527 199.762 123.885 199.261 124.369C198.777 124.834 198.419 125.425 198.187 126.141C197.972 126.857 197.873 127.69 197.891 128.639L196.253 127.564C196.253 125.613 196.441 123.84 196.817 122.247C197.211 120.636 197.766 119.248 198.482 118.084C199.198 116.903 200.066 115.999 201.087 115.372C202.107 114.728 203.253 114.405 204.524 114.405C204.972 114.405 205.411 114.432 205.84 114.486C206.288 114.54 206.682 114.62 207.022 114.728ZM233.689 104.898V144H224.263V104.898H233.689ZM248.89 121.173V128.424H231.004V121.173H248.89ZM250.42 104.898V112.176H231.004V104.898H250.42ZM267.393 144.537C265.03 144.537 262.917 144.17 261.055 143.436C259.193 142.684 257.618 141.655 256.329 140.348C255.057 139.041 254.082 137.537 253.401 135.836C252.739 134.135 252.408 132.336 252.408 130.438V129.417C252.408 127.287 252.703 125.318 253.294 123.509C253.885 121.683 254.762 120.09 255.926 118.729C257.09 117.368 258.549 116.312 260.303 115.56C262.058 114.79 264.099 114.405 266.426 114.405C268.485 114.405 270.329 114.736 271.958 115.399C273.588 116.061 274.966 117.01 276.094 118.246C277.24 119.481 278.108 120.976 278.699 122.73C279.308 124.485 279.612 126.454 279.612 128.639V132.318H255.872V126.651H270.777V125.953C270.795 124.986 270.625 124.163 270.267 123.482C269.926 122.802 269.425 122.283 268.763 121.925C268.1 121.567 267.295 121.388 266.346 121.388C265.361 121.388 264.546 121.603 263.902 122.032C263.275 122.462 262.783 123.053 262.425 123.805C262.085 124.539 261.843 125.389 261.7 126.356C261.556 127.323 261.485 128.343 261.485 129.417V130.438C261.485 131.512 261.628 132.488 261.915 133.365C262.219 134.243 262.649 134.994 263.204 135.621C263.777 136.23 264.457 136.704 265.245 137.044C266.05 137.385 266.963 137.555 267.984 137.555C269.219 137.555 270.437 137.322 271.636 136.856C272.836 136.391 273.865 135.621 274.725 134.547L278.833 139.435C278.243 140.276 277.401 141.091 276.309 141.878C275.235 142.666 273.946 143.311 272.442 143.812C270.938 144.295 269.255 144.537 267.393 144.537ZM297.364 144.537C295 144.537 292.888 144.17 291.026 143.436C289.164 142.684 287.588 141.655 286.299 140.348C285.028 139.041 284.052 137.537 283.372 135.836C282.71 134.135 282.378 132.336 282.378 130.438V129.417C282.378 127.287 282.674 125.318 283.265 123.509C283.855 121.683 284.733 120.09 285.896 118.729C287.06 117.368 288.519 116.312 290.274 115.56C292.028 114.79 294.069 114.405 296.397 114.405C298.456 114.405 300.3 114.736 301.929 115.399C303.558 116.061 304.937 117.01 306.065 118.246C307.211 119.481 308.079 120.976 308.67 122.73C309.279 124.485 309.583 126.454 309.583 128.639V132.318H285.843V126.651H300.748V125.953C300.765 124.986 300.595 124.163 300.237 123.482C299.897 122.802 299.396 122.283 298.733 121.925C298.071 121.567 297.265 121.388 296.316 121.388C295.332 121.388 294.517 121.603 293.873 122.032C293.246 122.462 292.754 123.053 292.396 123.805C292.055 124.539 291.814 125.389 291.67 126.356C291.527 127.323 291.456 128.343 291.456 129.417V130.438C291.456 131.512 291.599 132.488 291.885 133.365C292.19 134.243 292.619 134.994 293.174 135.621C293.747 136.23 294.428 136.704 295.215 137.044C296.021 137.385 296.934 137.555 297.955 137.555C299.19 137.555 300.407 137.322 301.607 136.856C302.806 136.391 303.836 135.621 304.695 134.547L308.804 139.435C308.213 140.276 307.372 141.091 306.28 141.878C305.206 142.666 303.917 143.311 302.413 143.812C300.909 144.295 299.226 144.537 297.364 144.537ZM329.966 137.34V102.75H339.07V144H330.906L329.966 137.34ZM312.134 129.82V129.256C312.134 127.054 312.376 125.049 312.859 123.241C313.343 121.415 314.059 119.848 315.008 118.541C315.957 117.216 317.138 116.196 318.553 115.479C319.967 114.763 321.596 114.405 323.44 114.405C325.088 114.405 326.529 114.79 327.764 115.56C329 116.312 330.056 117.368 330.933 118.729C331.81 120.09 332.527 121.683 333.082 123.509C333.637 125.318 334.057 127.269 334.344 129.364V130.035C334.057 132.005 333.637 133.867 333.082 135.621C332.527 137.358 331.81 138.897 330.933 140.24C330.056 141.583 328.991 142.639 327.737 143.409C326.502 144.161 325.052 144.537 323.387 144.537C321.543 144.537 319.913 144.17 318.499 143.436C317.103 142.702 315.93 141.673 314.981 140.348C314.05 139.023 313.343 137.465 312.859 135.675C312.376 133.884 312.134 131.933 312.134 129.82ZM321.185 129.256V129.82C321.185 130.912 321.256 131.924 321.399 132.855C321.543 133.786 321.784 134.61 322.125 135.326C322.483 136.024 322.948 136.57 323.521 136.964C324.112 137.358 324.837 137.555 325.696 137.555C326.86 137.555 327.818 137.277 328.57 136.722C329.34 136.167 329.904 135.379 330.262 134.359C330.638 133.338 330.799 132.139 330.745 130.76V128.639C330.781 127.457 330.7 126.419 330.503 125.523C330.306 124.61 329.993 123.849 329.563 123.241C329.152 122.632 328.624 122.175 327.979 121.871C327.352 121.549 326.609 121.388 325.75 121.388C324.909 121.388 324.192 121.585 323.602 121.979C323.029 122.372 322.563 122.927 322.205 123.644C321.847 124.342 321.587 125.174 321.426 126.141C321.265 127.09 321.185 128.128 321.185 129.256ZM344.28 102.75H353.331V136.856L352.391 144H344.28V102.75ZM371.163 129.149V129.713C371.163 131.915 370.939 133.92 370.491 135.729C370.044 137.537 369.354 139.103 368.423 140.428C367.492 141.735 366.32 142.747 364.905 143.463C363.491 144.179 361.817 144.537 359.883 144.537C358.129 144.537 356.625 144.161 355.372 143.409C354.118 142.639 353.071 141.583 352.229 140.24C351.388 138.88 350.708 137.313 350.188 135.541C349.669 133.75 349.257 131.834 348.953 129.793V129.122C349.257 127.099 349.669 125.201 350.188 123.429C350.708 121.638 351.388 120.072 352.229 118.729C353.071 117.368 354.109 116.312 355.345 115.56C356.598 114.79 358.093 114.405 359.83 114.405C361.781 114.405 363.464 114.772 364.878 115.506C366.311 116.24 367.492 117.27 368.423 118.595C369.354 119.92 370.044 121.477 370.491 123.268C370.939 125.058 371.163 127.018 371.163 129.149ZM362.112 129.713V129.149C362.112 128.093 362.05 127.099 361.924 126.168C361.799 125.237 361.575 124.413 361.253 123.697C360.931 122.981 360.474 122.417 359.883 122.005C359.292 121.594 358.523 121.388 357.574 121.388C356.607 121.388 355.792 121.549 355.13 121.871C354.485 122.193 353.966 122.659 353.572 123.268C353.196 123.858 352.928 124.592 352.767 125.47C352.605 126.329 352.534 127.305 352.552 128.397V130.519C352.516 132.005 352.65 133.276 352.955 134.332C353.259 135.388 353.787 136.194 354.539 136.749C355.291 137.304 356.32 137.582 357.627 137.582C358.594 137.582 359.373 137.394 359.964 137.018C360.573 136.642 361.029 136.104 361.333 135.406C361.638 134.708 361.844 133.875 361.951 132.909C362.059 131.942 362.112 130.877 362.112 129.713ZM390.284 136.695V124.718C390.284 123.894 390.167 123.187 389.935 122.596C389.702 122.005 389.335 121.549 388.833 121.227C388.332 120.886 387.661 120.716 386.819 120.716C386.139 120.716 385.557 120.833 385.074 121.065C384.59 121.298 384.223 121.647 383.973 122.113C383.722 122.578 383.597 123.169 383.597 123.885H374.546C374.546 122.542 374.842 121.298 375.433 120.152C376.041 118.989 376.901 117.977 378.011 117.118C379.139 116.258 380.481 115.596 382.039 115.13C383.615 114.647 385.369 114.405 387.303 114.405C389.612 114.405 391.671 114.79 393.479 115.56C395.306 116.33 396.747 117.485 397.803 119.024C398.86 120.546 399.388 122.462 399.388 124.771V136.668C399.388 138.566 399.495 140.007 399.71 140.992C399.925 141.959 400.229 142.809 400.623 143.543V144H391.546C391.116 143.105 390.794 142.013 390.579 140.724C390.382 139.417 390.284 138.074 390.284 136.695ZM391.385 126.249L391.438 131.083H387.437C386.596 131.083 385.879 131.199 385.289 131.432C384.716 131.664 384.25 131.987 383.892 132.398C383.552 132.792 383.301 133.24 383.14 133.741C382.997 134.243 382.925 134.771 382.925 135.326C382.925 135.863 383.051 136.346 383.301 136.776C383.57 137.188 383.928 137.51 384.375 137.743C384.823 137.975 385.324 138.092 385.879 138.092C386.882 138.092 387.732 137.904 388.431 137.528C389.147 137.134 389.693 136.66 390.069 136.104C390.445 135.549 390.633 135.03 390.633 134.547L392.62 138.253C392.262 138.969 391.85 139.694 391.385 140.428C390.937 141.162 390.373 141.843 389.693 142.469C389.03 143.078 388.216 143.579 387.249 143.973C386.282 144.349 385.11 144.537 383.731 144.537C381.941 144.537 380.293 144.17 378.79 143.436C377.304 142.702 376.113 141.681 375.218 140.375C374.323 139.05 373.875 137.528 373.875 135.809C373.875 134.305 374.144 132.962 374.681 131.781C375.236 130.599 376.068 129.597 377.178 128.773C378.288 127.949 379.703 127.323 381.421 126.893C383.14 126.463 385.163 126.249 387.491 126.249H391.385ZM416.683 137.555C417.524 137.555 418.24 137.403 418.831 137.098C419.44 136.776 419.896 136.328 420.201 135.755C420.523 135.165 420.675 134.457 420.657 133.634H429.17C429.188 135.818 428.651 137.734 427.559 139.381C426.485 141.01 425.017 142.281 423.155 143.194C421.311 144.09 419.225 144.537 416.897 144.537C414.624 144.537 412.636 144.17 410.936 143.436C409.235 142.684 407.811 141.646 406.666 140.321C405.538 138.978 404.687 137.411 404.114 135.621C403.559 133.831 403.282 131.888 403.282 129.793V129.176C403.282 127.081 403.559 125.139 404.114 123.348C404.687 121.54 405.538 119.973 406.666 118.648C407.811 117.306 409.226 116.267 410.909 115.533C412.61 114.781 414.588 114.405 416.844 114.405C419.261 114.405 421.391 114.862 423.235 115.775C425.097 116.688 426.556 118.013 427.613 119.75C428.669 121.486 429.188 123.59 429.17 126.061H420.657C420.675 125.183 420.541 124.396 420.254 123.697C419.968 122.999 419.52 122.444 418.912 122.032C418.321 121.603 417.56 121.388 416.629 121.388C415.698 121.388 414.946 121.594 414.373 122.005C413.8 122.417 413.361 122.99 413.057 123.724C412.771 124.44 412.574 125.264 412.466 126.195C412.377 127.126 412.332 128.119 412.332 129.176V129.793C412.332 130.868 412.377 131.879 412.466 132.828C412.574 133.759 412.78 134.583 413.084 135.299C413.388 135.997 413.827 136.552 414.4 136.964C414.973 137.358 415.734 137.555 416.683 137.555ZM442.168 102.723V144H433.118V102.723H442.168ZM460.752 114.942L448.13 129.74L441.524 136.346L437.576 130.599L443.082 123.429L449.903 114.942H460.752ZM451.058 144L443.296 130.76L449.983 126.007L461.424 144H451.058Z" fill="black"/>
<path d="M99.3486 55.1172V80H94.2217V55.1172H99.3486ZM114.251 55.1172L104.39 67.4048L98.6992 73.5229L97.7764 68.6694L101.622 63.4058L107.962 55.1172H114.251ZM108.423 80L101.092 68.4985L104.886 65.3198L114.49 80H108.423ZM126.146 75.8301V67.5928C126.146 67.0003 126.049 66.4933 125.855 66.0718C125.661 65.6388 125.359 65.3027 124.949 65.0635C124.55 64.8242 124.032 64.7046 123.394 64.7046C122.847 64.7046 122.374 64.8014 121.976 64.9951C121.577 65.1774 121.269 65.4451 121.053 65.7983C120.836 66.1401 120.728 66.5446 120.728 67.0117H115.806C115.806 66.2256 115.988 65.4793 116.353 64.7729C116.718 64.0666 117.247 63.4456 117.942 62.9102C118.637 62.3633 119.463 61.936 120.42 61.6284C121.389 61.3208 122.471 61.167 123.667 61.167C125.103 61.167 126.379 61.4062 127.496 61.8848C128.612 62.3633 129.489 63.0811 130.127 64.0381C130.777 64.9951 131.102 66.1914 131.102 67.627V75.5396C131.102 76.5535 131.164 77.3853 131.29 78.0347C131.415 78.6727 131.597 79.231 131.836 79.7095V80H126.863C126.624 79.4987 126.442 78.8721 126.316 78.1201C126.202 77.3568 126.146 76.5934 126.146 75.8301ZM126.795 68.7378L126.829 71.5234H124.078C123.428 71.5234 122.864 71.5975 122.386 71.7456C121.907 71.8937 121.514 72.1045 121.207 72.3779C120.899 72.64 120.671 72.9476 120.523 73.3008C120.386 73.654 120.318 74.0413 120.318 74.4629C120.318 74.8844 120.415 75.2661 120.608 75.6079C120.802 75.9383 121.081 76.2004 121.446 76.394C121.81 76.5763 122.238 76.6675 122.728 76.6675C123.468 76.6675 124.112 76.5194 124.659 76.2231C125.206 75.9269 125.627 75.5623 125.923 75.1294C126.231 74.6965 126.39 74.2863 126.402 73.8989L127.701 75.9839C127.518 76.451 127.268 76.9352 126.949 77.4365C126.641 77.9378 126.248 78.4106 125.77 78.855C125.291 79.2879 124.716 79.6468 124.043 79.9316C123.371 80.2051 122.574 80.3418 121.651 80.3418C120.477 80.3418 119.412 80.1082 118.455 79.6411C117.509 79.1626 116.757 78.5075 116.199 77.6758C115.652 76.8327 115.379 75.8757 115.379 74.8047C115.379 73.8363 115.561 72.9761 115.926 72.2241C116.29 71.4722 116.826 70.8398 117.532 70.3271C118.25 69.8031 119.144 69.41 120.215 69.1479C121.286 68.8745 122.528 68.7378 123.941 68.7378H126.795ZM139.817 65.542V80H134.896V61.5088H139.527L139.817 65.542ZM145.389 61.3892L145.303 65.9521C145.064 65.918 144.773 65.8895 144.432 65.8667C144.101 65.8325 143.799 65.8154 143.526 65.8154C142.831 65.8154 142.227 65.9066 141.714 66.0889C141.213 66.2598 140.792 66.5161 140.45 66.8579C140.119 67.1997 139.869 67.6156 139.698 68.1055C139.538 68.5954 139.447 69.1536 139.424 69.7803L138.433 69.4727C138.433 68.2764 138.553 67.1769 138.792 66.1743C139.031 65.1603 139.379 64.2773 139.834 63.5254C140.302 62.7734 140.871 62.1924 141.543 61.7822C142.216 61.3721 142.985 61.167 143.851 61.167C144.124 61.167 144.403 61.1898 144.688 61.2354C144.973 61.2695 145.206 61.3208 145.389 61.3892ZM157.112 75.8301V67.5928C157.112 67.0003 157.015 66.4933 156.822 66.0718C156.628 65.6388 156.326 65.3027 155.916 65.0635C155.517 64.8242 154.999 64.7046 154.361 64.7046C153.814 64.7046 153.341 64.8014 152.942 64.9951C152.544 65.1774 152.236 65.4451 152.02 65.7983C151.803 66.1401 151.695 66.5446 151.695 67.0117H146.773C146.773 66.2256 146.955 65.4793 147.32 64.7729C147.684 64.0666 148.214 63.4456 148.909 62.9102C149.604 62.3633 150.43 61.936 151.387 61.6284C152.356 61.3208 153.438 61.167 154.634 61.167C156.07 61.167 157.346 61.4062 158.462 61.8848C159.579 62.3633 160.456 63.0811 161.094 64.0381C161.744 64.9951 162.068 66.1914 162.068 67.627V75.5396C162.068 76.5535 162.131 77.3853 162.256 78.0347C162.382 78.6727 162.564 79.231 162.803 79.7095V80H157.83C157.591 79.4987 157.409 78.8721 157.283 78.1201C157.169 77.3568 157.112 76.5934 157.112 75.8301ZM157.762 68.7378L157.796 71.5234H155.044C154.395 71.5234 153.831 71.5975 153.353 71.7456C152.874 71.8937 152.481 72.1045 152.173 72.3779C151.866 72.64 151.638 72.9476 151.49 73.3008C151.353 73.654 151.285 74.0413 151.285 74.4629C151.285 74.8844 151.382 75.2661 151.575 75.6079C151.769 75.9383 152.048 76.2004 152.413 76.394C152.777 76.5763 153.204 76.6675 153.694 76.6675C154.435 76.6675 155.079 76.5194 155.625 76.2231C156.172 75.9269 156.594 75.5623 156.89 75.1294C157.198 74.6965 157.357 74.2863 157.369 73.8989L158.667 75.9839C158.485 76.451 158.235 76.9352 157.916 77.4365C157.608 77.9378 157.215 78.4106 156.736 78.855C156.258 79.2879 155.682 79.6468 155.01 79.9316C154.338 80.2051 153.541 80.3418 152.618 80.3418C151.444 80.3418 150.379 80.1082 149.422 79.6411C148.476 79.1626 147.724 78.5075 147.166 77.6758C146.619 76.8327 146.346 75.8757 146.346 74.8047C146.346 73.8363 146.528 72.9761 146.893 72.2241C147.257 71.4722 147.793 70.8398 148.499 70.3271C149.217 69.8031 150.111 69.41 151.182 69.1479C152.253 68.8745 153.495 68.7378 154.908 68.7378H157.762ZM170.784 65.3369V80H165.845V61.5088H170.477L170.784 65.3369ZM170.101 70.105H168.733C168.733 68.8175 168.887 67.6326 169.195 66.5503C169.514 65.4565 169.975 64.5109 170.579 63.7134C171.194 62.9045 171.952 62.2778 172.852 61.8335C173.752 61.3892 174.795 61.167 175.979 61.167C176.8 61.167 177.552 61.2923 178.235 61.543C178.919 61.7822 179.506 62.1639 179.996 62.688C180.497 63.2007 180.884 63.8729 181.158 64.7046C181.431 65.5249 181.568 66.5104 181.568 67.6611V80H176.646V68.208C176.646 67.3649 176.532 66.7155 176.304 66.2598C176.076 65.804 175.752 65.485 175.33 65.3027C174.92 65.1204 174.424 65.0293 173.843 65.0293C173.205 65.0293 172.647 65.1603 172.168 65.4224C171.701 65.6844 171.314 66.049 171.006 66.5161C170.699 66.9718 170.471 67.5073 170.323 68.1226C170.175 68.7378 170.101 69.3986 170.101 70.105ZM181.106 69.541L179.346 69.7632C179.346 68.5555 179.494 67.4333 179.791 66.3965C180.098 65.3597 180.548 64.4482 181.141 63.6621C181.744 62.876 182.491 62.2664 183.379 61.8335C184.268 61.3892 185.293 61.167 186.456 61.167C187.344 61.167 188.153 61.298 188.882 61.5601C189.611 61.8107 190.232 62.2152 190.745 62.7734C191.269 63.3203 191.668 64.0381 191.941 64.9268C192.226 65.8154 192.369 66.9035 192.369 68.1909V80H187.43V68.1909C187.43 67.3364 187.316 66.687 187.088 66.2427C186.871 65.7869 186.552 65.4736 186.131 65.3027C185.721 65.1204 185.231 65.0293 184.661 65.0293C184.069 65.0293 183.55 65.1489 183.106 65.3882C182.662 65.616 182.291 65.9351 181.995 66.3452C181.699 66.7554 181.477 67.2339 181.329 67.7808C181.181 68.3162 181.106 68.903 181.106 69.541ZM215.32 59.3726L208.553 80H203.101L212.347 55.1172H215.816L215.32 59.3726ZM220.943 80L214.158 59.3726L213.611 55.1172H217.115L226.412 80H220.943ZM220.635 70.7373V74.7534H207.493V70.7373H220.635ZM233.606 53.75V80H228.667V53.75H233.606ZM256.814 59.3726L250.047 80H244.595L253.841 55.1172H257.31L256.814 59.3726ZM262.437 80L255.652 59.3726L255.105 55.1172H258.609L267.906 80H262.437ZM262.129 70.7373V74.7534H248.987V70.7373H262.129ZM279.903 74.8901C279.903 74.5369 279.8 74.2179 279.595 73.9331C279.39 73.6483 279.008 73.3862 278.45 73.147C277.903 72.8963 277.111 72.6685 276.075 72.4634C275.14 72.2583 274.269 72.002 273.46 71.6943C272.662 71.3753 271.967 70.9937 271.375 70.5493C270.794 70.105 270.338 69.5809 270.008 68.9771C269.677 68.3618 269.512 67.6611 269.512 66.875C269.512 66.1003 269.677 65.3711 270.008 64.6875C270.35 64.0039 270.834 63.4001 271.46 62.876C272.098 62.3405 272.873 61.9246 273.785 61.6284C274.708 61.3208 275.744 61.167 276.895 61.167C278.501 61.167 279.88 61.4233 281.031 61.936C282.193 62.4487 283.082 63.1551 283.697 64.0552C284.323 64.9438 284.637 65.9578 284.637 67.0972H279.715C279.715 66.6187 279.612 66.1914 279.407 65.8154C279.214 65.4281 278.906 65.1261 278.484 64.9097C278.074 64.6818 277.539 64.5679 276.878 64.5679C276.331 64.5679 275.858 64.6647 275.459 64.8584C275.061 65.0407 274.753 65.2913 274.537 65.6104C274.332 65.918 274.229 66.2598 274.229 66.6357C274.229 66.9206 274.286 67.1769 274.4 67.4048C274.525 67.6213 274.725 67.8206 274.998 68.0029C275.271 68.1852 275.625 68.3561 276.058 68.5156C276.502 68.6637 277.049 68.8005 277.698 68.9258C279.031 69.1992 280.222 69.5581 281.27 70.0024C282.318 70.4354 283.15 71.0278 283.765 71.7798C284.38 72.5203 284.688 73.4945 284.688 74.7021C284.688 75.5225 284.506 76.2744 284.141 76.958C283.777 77.6416 283.252 78.2397 282.569 78.7524C281.885 79.2537 281.065 79.6468 280.108 79.9316C279.162 80.2051 278.097 80.3418 276.912 80.3418C275.192 80.3418 273.733 80.0342 272.537 79.4189C271.352 78.8037 270.452 78.0233 269.837 77.0776C269.233 76.1206 268.931 75.1408 268.931 74.1382H273.597C273.619 74.8104 273.79 75.3516 274.109 75.7617C274.44 76.1719 274.856 76.4681 275.357 76.6504C275.87 76.8327 276.422 76.9238 277.015 76.9238C277.653 76.9238 278.182 76.8384 278.604 76.6675C279.026 76.4852 279.345 76.2459 279.561 75.9497C279.789 75.6421 279.903 75.2889 279.903 74.8901ZM292.686 53.75V80H287.764V53.75H292.686ZM291.985 70.105H290.635C290.647 68.8175 290.818 67.6326 291.148 66.5503C291.478 65.4565 291.951 64.5109 292.566 63.7134C293.182 62.9045 293.917 62.2778 294.771 61.8335C295.637 61.3892 296.594 61.167 297.642 61.167C298.554 61.167 299.38 61.298 300.12 61.5601C300.872 61.8107 301.516 62.2209 302.051 62.7905C302.598 63.3488 303.02 64.0837 303.316 64.9951C303.612 65.9066 303.76 67.0117 303.76 68.3105V80H298.804V68.2764C298.804 67.4561 298.685 66.8123 298.445 66.3452C298.217 65.8667 297.881 65.5306 297.437 65.3369C297.004 65.1318 296.469 65.0293 295.831 65.0293C295.124 65.0293 294.52 65.1603 294.019 65.4224C293.529 65.6844 293.136 66.049 292.84 66.5161C292.544 66.9718 292.327 67.5073 292.19 68.1226C292.054 68.7378 291.985 69.3986 291.985 70.105ZM312.425 53.7329V80H307.503V53.7329H312.425ZM324.08 61.5088L316.048 70.6689L311.741 75.0269L309.947 71.4722L313.365 67.1313L318.167 61.5088H324.08ZM318.97 80L313.501 71.4551L316.902 68.4814L324.644 80H318.97ZM336.18 75.8301V67.5928C336.18 67.0003 336.083 66.4933 335.889 66.0718C335.695 65.6388 335.394 65.3027 334.983 65.0635C334.585 64.8242 334.066 64.7046 333.428 64.7046C332.881 64.7046 332.409 64.8014 332.01 64.9951C331.611 65.1774 331.303 65.4451 331.087 65.7983C330.87 66.1401 330.762 66.5446 330.762 67.0117H325.84C325.84 66.2256 326.023 65.4793 326.387 64.7729C326.752 64.0666 327.282 63.4456 327.977 62.9102C328.672 62.3633 329.498 61.936 330.455 61.6284C331.423 61.3208 332.505 61.167 333.702 61.167C335.137 61.167 336.413 61.4062 337.53 61.8848C338.646 62.3633 339.524 63.0811 340.162 64.0381C340.811 64.9951 341.136 66.1914 341.136 67.627V75.5396C341.136 76.5535 341.198 77.3853 341.324 78.0347C341.449 78.6727 341.631 79.231 341.871 79.7095V80H336.897C336.658 79.4987 336.476 78.8721 336.351 78.1201C336.237 77.3568 336.18 76.5934 336.18 75.8301ZM336.829 68.7378L336.863 71.5234H334.112C333.462 71.5234 332.898 71.5975 332.42 71.7456C331.941 71.8937 331.548 72.1045 331.241 72.3779C330.933 72.64 330.705 72.9476 330.557 73.3008C330.42 73.654 330.352 74.0413 330.352 74.4629C330.352 74.8844 330.449 75.2661 330.643 75.6079C330.836 75.9383 331.115 76.2004 331.48 76.394C331.845 76.5763 332.272 76.6675 332.762 76.6675C333.502 76.6675 334.146 76.5194 334.693 76.2231C335.24 75.9269 335.661 75.5623 335.958 75.1294C336.265 74.6965 336.425 74.2863 336.436 73.8989L337.735 75.9839C337.553 76.451 337.302 76.9352 336.983 77.4365C336.675 77.9378 336.282 78.4106 335.804 78.855C335.325 79.2879 334.75 79.6468 334.078 79.9316C333.405 80.2051 332.608 80.3418 331.685 80.3418C330.512 80.3418 329.446 80.1082 328.489 79.6411C327.544 79.1626 326.792 78.5075 326.233 77.6758C325.687 76.8327 325.413 75.8757 325.413 74.8047C325.413 73.8363 325.595 72.9761 325.96 72.2241C326.325 71.4722 326.86 70.8398 327.566 70.3271C328.284 69.8031 329.179 69.41 330.25 69.1479C331.32 68.8745 332.562 68.7378 333.975 68.7378H336.829ZM349.852 65.542V80H344.93V61.5088H349.561L349.852 65.542ZM355.423 61.3892L355.337 65.9521C355.098 65.918 354.808 65.8895 354.466 65.8667C354.135 65.8325 353.833 65.8154 353.56 65.8154C352.865 65.8154 352.261 65.9066 351.749 66.0889C351.247 66.2598 350.826 66.5161 350.484 66.8579C350.153 67.1997 349.903 67.6156 349.732 68.1055C349.572 68.5954 349.481 69.1536 349.458 69.7803L348.467 69.4727C348.467 68.2764 348.587 67.1769 348.826 66.1743C349.065 65.1603 349.413 64.2773 349.869 63.5254C350.336 62.7734 350.905 62.1924 351.578 61.7822C352.25 61.3721 353.019 61.167 353.885 61.167C354.158 61.167 354.437 61.1898 354.722 61.2354C355.007 61.2695 355.241 61.3208 355.423 61.3892Z" fill="#888888"/>
<rect x="92" y="181" width="1179" height="80" rx="13.3333" fill="#CCCCCC"/>
<rect x="107" y="196.333" width="208" height="49.3333" rx="4.66667" fill="#888888" stroke="#888888" stroke-width="4"/>
<path d="M171.823 213.167H177.792C178.958 213.167 179.972 213.34 180.833 213.687C181.694 214.035 182.358 214.549 182.823 215.229C183.295 215.91 183.531 216.75 183.531 217.75C183.531 218.618 183.396 219.344 183.125 219.927C182.854 220.51 182.476 220.993 181.99 221.375C181.51 221.75 180.951 222.059 180.312 222.302L179.115 222.979H174.104L174.083 220.156H177.792C178.257 220.156 178.642 220.073 178.948 219.906C179.253 219.74 179.483 219.503 179.635 219.198C179.795 218.885 179.875 218.514 179.875 218.083C179.875 217.646 179.795 217.271 179.635 216.958C179.476 216.646 179.24 216.406 178.927 216.24C178.622 216.073 178.243 215.99 177.792 215.99H175.479V228.333H171.823V213.167ZM180.125 228.333L176.771 221.625L180.646 221.604L184.042 228.177V228.333H180.125ZM191.031 228.542C190.115 228.542 189.295 228.399 188.573 228.115C187.851 227.823 187.24 227.424 186.74 226.917C186.247 226.41 185.868 225.826 185.604 225.167C185.347 224.507 185.219 223.809 185.219 223.073V222.677C185.219 221.851 185.333 221.087 185.562 220.385C185.792 219.677 186.132 219.059 186.583 218.531C187.035 218.003 187.601 217.594 188.281 217.302C188.962 217.003 189.753 216.854 190.656 216.854C191.455 216.854 192.17 216.983 192.802 217.24C193.434 217.497 193.969 217.865 194.406 218.344C194.851 218.823 195.187 219.403 195.417 220.083C195.653 220.764 195.771 221.528 195.771 222.375V223.802H186.562V221.604H192.344V221.333C192.351 220.958 192.285 220.639 192.146 220.375C192.014 220.111 191.819 219.91 191.562 219.771C191.306 219.632 190.993 219.562 190.625 219.562C190.243 219.562 189.927 219.646 189.677 219.812C189.434 219.979 189.243 220.208 189.104 220.5C188.972 220.785 188.878 221.115 188.823 221.49C188.767 221.865 188.74 222.26 188.74 222.677V223.073C188.74 223.49 188.795 223.868 188.906 224.208C189.024 224.549 189.191 224.84 189.406 225.083C189.628 225.319 189.892 225.503 190.198 225.635C190.51 225.767 190.865 225.833 191.26 225.833C191.74 225.833 192.212 225.743 192.677 225.562C193.142 225.382 193.542 225.083 193.875 224.667L195.469 226.562C195.24 226.889 194.913 227.205 194.49 227.51C194.073 227.816 193.573 228.066 192.99 228.26C192.406 228.448 191.753 228.542 191.031 228.542ZM203.052 225.5V220.854C203.052 220.535 203.007 220.26 202.917 220.031C202.826 219.802 202.684 219.625 202.49 219.5C202.295 219.368 202.035 219.302 201.708 219.302C201.444 219.302 201.219 219.347 201.031 219.437C200.844 219.528 200.701 219.663 200.604 219.844C200.507 220.024 200.458 220.253 200.458 220.531H196.948C196.948 220.01 197.062 219.528 197.292 219.083C197.528 218.632 197.861 218.24 198.292 217.906C198.729 217.573 199.25 217.316 199.854 217.135C200.465 216.948 201.146 216.854 201.896 216.854C202.792 216.854 203.59 217.003 204.292 217.302C205 217.601 205.559 218.049 205.969 218.646C206.378 219.236 206.583 219.979 206.583 220.875V225.49C206.583 226.226 206.625 226.785 206.708 227.167C206.792 227.542 206.91 227.872 207.062 228.156V228.333H203.542C203.375 227.986 203.25 227.562 203.167 227.062C203.09 226.556 203.052 226.035 203.052 225.5ZM203.479 221.448L203.5 223.323H201.948C201.622 223.323 201.344 223.368 201.115 223.458C200.892 223.549 200.712 223.674 200.573 223.833C200.441 223.986 200.344 224.16 200.281 224.354C200.226 224.549 200.198 224.753 200.198 224.969C200.198 225.177 200.247 225.365 200.344 225.531C200.448 225.691 200.587 225.816 200.76 225.906C200.934 225.997 201.128 226.042 201.344 226.042C201.733 226.042 202.062 225.969 202.333 225.823C202.611 225.67 202.823 225.486 202.969 225.271C203.115 225.056 203.187 224.854 203.187 224.667L203.958 226.104C203.819 226.382 203.66 226.663 203.479 226.948C203.306 227.233 203.087 227.497 202.823 227.74C202.566 227.976 202.25 228.17 201.875 228.323C201.5 228.469 201.045 228.542 200.51 228.542C199.816 228.542 199.177 228.399 198.594 228.115C198.017 227.83 197.556 227.434 197.208 226.927C196.861 226.413 196.687 225.823 196.687 225.156C196.687 224.573 196.792 224.052 197 223.594C197.215 223.135 197.538 222.747 197.969 222.427C198.399 222.108 198.948 221.865 199.615 221.698C200.281 221.531 201.066 221.448 201.969 221.448H203.479ZM213.292 225.833C213.618 225.833 213.896 225.774 214.125 225.656C214.361 225.531 214.538 225.358 214.656 225.135C214.781 224.906 214.84 224.632 214.833 224.312H218.135C218.142 225.16 217.934 225.903 217.51 226.542C217.094 227.174 216.524 227.667 215.802 228.021C215.087 228.368 214.278 228.542 213.375 228.542C212.493 228.542 211.722 228.399 211.062 228.115C210.403 227.823 209.851 227.42 209.406 226.906C208.969 226.385 208.639 225.778 208.417 225.083C208.201 224.389 208.094 223.635 208.094 222.823V222.583C208.094 221.771 208.201 221.017 208.417 220.323C208.639 219.622 208.969 219.014 209.406 218.5C209.851 217.979 210.399 217.576 211.052 217.292C211.712 217 212.479 216.854 213.354 216.854C214.292 216.854 215.118 217.031 215.833 217.385C216.556 217.74 217.122 218.253 217.531 218.927C217.941 219.601 218.142 220.417 218.135 221.375H214.833C214.84 221.035 214.788 220.729 214.677 220.458C214.566 220.187 214.392 219.972 214.156 219.812C213.927 219.646 213.632 219.562 213.271 219.562C212.91 219.562 212.618 219.642 212.396 219.802C212.174 219.962 212.003 220.184 211.885 220.469C211.774 220.747 211.698 221.066 211.656 221.427C211.622 221.788 211.604 222.174 211.604 222.583V222.823C211.604 223.24 211.622 223.632 211.656 224C211.698 224.361 211.778 224.681 211.896 224.958C212.014 225.229 212.184 225.444 212.406 225.604C212.628 225.757 212.924 225.833 213.292 225.833ZM225.573 217.062V219.5H218.781V217.062H225.573ZM220.208 214.26H223.719V224.656C223.719 224.955 223.753 225.187 223.823 225.354C223.892 225.514 224.01 225.628 224.177 225.698C224.351 225.76 224.58 225.792 224.865 225.792C225.066 225.792 225.233 225.788 225.365 225.781C225.497 225.767 225.622 225.75 225.74 225.729V228.24C225.441 228.337 225.128 228.41 224.802 228.458C224.476 228.514 224.128 228.542 223.76 228.542C223.01 228.542 222.368 228.424 221.833 228.187C221.306 227.951 220.903 227.58 220.625 227.073C220.347 226.566 220.208 225.906 220.208 225.094V214.26ZM233.167 223.573V213.167H236.812V223.573C236.812 224.587 236.58 225.465 236.115 226.208C235.656 226.951 235.031 227.528 234.24 227.937C233.455 228.34 232.573 228.542 231.594 228.542C230.58 228.542 229.677 228.372 228.885 228.031C228.101 227.691 227.483 227.167 227.031 226.458C226.587 225.75 226.365 224.847 226.365 223.75H230.031C230.031 224.264 230.09 224.667 230.208 224.958C230.326 225.243 230.5 225.444 230.729 225.562C230.965 225.674 231.253 225.729 231.594 225.729C231.927 225.729 232.208 225.646 232.437 225.479C232.674 225.306 232.854 225.059 232.979 224.74C233.104 224.413 233.167 224.024 233.167 223.573ZM246.948 224.302C246.948 224.066 246.913 223.854 246.844 223.667C246.774 223.472 246.646 223.292 246.458 223.125C246.271 222.958 246 222.792 245.646 222.625C245.299 222.451 244.84 222.271 244.271 222.083C243.604 221.861 242.962 221.611 242.344 221.333C241.726 221.049 241.174 220.719 240.687 220.344C240.201 219.962 239.816 219.517 239.531 219.01C239.247 218.497 239.104 217.899 239.104 217.219C239.104 216.566 239.25 215.979 239.542 215.458C239.833 214.931 240.24 214.483 240.76 214.115C241.288 213.74 241.906 213.455 242.615 213.26C243.323 213.059 244.097 212.958 244.937 212.958C246.049 212.958 247.028 213.153 247.875 213.542C248.729 213.924 249.396 214.469 249.875 215.177C250.361 215.878 250.604 216.708 250.604 217.667H246.969C246.969 217.285 246.889 216.948 246.729 216.656C246.576 216.365 246.344 216.135 246.031 215.969C245.719 215.802 245.326 215.719 244.854 215.719C244.396 215.719 244.01 215.788 243.698 215.927C243.385 216.066 243.149 216.253 242.99 216.49C242.83 216.719 242.75 216.972 242.75 217.25C242.75 217.479 242.812 217.687 242.937 217.875C243.069 218.056 243.253 218.226 243.49 218.385C243.733 218.545 244.024 218.698 244.365 218.844C244.712 218.99 245.101 219.132 245.531 219.271C246.337 219.528 247.052 219.816 247.677 220.135C248.309 220.448 248.84 220.806 249.271 221.208C249.708 221.604 250.038 222.056 250.26 222.562C250.49 223.069 250.604 223.642 250.604 224.281C250.604 224.962 250.472 225.566 250.208 226.094C249.944 226.622 249.566 227.069 249.073 227.437C248.58 227.799 247.99 228.073 247.302 228.26C246.615 228.448 245.847 228.542 245 228.542C244.222 228.542 243.455 228.444 242.698 228.25C241.948 228.049 241.267 227.743 240.656 227.333C240.045 226.917 239.556 226.385 239.187 225.74C238.826 225.087 238.646 224.312 238.646 223.417H242.312C242.312 223.861 242.372 224.236 242.49 224.542C242.608 224.847 242.781 225.094 243.01 225.281C243.24 225.462 243.521 225.594 243.854 225.677C244.187 225.753 244.569 225.792 245 225.792C245.465 225.792 245.84 225.726 246.125 225.594C246.41 225.455 246.618 225.274 246.75 225.052C246.882 224.823 246.948 224.573 246.948 224.302Z" fill="white"/>
<rect x="339" y="196.333" width="208" height="49.3333" rx="4.66667" fill="#888888" stroke="#888888" stroke-width="4"/>
<path d="M382.833 213.167H388.802C389.969 213.167 390.983 213.34 391.844 213.687C392.705 214.035 393.368 214.549 393.833 215.229C394.306 215.91 394.542 216.75 394.542 217.75C394.542 218.618 394.406 219.344 394.135 219.927C393.865 220.51 393.486 220.993 393 221.375C392.521 221.75 391.962 222.059 391.323 222.302L390.125 222.979H385.115L385.094 220.156H388.802C389.267 220.156 389.653 220.073 389.958 219.906C390.264 219.74 390.493 219.503 390.646 219.198C390.806 218.885 390.885 218.514 390.885 218.083C390.885 217.646 390.806 217.271 390.646 216.958C390.486 216.646 390.25 216.406 389.937 216.24C389.632 216.073 389.253 215.99 388.802 215.99H386.49V228.333H382.833V213.167ZM391.135 228.333L387.781 221.625L391.656 221.604L395.052 228.177V228.333H391.135ZM402.042 228.542C401.125 228.542 400.306 228.399 399.583 228.115C398.861 227.823 398.25 227.424 397.75 226.917C397.257 226.41 396.878 225.826 396.615 225.167C396.358 224.507 396.229 223.809 396.229 223.073V222.677C396.229 221.851 396.344 221.087 396.573 220.385C396.802 219.677 397.142 219.059 397.594 218.531C398.045 218.003 398.611 217.594 399.292 217.302C399.972 217.003 400.764 216.854 401.667 216.854C402.465 216.854 403.181 216.983 403.813 217.24C404.444 217.497 404.979 217.865 405.417 218.344C405.861 218.823 406.198 219.403 406.427 220.083C406.663 220.764 406.781 221.528 406.781 222.375V223.802H397.573V221.604H403.354V221.333C403.361 220.958 403.295 220.639 403.156 220.375C403.024 220.111 402.83 219.91 402.573 219.771C402.316 219.632 402.003 219.562 401.635 219.562C401.253 219.562 400.938 219.646 400.688 219.812C400.444 219.979 400.253 220.208 400.115 220.5C399.983 220.785 399.889 221.115 399.833 221.49C399.778 221.865 399.75 222.26 399.75 222.677V223.073C399.75 223.49 399.806 223.868 399.917 224.208C400.035 224.549 400.201 224.84 400.417 225.083C400.639 225.319 400.903 225.503 401.208 225.635C401.521 225.767 401.875 225.833 402.271 225.833C402.75 225.833 403.222 225.743 403.688 225.562C404.153 225.382 404.552 225.083 404.885 224.667L406.479 226.562C406.25 226.889 405.924 227.205 405.5 227.51C405.083 227.816 404.583 228.066 404 228.26C403.417 228.448 402.764 228.542 402.042 228.542ZM414.063 225.5V220.854C414.063 220.535 414.017 220.26 413.927 220.031C413.837 219.802 413.694 219.625 413.5 219.5C413.306 219.368 413.045 219.302 412.719 219.302C412.455 219.302 412.229 219.347 412.042 219.437C411.854 219.528 411.712 219.663 411.615 219.844C411.517 220.024 411.469 220.253 411.469 220.531H407.958C407.958 220.01 408.073 219.528 408.302 219.083C408.538 218.632 408.872 218.24 409.302 217.906C409.74 217.573 410.26 217.316 410.865 217.135C411.476 216.948 412.156 216.854 412.906 216.854C413.802 216.854 414.601 217.003 415.302 217.302C416.01 217.601 416.569 218.049 416.979 218.646C417.389 219.236 417.594 219.979 417.594 220.875V225.49C417.594 226.226 417.635 226.785 417.719 227.167C417.802 227.542 417.92 227.872 418.073 228.156V228.333H414.552C414.385 227.986 414.26 227.562 414.177 227.062C414.101 226.556 414.063 226.035 414.063 225.5ZM414.49 221.448L414.51 223.323H412.958C412.632 223.323 412.354 223.368 412.125 223.458C411.903 223.549 411.722 223.674 411.583 223.833C411.451 223.986 411.354 224.16 411.292 224.354C411.236 224.549 411.208 224.753 411.208 224.969C411.208 225.177 411.257 225.365 411.354 225.531C411.458 225.691 411.597 225.816 411.771 225.906C411.944 225.997 412.139 226.042 412.354 226.042C412.743 226.042 413.073 225.969 413.344 225.823C413.622 225.67 413.833 225.486 413.979 225.271C414.125 225.056 414.198 224.854 414.198 224.667L414.969 226.104C414.83 226.382 414.67 226.663 414.49 226.948C414.316 227.233 414.097 227.497 413.833 227.74C413.576 227.976 413.26 228.17 412.885 228.323C412.51 228.469 412.056 228.542 411.521 228.542C410.826 228.542 410.188 228.399 409.604 228.115C409.028 227.83 408.566 227.434 408.219 226.927C407.872 226.413 407.698 225.823 407.698 225.156C407.698 224.573 407.802 224.052 408.01 223.594C408.226 223.135 408.549 222.747 408.979 222.427C409.41 222.108 409.958 221.865 410.625 221.698C411.292 221.531 412.076 221.448 412.979 221.448H414.49ZM424.302 225.833C424.628 225.833 424.906 225.774 425.135 225.656C425.372 225.531 425.549 225.358 425.667 225.135C425.792 224.906 425.851 224.632 425.844 224.312H429.146C429.153 225.16 428.944 225.903 428.521 226.542C428.104 227.174 427.535 227.667 426.812 228.021C426.097 228.368 425.288 228.542 424.385 228.542C423.503 228.542 422.733 228.399 422.073 228.115C421.413 227.823 420.861 227.42 420.417 226.906C419.979 226.385 419.649 225.778 419.427 225.083C419.212 224.389 419.104 223.635 419.104 222.823V222.583C419.104 221.771 419.212 221.017 419.427 220.323C419.649 219.622 419.979 219.014 420.417 218.5C420.861 217.979 421.41 217.576 422.062 217.292C422.722 217 423.49 216.854 424.365 216.854C425.302 216.854 426.128 217.031 426.844 217.385C427.566 217.74 428.132 218.253 428.542 218.927C428.951 219.601 429.153 220.417 429.146 221.375H425.844C425.851 221.035 425.799 220.729 425.687 220.458C425.576 220.187 425.403 219.972 425.167 219.812C424.937 219.646 424.642 219.562 424.281 219.562C423.92 219.562 423.628 219.642 423.406 219.802C423.184 219.962 423.014 220.184 422.896 220.469C422.785 220.747 422.708 221.066 422.667 221.427C422.632 221.788 422.615 222.174 422.615 222.583V222.823C422.615 223.24 422.632 223.632 422.667 224C422.708 224.361 422.788 224.681 422.906 224.958C423.024 225.229 423.194 225.444 423.417 225.604C423.639 225.757 423.934 225.833 424.302 225.833ZM436.583 217.062V219.5H429.792V217.062H436.583ZM431.219 214.26H434.729V224.656C434.729 224.955 434.764 225.187 434.833 225.354C434.903 225.514 435.021 225.628 435.188 225.698C435.361 225.76 435.59 225.792 435.875 225.792C436.076 225.792 436.243 225.788 436.375 225.781C436.507 225.767 436.632 225.75 436.75 225.729V228.24C436.451 228.337 436.139 228.41 435.813 228.458C435.486 228.514 435.139 228.542 434.771 228.542C434.021 228.542 433.378 228.424 432.844 228.187C432.316 227.951 431.913 227.58 431.635 227.073C431.358 226.566 431.219 225.906 431.219 225.094V214.26ZM456.125 213.167V228.333H452.479L447.115 218.896V228.333H443.458V213.167H447.115L452.479 222.604V213.167H456.125ZM464.125 225.5V220.854C464.125 220.535 464.08 220.26 463.99 220.031C463.899 219.802 463.757 219.625 463.563 219.5C463.368 219.368 463.108 219.302 462.781 219.302C462.517 219.302 462.292 219.347 462.104 219.437C461.917 219.528 461.774 219.663 461.677 219.844C461.58 220.024 461.531 220.253 461.531 220.531H458.021C458.021 220.01 458.135 219.528 458.365 219.083C458.601 218.632 458.934 218.24 459.365 217.906C459.802 217.573 460.323 217.316 460.927 217.135C461.538 216.948 462.219 216.854 462.969 216.854C463.865 216.854 464.663 217.003 465.365 217.302C466.073 217.601 466.632 218.049 467.042 218.646C467.451 219.236 467.656 219.979 467.656 220.875V225.49C467.656 226.226 467.698 226.785 467.781 227.167C467.865 227.542 467.983 227.872 468.135 228.156V228.333H464.615C464.448 227.986 464.323 227.562 464.24 227.062C464.163 226.556 464.125 226.035 464.125 225.5ZM464.552 221.448L464.573 223.323H463.021C462.694 223.323 462.417 223.368 462.188 223.458C461.965 223.549 461.785 223.674 461.646 223.833C461.514 223.986 461.417 224.16 461.354 224.354C461.299 224.549 461.271 224.753 461.271 224.969C461.271 225.177 461.319 225.365 461.417 225.531C461.521 225.691 461.66 225.816 461.833 225.906C462.007 225.997 462.201 226.042 462.417 226.042C462.806 226.042 463.135 225.969 463.406 225.823C463.684 225.67 463.896 225.486 464.042 225.271C464.188 225.056 464.26 224.854 464.26 224.667L465.031 226.104C464.892 226.382 464.733 226.663 464.552 226.948C464.378 227.233 464.16 227.497 463.896 227.74C463.639 227.976 463.323 228.17 462.948 228.323C462.573 228.469 462.118 228.542 461.583 228.542C460.889 228.542 460.25 228.399 459.667 228.115C459.09 227.83 458.628 227.434 458.281 226.927C457.934 226.413 457.76 225.823 457.76 225.156C457.76 224.573 457.865 224.052 458.073 223.594C458.288 223.135 458.611 222.747 459.042 222.427C459.472 222.108 460.021 221.865 460.688 221.698C461.354 221.531 462.139 221.448 463.042 221.448H464.552ZM475.542 217.062V219.5H468.75V217.062H475.542ZM470.177 214.26H473.687V224.656C473.687 224.955 473.722 225.187 473.792 225.354C473.861 225.514 473.979 225.628 474.146 225.698C474.319 225.76 474.549 225.792 474.833 225.792C475.035 225.792 475.201 225.788 475.333 225.781C475.465 225.767 475.59 225.75 475.708 225.729V228.24C475.41 228.337 475.097 228.41 474.771 228.458C474.444 228.514 474.097 228.542 473.729 228.542C472.979 228.542 472.337 228.424 471.802 228.187C471.274 227.951 470.872 227.58 470.594 227.073C470.316 226.566 470.177 225.906 470.177 225.094V214.26ZM480.646 217.062V228.333H477.125V217.062H480.646ZM476.917 214.156C476.917 213.656 477.097 213.247 477.458 212.927C477.819 212.608 478.288 212.448 478.865 212.448C479.441 212.448 479.91 212.608 480.271 212.927C480.632 213.247 480.813 213.656 480.813 214.156C480.813 214.656 480.632 215.066 480.271 215.385C479.91 215.705 479.441 215.865 478.865 215.865C478.288 215.865 477.819 215.705 477.458 215.385C477.097 215.066 476.917 214.656 476.917 214.156ZM486.875 225.927L489.094 217.062H492.792L489.104 228.333H486.917L486.875 225.927ZM485.563 217.062L487.75 225.927L487.729 228.333H485.531L481.854 217.062H485.563ZM499.146 228.542C498.229 228.542 497.41 228.399 496.688 228.115C495.965 227.823 495.354 227.424 494.854 226.917C494.361 226.41 493.983 225.826 493.719 225.167C493.462 224.507 493.333 223.809 493.333 223.073V222.677C493.333 221.851 493.448 221.087 493.677 220.385C493.906 219.677 494.247 219.059 494.698 218.531C495.149 218.003 495.715 217.594 496.396 217.302C497.076 217.003 497.868 216.854 498.771 216.854C499.569 216.854 500.285 216.983 500.917 217.24C501.549 217.497 502.083 217.865 502.521 218.344C502.965 218.823 503.302 219.403 503.531 220.083C503.767 220.764 503.885 221.528 503.885 222.375V223.802H494.677V221.604H500.458V221.333C500.465 220.958 500.399 220.639 500.26 220.375C500.128 220.111 499.934 219.91 499.677 219.771C499.42 219.632 499.108 219.562 498.74 219.562C498.358 219.562 498.042 219.646 497.792 219.812C497.549 219.979 497.358 220.208 497.219 220.5C497.087 220.785 496.993 221.115 496.938 221.49C496.882 221.865 496.854 222.26 496.854 222.677V223.073C496.854 223.49 496.91 223.868 497.021 224.208C497.139 224.549 497.306 224.84 497.521 225.083C497.743 225.319 498.007 225.503 498.313 225.635C498.625 225.767 498.979 225.833 499.375 225.833C499.854 225.833 500.326 225.743 500.792 225.562C501.257 225.382 501.656 225.083 501.99 224.667L503.583 226.562C503.354 226.889 503.028 227.205 502.604 227.51C502.188 227.816 501.688 228.066 501.104 228.26C500.521 228.448 499.868 228.542 499.146 228.542Z" fill="white"/>
<rect x="571" y="196.333" width="208" height="49.3333" rx="4.66667" fill="#888888" stroke="#888888" stroke-width="4"/>
<path d="M651.073 225.521V228.333H643.406V225.521H651.073ZM644.708 213.167V228.333H641.052V213.167H644.708ZM658.302 225.5V220.854C658.302 220.535 658.257 220.26 658.167 220.031C658.076 219.802 657.934 219.625 657.74 219.5C657.545 219.368 657.285 219.302 656.958 219.302C656.694 219.302 656.469 219.347 656.281 219.437C656.094 219.528 655.951 219.663 655.854 219.844C655.757 220.024 655.708 220.253 655.708 220.531H652.198C652.198 220.01 652.312 219.528 652.542 219.083C652.778 218.632 653.111 218.24 653.542 217.906C653.979 217.573 654.5 217.316 655.104 217.135C655.715 216.948 656.396 216.854 657.146 216.854C658.042 216.854 658.84 217.003 659.542 217.302C660.25 217.601 660.809 218.049 661.219 218.646C661.628 219.236 661.833 219.979 661.833 220.875V225.49C661.833 226.226 661.875 226.785 661.958 227.167C662.042 227.542 662.16 227.872 662.312 228.156V228.333H658.792C658.625 227.986 658.5 227.562 658.417 227.062C658.34 226.556 658.302 226.035 658.302 225.5ZM658.729 221.448L658.75 223.323H657.198C656.872 223.323 656.594 223.368 656.365 223.458C656.142 223.549 655.962 223.674 655.823 223.833C655.691 223.986 655.594 224.16 655.531 224.354C655.476 224.549 655.448 224.753 655.448 224.969C655.448 225.177 655.497 225.365 655.594 225.531C655.698 225.691 655.837 225.816 656.01 225.906C656.184 225.997 656.378 226.042 656.594 226.042C656.983 226.042 657.312 225.969 657.583 225.823C657.861 225.67 658.073 225.486 658.219 225.271C658.365 225.056 658.437 224.854 658.437 224.667L659.208 226.104C659.069 226.382 658.91 226.663 658.729 226.948C658.556 227.233 658.337 227.497 658.073 227.74C657.816 227.976 657.5 228.17 657.125 228.323C656.75 228.469 656.295 228.542 655.76 228.542C655.066 228.542 654.427 228.399 653.844 228.115C653.267 227.83 652.806 227.434 652.458 226.927C652.111 226.413 651.937 225.823 651.937 225.156C651.937 224.573 652.042 224.052 652.25 223.594C652.465 223.135 652.788 222.747 653.219 222.427C653.649 222.108 654.198 221.865 654.865 221.698C655.531 221.531 656.316 221.448 657.219 221.448H658.729ZM667.323 219.854V228.333H663.812V217.062H667.094L667.323 219.854ZM670.656 216.979L670.594 220.24C670.455 220.226 670.267 220.208 670.031 220.187C669.795 220.167 669.597 220.156 669.437 220.156C669.028 220.156 668.674 220.205 668.375 220.302C668.083 220.392 667.84 220.531 667.646 220.719C667.458 220.899 667.319 221.128 667.229 221.406C667.146 221.684 667.108 222.007 667.115 222.375L666.479 221.958C666.479 221.201 666.552 220.514 666.698 219.896C666.851 219.271 667.066 218.733 667.344 218.281C667.622 217.823 667.958 217.472 668.354 217.229C668.75 216.979 669.194 216.854 669.687 216.854C669.861 216.854 670.031 216.865 670.198 216.885C670.372 216.906 670.524 216.937 670.656 216.979ZM677.406 225.5V220.854C677.406 220.535 677.361 220.26 677.271 220.031C677.181 219.802 677.038 219.625 676.844 219.5C676.649 219.368 676.389 219.302 676.063 219.302C675.799 219.302 675.573 219.347 675.385 219.437C675.198 219.528 675.056 219.663 674.958 219.844C674.861 220.024 674.813 220.253 674.813 220.531H671.302C671.302 220.01 671.417 219.528 671.646 219.083C671.882 218.632 672.215 218.24 672.646 217.906C673.083 217.573 673.604 217.316 674.208 217.135C674.819 216.948 675.5 216.854 676.25 216.854C677.146 216.854 677.944 217.003 678.646 217.302C679.354 217.601 679.913 218.049 680.323 218.646C680.733 219.236 680.938 219.979 680.938 220.875V225.49C680.938 226.226 680.979 226.785 681.063 227.167C681.146 227.542 681.264 227.872 681.417 228.156V228.333H677.896C677.729 227.986 677.604 227.562 677.521 227.062C677.444 226.556 677.406 226.035 677.406 225.5ZM677.833 221.448L677.854 223.323H676.302C675.976 223.323 675.698 223.368 675.469 223.458C675.247 223.549 675.066 223.674 674.927 223.833C674.795 223.986 674.698 224.16 674.635 224.354C674.58 224.549 674.552 224.753 674.552 224.969C674.552 225.177 674.601 225.365 674.698 225.531C674.802 225.691 674.941 225.816 675.115 225.906C675.288 225.997 675.483 226.042 675.698 226.042C676.087 226.042 676.417 225.969 676.688 225.823C676.965 225.67 677.177 225.486 677.323 225.271C677.469 225.056 677.542 224.854 677.542 224.667L678.313 226.104C678.174 226.382 678.014 226.663 677.833 226.948C677.66 227.233 677.441 227.497 677.177 227.74C676.92 227.976 676.604 228.17 676.229 228.323C675.854 228.469 675.399 228.542 674.865 228.542C674.17 228.542 673.531 228.399 672.948 228.115C672.372 227.83 671.91 227.434 671.563 226.927C671.215 226.413 671.042 225.823 671.042 225.156C671.042 224.573 671.146 224.052 671.354 223.594C671.569 223.135 671.892 222.747 672.323 222.427C672.753 222.108 673.302 221.865 673.969 221.698C674.635 221.531 675.42 221.448 676.323 221.448H677.833ZM686.781 225.927L689 217.062H692.698L689.01 228.333H686.823L686.781 225.927ZM685.469 217.062L687.656 225.927L687.635 228.333H685.437L681.76 217.062H685.469ZM699.052 228.542C698.135 228.542 697.316 228.399 696.594 228.115C695.872 227.823 695.26 227.424 694.76 226.917C694.267 226.41 693.889 225.826 693.625 225.167C693.368 224.507 693.24 223.809 693.24 223.073V222.677C693.24 221.851 693.354 221.087 693.583 220.385C693.812 219.677 694.153 219.059 694.604 218.531C695.056 218.003 695.622 217.594 696.302 217.302C696.983 217.003 697.774 216.854 698.677 216.854C699.476 216.854 700.191 216.983 700.823 217.24C701.455 217.497 701.99 217.865 702.427 218.344C702.872 218.823 703.208 219.403 703.437 220.083C703.674 220.764 703.792 221.528 703.792 222.375V223.802H694.583V221.604H700.365V221.333C700.372 220.958 700.306 220.639 700.167 220.375C700.035 220.111 699.84 219.91 699.583 219.771C699.326 219.632 699.014 219.562 698.646 219.562C698.264 219.562 697.948 219.646 697.698 219.812C697.455 219.979 697.264 220.208 697.125 220.5C696.993 220.785 696.899 221.115 696.844 221.49C696.788 221.865 696.76 222.26 696.76 222.677V223.073C696.76 223.49 696.816 223.868 696.927 224.208C697.045 224.549 697.212 224.84 697.427 225.083C697.649 225.319 697.913 225.503 698.219 225.635C698.531 225.767 698.885 225.833 699.281 225.833C699.76 225.833 700.233 225.743 700.698 225.562C701.163 225.382 701.562 225.083 701.896 224.667L703.49 226.562C703.26 226.889 702.934 227.205 702.51 227.51C702.094 227.816 701.594 228.066 701.01 228.26C700.427 228.448 699.774 228.542 699.052 228.542ZM708.927 212.333V228.333H705.406V212.333H708.927Z" fill="white"/>
</svg>
