<svg width="1363" height="167" viewBox="0 0 1363 167" fill="none" xmlns="http://www.w3.org/2000/svg">
<rect width="1363" height="167" rx="15" fill="#F0F0F0"/>
<path d="M0 15C0 6.71573 6.71573 0 15 0H37V167H15C6.71573 167 0 160.284 0 152V15Z" fill="#424241"/>
<path d="M100.906 54.9219L93.3945 52.2383V49.0859L103.602 53.375V55.6367L100.906 54.9219ZM93.3945 57.1719L100.918 54.4297L103.602 53.7852V56.0352L93.3945 60.3242V57.1719ZM114.242 44.9375L117.805 52.7188L121.367 44.9375H125.199L119.586 55.7891V62H116.023V55.7891L110.398 44.9375H114.242ZM125.234 55.7891V55.543C125.234 54.6133 125.367 53.7578 125.633 52.9766C125.898 52.1875 126.285 51.5039 126.793 50.9258C127.301 50.3477 127.926 49.8984 128.668 49.5781C129.41 49.25 130.262 49.0859 131.223 49.0859C132.184 49.0859 133.039 49.25 133.789 49.5781C134.539 49.8984 135.168 50.3477 135.676 50.9258C136.191 51.5039 136.582 52.1875 136.848 52.9766C137.113 53.7578 137.246 54.6133 137.246 55.543V55.7891C137.246 56.7109 137.113 57.5664 136.848 58.3555C136.582 59.1367 136.191 59.8203 135.676 60.4062C135.168 60.9844 134.543 61.4336 133.801 61.7539C133.059 62.0742 132.207 62.2344 131.246 62.2344C130.285 62.2344 129.43 62.0742 128.68 61.7539C127.938 61.4336 127.309 60.9844 126.793 60.4062C126.285 59.8203 125.898 59.1367 125.633 58.3555C125.367 57.5664 125.234 56.7109 125.234 55.7891ZM128.609 55.543V55.7891C128.609 56.3203 128.656 56.8164 128.75 57.2773C128.844 57.7383 128.992 58.1445 129.195 58.4961C129.406 58.8398 129.68 59.1094 130.016 59.3047C130.352 59.5 130.762 59.5977 131.246 59.5977C131.715 59.5977 132.117 59.5 132.453 59.3047C132.789 59.1094 133.059 58.8398 133.262 58.4961C133.465 58.1445 133.613 57.7383 133.707 57.2773C133.809 56.8164 133.859 56.3203 133.859 55.7891V55.543C133.859 55.0273 133.809 54.543 133.707 54.0898C133.613 53.6289 133.461 53.2227 133.25 52.8711C133.047 52.5117 132.777 52.2305 132.441 52.0273C132.105 51.8242 131.699 51.7227 131.223 51.7227C130.746 51.7227 130.34 51.8242 130.004 52.0273C129.676 52.2305 129.406 52.5117 129.195 52.8711C128.992 53.2227 128.844 53.6289 128.75 54.0898C128.656 54.543 128.609 55.0273 128.609 55.543ZM146.82 58.9648V49.3203H150.195V62H147.02L146.82 58.9648ZM147.195 56.3633L148.191 56.3398C148.191 57.1836 148.094 57.9688 147.898 58.6953C147.703 59.4141 147.41 60.0391 147.02 60.5703C146.629 61.0938 146.137 61.5039 145.543 61.8008C144.949 62.0898 144.25 62.2344 143.445 62.2344C142.828 62.2344 142.258 62.1484 141.734 61.9766C141.219 61.7969 140.773 61.5195 140.398 61.1445C140.031 60.7617 139.742 60.2734 139.531 59.6797C139.328 59.0781 139.227 58.3555 139.227 57.5117V49.3203H142.602V57.5352C142.602 57.9102 142.645 58.2266 142.73 58.4844C142.824 58.7422 142.953 58.9531 143.117 59.1172C143.281 59.2812 143.473 59.3984 143.691 59.4688C143.918 59.5391 144.168 59.5742 144.441 59.5742C145.137 59.5742 145.684 59.4336 146.082 59.1523C146.488 58.8711 146.773 58.4883 146.938 58.0039C147.109 57.5117 147.195 56.9648 147.195 56.3633ZM156.148 52.0859V62H152.773V49.3203H155.949L156.148 52.0859ZM159.969 49.2383L159.91 52.3672C159.746 52.3438 159.547 52.3242 159.312 52.3086C159.086 52.2852 158.879 52.2734 158.691 52.2734C158.215 52.2734 157.801 52.3359 157.449 52.4609C157.105 52.5781 156.816 52.7539 156.582 52.9883C156.355 53.2227 156.184 53.5078 156.066 53.8438C155.957 54.1797 155.895 54.5625 155.879 54.9922L155.199 54.7812C155.199 53.9609 155.281 53.207 155.445 52.5195C155.609 51.8242 155.848 51.2188 156.16 50.7031C156.48 50.1875 156.871 49.7891 157.332 49.5078C157.793 49.2266 158.32 49.0859 158.914 49.0859C159.102 49.0859 159.293 49.1016 159.488 49.1328C159.684 49.1562 159.844 49.1914 159.969 49.2383ZM171.266 44.9375V62H167.75V44.9375H171.266ZM178.062 52.2266V54.9688H170.305V52.2266H178.062ZM178.883 44.9375V47.6914H170.305V44.9375H178.883ZM186.289 62.2344C185.305 62.2344 184.422 62.0781 183.641 61.7656C182.859 61.4453 182.195 61.0039 181.648 60.4414C181.109 59.8789 180.695 59.2266 180.406 58.4844C180.117 57.7344 179.973 56.9375 179.973 56.0938V55.625C179.973 54.6641 180.109 53.7852 180.383 52.9883C180.656 52.1914 181.047 51.5 181.555 50.9141C182.07 50.3281 182.695 49.8789 183.43 49.5664C184.164 49.2461 184.992 49.0859 185.914 49.0859C186.812 49.0859 187.609 49.2344 188.305 49.5312C189 49.8281 189.582 50.25 190.051 50.7969C190.527 51.3438 190.887 52 191.129 52.7656C191.371 53.5234 191.492 54.3672 191.492 55.2969V56.7031H181.414V54.4531H188.176V54.1953C188.176 53.7266 188.09 53.3086 187.918 52.9414C187.754 52.5664 187.504 52.2695 187.168 52.0508C186.832 51.832 186.402 51.7227 185.879 51.7227C185.434 51.7227 185.051 51.8203 184.73 52.0156C184.41 52.2109 184.148 52.4844 183.945 52.8359C183.75 53.1875 183.602 53.6016 183.5 54.0781C183.406 54.5469 183.359 55.0625 183.359 55.625V56.0938C183.359 56.6016 183.43 57.0703 183.57 57.5C183.719 57.9297 183.926 58.3008 184.191 58.6133C184.465 58.9258 184.793 59.168 185.176 59.3398C185.566 59.5117 186.008 59.5977 186.5 59.5977C187.109 59.5977 187.676 59.4805 188.199 59.2461C188.73 59.0039 189.188 58.6406 189.57 58.1562L191.211 59.9375C190.945 60.3203 190.582 60.6875 190.121 61.0391C189.668 61.3906 189.121 61.6797 188.48 61.9062C187.84 62.125 187.109 62.2344 186.289 62.2344ZM199.25 62.2344C198.266 62.2344 197.383 62.0781 196.602 61.7656C195.82 61.4453 195.156 61.0039 194.609 60.4414C194.07 59.8789 193.656 59.2266 193.367 58.4844C193.078 57.7344 192.934 56.9375 192.934 56.0938V55.625C192.934 54.6641 193.07 53.7852 193.344 52.9883C193.617 52.1914 194.008 51.5 194.516 50.9141C195.031 50.3281 195.656 49.8789 196.391 49.5664C197.125 49.2461 197.953 49.0859 198.875 49.0859C199.773 49.0859 200.57 49.2344 201.266 49.5312C201.961 49.8281 202.543 50.25 203.012 50.7969C203.488 51.3438 203.848 52 204.09 52.7656C204.332 53.5234 204.453 54.3672 204.453 55.2969V56.7031H194.375V54.4531H201.137V54.1953C201.137 53.7266 201.051 53.3086 200.879 52.9414C200.715 52.5664 200.465 52.2695 200.129 52.0508C199.793 51.832 199.363 51.7227 198.84 51.7227C198.395 51.7227 198.012 51.8203 197.691 52.0156C197.371 52.2109 197.109 52.4844 196.906 52.8359C196.711 53.1875 196.562 53.6016 196.461 54.0781C196.367 54.5469 196.32 55.0625 196.32 55.625V56.0938C196.32 56.6016 196.391 57.0703 196.531 57.5C196.68 57.9297 196.887 58.3008 197.152 58.6133C197.426 58.9258 197.754 59.168 198.137 59.3398C198.527 59.5117 198.969 59.5977 199.461 59.5977C200.07 59.5977 200.637 59.4805 201.16 59.2461C201.691 59.0039 202.148 58.6406 202.531 58.1562L204.172 59.9375C203.906 60.3203 203.543 60.6875 203.082 61.0391C202.629 61.3906 202.082 61.6797 201.441 61.9062C200.801 62.125 200.07 62.2344 199.25 62.2344ZM213.863 59.2344V44H217.262V62H214.203L213.863 59.2344ZM205.848 55.8125V55.5664C205.848 54.5977 205.957 53.7188 206.176 52.9297C206.395 52.1328 206.715 51.4492 207.137 50.8789C207.559 50.3086 208.078 49.8672 208.695 49.5547C209.312 49.2422 210.016 49.0859 210.805 49.0859C211.547 49.0859 212.195 49.2422 212.75 49.5547C213.312 49.8672 213.789 50.3125 214.18 50.8906C214.578 51.4609 214.898 52.1367 215.141 52.918C215.383 53.6914 215.559 54.5391 215.668 55.4609V56C215.559 56.8828 215.383 57.7031 215.141 58.4609C214.898 59.2188 214.578 59.8828 214.18 60.4531C213.789 61.0156 213.312 61.4531 212.75 61.7656C212.188 62.0781 211.531 62.2344 210.781 62.2344C209.992 62.2344 209.289 62.0742 208.672 61.7539C208.062 61.4336 207.547 60.9844 207.125 60.4062C206.711 59.8281 206.395 59.1484 206.176 58.3672C205.957 57.5859 205.848 56.7344 205.848 55.8125ZM209.223 55.5664V55.8125C209.223 56.3359 209.262 56.8242 209.34 57.2773C209.426 57.7305 209.562 58.1328 209.75 58.4844C209.945 58.8281 210.195 59.0977 210.5 59.293C210.812 59.4805 211.191 59.5742 211.637 59.5742C212.215 59.5742 212.691 59.4453 213.066 59.1875C213.441 58.9219 213.727 58.5586 213.922 58.0977C214.125 57.6367 214.242 57.1055 214.273 56.5039V54.9688C214.25 54.4766 214.18 54.0352 214.062 53.6445C213.953 53.2461 213.789 52.9062 213.57 52.625C213.359 52.3438 213.094 52.125 212.773 51.9688C212.461 51.8125 212.09 51.7344 211.66 51.7344C211.223 51.7344 210.848 51.8359 210.535 52.0391C210.223 52.2344 209.969 52.5039 209.773 52.8477C209.586 53.1914 209.445 53.5977 209.352 54.0664C209.266 54.5273 209.223 55.0273 209.223 55.5664ZM219.898 44H223.273V59.0938L222.934 62H219.898V44ZM231.301 55.5312V55.7773C231.301 56.7227 231.199 57.5898 230.996 58.3789C230.801 59.168 230.496 59.8516 230.082 60.4297C229.668 61 229.152 61.4453 228.535 61.7656C227.926 62.0781 227.207 62.2344 226.379 62.2344C225.605 62.2344 224.934 62.0781 224.363 61.7656C223.801 61.4531 223.328 61.0117 222.945 60.4414C222.562 59.8711 222.254 59.2031 222.02 58.4375C221.785 57.6719 221.609 56.8359 221.492 55.9297V55.3906C221.609 54.4844 221.785 53.6484 222.02 52.8828C222.254 52.1172 222.562 51.4492 222.945 50.8789C223.328 50.3086 223.801 49.8672 224.363 49.5547C224.926 49.2422 225.59 49.0859 226.355 49.0859C227.191 49.0859 227.918 49.2461 228.535 49.5664C229.16 49.8789 229.676 50.3242 230.082 50.9023C230.496 51.4727 230.801 52.1523 230.996 52.9414C231.199 53.7227 231.301 54.5859 231.301 55.5312ZM227.926 55.7773V55.5312C227.926 55.0156 227.887 54.5312 227.809 54.0781C227.738 53.6172 227.613 53.2148 227.434 52.8711C227.254 52.5195 227.008 52.2422 226.695 52.0391C226.391 51.8359 225.996 51.7344 225.512 51.7344C225.051 51.7344 224.66 51.8125 224.34 51.9688C224.02 52.125 223.754 52.3438 223.543 52.625C223.34 52.9062 223.188 53.2422 223.086 53.6328C222.984 54.0156 222.922 54.4375 222.898 54.8984V56.4336C222.922 57.0508 223.023 57.5977 223.203 58.0742C223.391 58.543 223.672 58.9141 224.047 59.1875C224.43 59.4531 224.926 59.5859 225.535 59.5859C226.012 59.5859 226.406 59.4922 226.719 59.3047C227.031 59.1172 227.273 58.8516 227.445 58.5078C227.625 58.1641 227.75 57.7617 227.82 57.3008C227.891 56.832 227.926 56.3242 227.926 55.7773ZM240.242 59.1406V53.4922C240.242 53.0859 240.176 52.7383 240.043 52.4492C239.91 52.1523 239.703 51.9219 239.422 51.7578C239.148 51.5938 238.793 51.5117 238.355 51.5117C237.98 51.5117 237.656 51.5781 237.383 51.7109C237.109 51.8359 236.898 52.0195 236.75 52.2617C236.602 52.4961 236.527 52.7734 236.527 53.0938H233.152C233.152 52.5547 233.277 52.043 233.527 51.5586C233.777 51.0742 234.141 50.6484 234.617 50.2812C235.094 49.9062 235.66 49.6133 236.316 49.4023C236.98 49.1914 237.723 49.0859 238.543 49.0859C239.527 49.0859 240.402 49.25 241.168 49.5781C241.934 49.9062 242.535 50.3984 242.973 51.0547C243.418 51.7109 243.641 52.5312 243.641 53.5156V58.9414C243.641 59.6367 243.684 60.207 243.77 60.6523C243.855 61.0898 243.98 61.4727 244.145 61.8008V62H240.734C240.57 61.6562 240.445 61.2266 240.359 60.7109C240.281 60.1875 240.242 59.6641 240.242 59.1406ZM240.688 54.2773L240.711 56.1875H238.824C238.379 56.1875 237.992 56.2383 237.664 56.3398C237.336 56.4414 237.066 56.5859 236.855 56.7734C236.645 56.9531 236.488 57.1641 236.387 57.4062C236.293 57.6484 236.246 57.9141 236.246 58.2031C236.246 58.4922 236.312 58.7539 236.445 58.9883C236.578 59.2148 236.77 59.3945 237.02 59.5273C237.27 59.6523 237.562 59.7148 237.898 59.7148C238.406 59.7148 238.848 59.6133 239.223 59.4102C239.598 59.207 239.887 58.957 240.09 58.6602C240.301 58.3633 240.41 58.082 240.418 57.8164L241.309 59.2461C241.184 59.5664 241.012 59.8984 240.793 60.2422C240.582 60.5859 240.312 60.9102 239.984 61.2148C239.656 61.5117 239.262 61.7578 238.801 61.9531C238.34 62.1406 237.793 62.2344 237.16 62.2344C236.355 62.2344 235.625 62.0742 234.969 61.7539C234.32 61.4258 233.805 60.9766 233.422 60.4062C233.047 59.8281 232.859 59.1719 232.859 58.4375C232.859 57.7734 232.984 57.1836 233.234 56.668C233.484 56.1523 233.852 55.7188 234.336 55.3672C234.828 55.0078 235.441 54.7383 236.176 54.5586C236.91 54.3711 237.762 54.2773 238.73 54.2773H240.688ZM251.48 59.5977C251.895 59.5977 252.262 59.5195 252.582 59.3633C252.902 59.1992 253.152 58.9727 253.332 58.6836C253.52 58.3867 253.617 58.0391 253.625 57.6406H256.801C256.793 58.5312 256.555 59.3242 256.086 60.0195C255.617 60.707 254.988 61.25 254.199 61.6484C253.41 62.0391 252.527 62.2344 251.551 62.2344C250.566 62.2344 249.707 62.0703 248.973 61.7422C248.246 61.4141 247.641 60.9609 247.156 60.3828C246.672 59.7969 246.309 59.1172 246.066 58.3438C245.824 57.5625 245.703 56.7266 245.703 55.8359V55.4961C245.703 54.5977 245.824 53.7617 246.066 52.9883C246.309 52.207 246.672 51.5273 247.156 50.9492C247.641 50.3633 248.246 49.9062 248.973 49.5781C249.699 49.25 250.551 49.0859 251.527 49.0859C252.566 49.0859 253.477 49.2852 254.258 49.6836C255.047 50.082 255.664 50.6523 256.109 51.3945C256.562 52.1289 256.793 53 256.801 54.0078H253.625C253.617 53.5859 253.527 53.2031 253.355 52.8594C253.191 52.5156 252.949 52.2422 252.629 52.0391C252.316 51.8281 251.93 51.7227 251.469 51.7227C250.977 51.7227 250.574 51.8281 250.262 52.0391C249.949 52.2422 249.707 52.5234 249.535 52.8828C249.363 53.2344 249.242 53.6367 249.172 54.0898C249.109 54.5352 249.078 55.0039 249.078 55.4961V55.8359C249.078 56.3281 249.109 56.8008 249.172 57.2539C249.234 57.707 249.352 58.1094 249.523 58.4609C249.703 58.8125 249.949 59.0898 250.262 59.293C250.574 59.4961 250.98 59.5977 251.48 59.5977ZM262.133 43.9883V62H258.758V43.9883H262.133ZM270.125 49.3203L264.617 55.6016L261.664 58.5898L260.434 56.1523L262.777 53.1758L266.07 49.3203H270.125ZM266.621 62L262.871 56.1406L265.203 54.1016L270.512 62H266.621Z" fill="#888888"/>
<path d="M109.93 86.0078V118H102.217V86.0078H109.93ZM119.554 86.0078V91.9624H92.813V86.0078H119.554ZM132.012 118.439C130.079 118.439 128.35 118.139 126.827 117.539C125.303 116.923 124.014 116.081 122.959 115.012C121.919 113.942 121.121 112.712 120.564 111.32C120.022 109.929 119.751 108.457 119.751 106.904V106.069C119.751 104.326 119.993 102.714 120.477 101.235C120.96 99.7407 121.678 98.437 122.63 97.3237C123.582 96.2104 124.776 95.3462 126.211 94.731C127.647 94.1011 129.317 93.7861 131.221 93.7861C132.906 93.7861 134.415 94.0571 135.748 94.5991C137.081 95.1411 138.208 95.9175 139.131 96.9282C140.069 97.939 140.779 99.1621 141.263 100.598C141.761 102.033 142.01 103.645 142.01 105.432V108.442H122.586V103.806H134.781V103.234C134.795 102.443 134.656 101.77 134.363 101.213C134.085 100.656 133.675 100.231 133.133 99.9385C132.591 99.6455 131.932 99.499 131.155 99.499C130.35 99.499 129.683 99.6748 129.156 100.026C128.643 100.378 128.24 100.861 127.947 101.477C127.669 102.077 127.471 102.773 127.354 103.564C127.237 104.355 127.178 105.19 127.178 106.069V106.904C127.178 107.783 127.295 108.581 127.53 109.299C127.779 110.017 128.13 110.632 128.584 111.145C129.053 111.643 129.61 112.031 130.254 112.309C130.914 112.587 131.661 112.727 132.496 112.727C133.506 112.727 134.502 112.536 135.484 112.155C136.465 111.774 137.308 111.145 138.011 110.266L141.373 114.265C140.889 114.953 140.201 115.62 139.307 116.264C138.428 116.909 137.374 117.436 136.143 117.846C134.913 118.242 133.536 118.439 132.012 118.439ZM155.062 112.727C155.75 112.727 156.336 112.602 156.819 112.353C157.317 112.089 157.691 111.723 157.94 111.254C158.204 110.771 158.328 110.192 158.313 109.519H165.279C165.293 111.306 164.854 112.873 163.96 114.221C163.082 115.554 161.88 116.594 160.357 117.341C158.848 118.073 157.142 118.439 155.237 118.439C153.377 118.439 151.751 118.139 150.359 117.539C148.968 116.923 147.803 116.074 146.866 114.99C145.943 113.891 145.247 112.609 144.778 111.145C144.324 109.68 144.097 108.09 144.097 106.376V105.871C144.097 104.157 144.324 102.568 144.778 101.103C145.247 99.6235 145.943 98.3418 146.866 97.2578C147.803 96.1592 148.96 95.3096 150.337 94.709C151.729 94.0938 153.348 93.7861 155.193 93.7861C157.171 93.7861 158.914 94.1597 160.423 94.9067C161.946 95.6538 163.14 96.7378 164.004 98.1587C164.869 99.5796 165.293 101.301 165.279 103.322H158.313C158.328 102.604 158.218 101.96 157.984 101.389C157.75 100.817 157.383 100.363 156.885 100.026C156.402 99.6748 155.779 99.499 155.018 99.499C154.256 99.499 153.641 99.6675 153.172 100.004C152.703 100.341 152.344 100.81 152.095 101.411C151.861 101.997 151.7 102.67 151.612 103.432C151.539 104.194 151.502 105.007 151.502 105.871V106.376C151.502 107.255 151.539 108.083 151.612 108.859C151.7 109.621 151.868 110.295 152.117 110.881C152.366 111.452 152.725 111.906 153.194 112.243C153.663 112.565 154.285 112.727 155.062 112.727ZM175.694 84.25V118H168.289V84.25H175.694ZM174.815 105.3L173.079 105.344C173.079 103.674 173.284 102.136 173.694 100.729C174.104 99.3232 174.69 98.1001 175.452 97.0601C176.214 96.02 177.129 95.2144 178.199 94.6431C179.268 94.0718 180.455 93.7861 181.758 93.7861C182.93 93.7861 184 93.9546 184.966 94.2915C185.948 94.6284 186.79 95.1704 187.493 95.9175C188.211 96.6646 188.76 97.6387 189.141 98.8398C189.537 100.041 189.734 101.506 189.734 103.234V118H182.286V103.19C182.286 102.224 182.146 101.477 181.868 100.949C181.604 100.407 181.224 100.034 180.726 99.8286C180.228 99.6089 179.62 99.499 178.902 99.499C178.038 99.499 177.334 99.6455 176.792 99.9385C176.25 100.231 175.833 100.642 175.54 101.169C175.262 101.682 175.071 102.29 174.969 102.993C174.866 103.696 174.815 104.465 174.815 105.3ZM221.88 109.497C221.88 108.999 221.807 108.552 221.661 108.156C221.514 107.746 221.243 107.365 220.848 107.014C220.452 106.662 219.881 106.311 219.134 105.959C218.401 105.593 217.435 105.212 216.233 104.816C214.827 104.348 213.472 103.82 212.168 103.234C210.865 102.634 209.7 101.938 208.675 101.147C207.649 100.341 206.836 99.4038 206.236 98.3345C205.635 97.2505 205.335 95.9907 205.335 94.5552C205.335 93.1782 205.643 91.9404 206.258 90.8418C206.873 89.7285 207.73 88.7837 208.829 88.0073C209.942 87.2163 211.246 86.6157 212.74 86.2056C214.234 85.7808 215.867 85.5684 217.64 85.5684C219.983 85.5684 222.049 85.9785 223.836 86.7988C225.638 87.6045 227.044 88.7544 228.055 90.2485C229.08 91.728 229.593 93.4785 229.593 95.5H221.924C221.924 94.6943 221.756 93.9839 221.419 93.3687C221.097 92.7534 220.606 92.27 219.947 91.9185C219.288 91.5669 218.46 91.3911 217.464 91.3911C216.497 91.3911 215.684 91.5376 215.025 91.8306C214.366 92.1235 213.868 92.519 213.531 93.0171C213.194 93.5005 213.025 94.0352 213.025 94.6211C213.025 95.1045 213.157 95.5439 213.421 95.9395C213.699 96.3203 214.087 96.6792 214.585 97.0161C215.098 97.353 215.713 97.6753 216.431 97.9829C217.164 98.2905 217.984 98.5908 218.892 98.8838C220.591 99.4258 222.1 100.034 223.418 100.708C224.751 101.367 225.872 102.121 226.78 102.971C227.703 103.806 228.399 104.758 228.868 105.827C229.351 106.896 229.593 108.105 229.593 109.453C229.593 110.888 229.314 112.163 228.758 113.276C228.201 114.389 227.403 115.334 226.363 116.11C225.323 116.872 224.078 117.451 222.627 117.846C221.177 118.242 219.559 118.439 217.771 118.439C216.131 118.439 214.512 118.234 212.916 117.824C211.333 117.399 209.898 116.755 208.609 115.891C207.32 115.012 206.287 113.891 205.511 112.529C204.749 111.152 204.368 109.519 204.368 107.629H212.103C212.103 108.566 212.227 109.357 212.476 110.002C212.725 110.646 213.091 111.167 213.575 111.562C214.058 111.943 214.651 112.221 215.354 112.397C216.058 112.558 216.863 112.639 217.771 112.639C218.753 112.639 219.544 112.5 220.145 112.221C220.745 111.928 221.185 111.547 221.463 111.079C221.741 110.595 221.88 110.068 221.88 109.497ZM245.743 94.2256V99.3672H231.417V94.2256H245.743ZM234.427 88.3149H241.832V110.244C241.832 110.874 241.905 111.364 242.051 111.716C242.198 112.053 242.447 112.294 242.798 112.441C243.165 112.573 243.648 112.639 244.249 112.639C244.673 112.639 245.025 112.631 245.303 112.617C245.582 112.587 245.845 112.551 246.094 112.507V117.802C245.464 118.007 244.805 118.161 244.117 118.264C243.428 118.381 242.696 118.439 241.919 118.439C240.337 118.439 238.982 118.19 237.854 117.692C236.741 117.194 235.892 116.411 235.306 115.341C234.72 114.272 234.427 112.88 234.427 111.167V88.3149ZM261.036 112.023V102.224C261.036 101.55 260.94 100.971 260.75 100.488C260.56 100.004 260.259 99.6309 259.849 99.3672C259.439 99.0889 258.89 98.9497 258.201 98.9497C257.645 98.9497 257.168 99.0449 256.773 99.2354C256.377 99.4258 256.077 99.7114 255.872 100.092C255.667 100.473 255.564 100.957 255.564 101.542H248.16C248.16 100.444 248.401 99.4258 248.885 98.4883C249.383 97.5361 250.086 96.7085 250.994 96.0054C251.917 95.3022 253.016 94.7603 254.29 94.3794C255.579 93.9839 257.015 93.7861 258.597 93.7861C260.486 93.7861 262.171 94.1011 263.65 94.731C265.145 95.3608 266.324 96.3057 267.188 97.5654C268.052 98.8105 268.484 100.378 268.484 102.268V112.001C268.484 113.554 268.572 114.733 268.748 115.539C268.924 116.33 269.173 117.026 269.495 117.626V118H262.068C261.717 117.268 261.453 116.374 261.277 115.319C261.116 114.25 261.036 113.151 261.036 112.023ZM261.937 103.476L261.98 107.431H258.707C258.018 107.431 257.432 107.526 256.949 107.717C256.48 107.907 256.099 108.171 255.806 108.508C255.528 108.83 255.323 109.196 255.191 109.606C255.074 110.017 255.015 110.449 255.015 110.903C255.015 111.342 255.118 111.738 255.323 112.089C255.542 112.426 255.835 112.69 256.202 112.88C256.568 113.071 256.978 113.166 257.432 113.166C258.252 113.166 258.948 113.012 259.52 112.705C260.105 112.382 260.552 111.994 260.86 111.54C261.167 111.086 261.321 110.661 261.321 110.266L262.947 113.298C262.654 113.884 262.317 114.477 261.937 115.078C261.57 115.678 261.109 116.235 260.552 116.748C260.01 117.246 259.344 117.656 258.553 117.978C257.762 118.286 256.802 118.439 255.674 118.439C254.209 118.439 252.862 118.139 251.631 117.539C250.416 116.938 249.441 116.103 248.709 115.034C247.977 113.95 247.61 112.705 247.61 111.298C247.61 110.068 247.83 108.969 248.27 108.002C248.724 107.036 249.405 106.215 250.313 105.542C251.221 104.868 252.378 104.355 253.785 104.003C255.191 103.652 256.846 103.476 258.75 103.476H261.937ZM282.635 112.727C283.323 112.727 283.909 112.602 284.393 112.353C284.891 112.089 285.264 111.723 285.513 111.254C285.777 110.771 285.901 110.192 285.887 109.519H292.852C292.867 111.306 292.427 112.873 291.534 114.221C290.655 115.554 289.454 116.594 287.93 117.341C286.421 118.073 284.715 118.439 282.811 118.439C280.95 118.439 279.324 118.139 277.933 117.539C276.541 116.923 275.376 116.074 274.439 114.99C273.516 113.891 272.82 112.609 272.352 111.145C271.897 109.68 271.67 108.09 271.67 106.376V105.871C271.67 104.157 271.897 102.568 272.352 101.103C272.82 99.6235 273.516 98.3418 274.439 97.2578C275.376 96.1592 276.534 95.3096 277.911 94.709C279.302 94.0938 280.921 93.7861 282.767 93.7861C284.744 93.7861 286.487 94.1597 287.996 94.9067C289.52 95.6538 290.713 96.7378 291.578 98.1587C292.442 99.5796 292.867 101.301 292.852 103.322H285.887C285.901 102.604 285.792 101.96 285.557 101.389C285.323 100.817 284.957 100.363 284.458 100.026C283.975 99.6748 283.353 99.499 282.591 99.499C281.829 99.499 281.214 99.6675 280.745 100.004C280.276 100.341 279.917 100.81 279.668 101.411C279.434 101.997 279.273 102.67 279.185 103.432C279.112 104.194 279.075 105.007 279.075 105.871V106.376C279.075 107.255 279.112 108.083 279.185 108.859C279.273 109.621 279.441 110.295 279.69 110.881C279.939 111.452 280.298 111.906 280.767 112.243C281.236 112.565 281.858 112.727 282.635 112.727ZM303.487 84.228V118H296.082V84.228H303.487ZM318.692 94.2256L308.365 106.333L302.959 111.738L299.729 107.036L304.234 101.169L309.815 94.2256H318.692ZM310.76 118L304.41 107.167L309.881 103.278L319.241 118H310.76Z" fill="#424241"/>
<path d="M1363 15C1363 6.71573 1356.28 0 1348 0H1134V167H1348C1356.28 167 1363 160.284 1363 152V15Z" fill="#B81010"/>
<path fill-rule="evenodd" clip-rule="evenodd" d="M1218.5 55C1218.37 55 1218.24 55.0527 1218.15 55.1464C1218.05 55.2402 1218 55.3674 1218 55.5V111.5C1218 111.633 1218.05 111.76 1218.15 111.854C1218.24 111.947 1218.37 112 1218.5 112H1278C1278.13 112 1278.26 111.947 1278.35 111.854C1278.45 111.76 1278.5 111.633 1278.5 111.5V66C1278.5 65.8674 1278.45 65.7402 1278.35 65.6464C1278.26 65.5527 1278.13 65.5 1278 65.5H1248.25C1247.36 65.5 1246.52 65.1045 1245.95 64.4206L1238.09 55H1218.5ZM1213.9 50.9038C1215.12 49.6848 1216.78 49 1218.5 49H1239.5C1240.39 49 1241.23 49.3955 1241.8 50.0794L1249.66 59.5H1278C1279.72 59.5 1281.38 60.1848 1282.6 61.4038C1283.82 62.6228 1284.5 64.2761 1284.5 66V111.5C1284.5 113.224 1283.82 114.877 1282.6 116.096C1281.38 117.315 1279.72 118 1278 118H1218.5C1216.78 118 1215.12 117.315 1213.9 116.096C1212.68 114.877 1212 113.224 1212 111.5V55.5C1212 53.7761 1212.68 52.1228 1213.9 50.9038Z" fill="white"/>
<path fill-rule="evenodd" clip-rule="evenodd" d="M1243.72 77.5251C1245.09 78.892 1245.09 81.108 1243.72 82.4749L1237.45 88.75L1243.72 95.0251C1245.09 96.392 1245.09 98.608 1243.72 99.9749C1242.36 101.342 1240.14 101.342 1238.78 99.9749L1230.03 91.2249C1228.66 89.858 1228.66 87.642 1230.03 86.2751L1238.78 77.5251C1240.14 76.1583 1242.36 76.1583 1243.72 77.5251Z" fill="white"/>
<path fill-rule="evenodd" clip-rule="evenodd" d="M1252.03 99.9749C1250.66 98.608 1250.66 96.392 1252.03 95.0251L1258.3 88.75L1252.03 82.4749C1250.66 81.108 1250.66 78.892 1252.03 77.5251C1253.39 76.1583 1255.61 76.1583 1256.97 77.5251L1265.72 86.2751C1267.09 87.642 1267.09 89.858 1265.72 91.2249L1256.97 99.9749C1255.61 101.342 1253.39 101.342 1252.03 99.9749Z" fill="white"/>
</svg>
