<svg width="1363" height="167" viewBox="0 0 1363 167" fill="none" xmlns="http://www.w3.org/2000/svg">
<rect width="1363" height="167" rx="15" fill="#F0F0F0"/>
<path d="M0 15C0 6.71573 6.71573 0 15 0H37V167H15C6.71573 167 0 160.284 0 152V15Z" fill="#424241"/>
<path d="M100.906 54.9219L93.3945 52.2383V49.0859L103.602 53.375V55.6367L100.906 54.9219ZM93.3945 57.1719L100.918 54.4297L103.602 53.7852V56.0352L93.3945 60.3242V57.1719ZM114.242 44.9375L117.805 52.7188L121.367 44.9375H125.199L119.586 55.7891V62H116.023V55.7891L110.398 44.9375H114.242ZM125.234 55.7891V55.543C125.234 54.6133 125.367 53.7578 125.633 52.9766C125.898 52.1875 126.285 51.5039 126.793 50.9258C127.301 50.3477 127.926 49.8984 128.668 49.5781C129.41 49.25 130.262 49.0859 131.223 49.0859C132.184 49.0859 133.039 49.25 133.789 49.5781C134.539 49.8984 135.168 50.3477 135.676 50.9258C136.191 51.5039 136.582 52.1875 136.848 52.9766C137.113 53.7578 137.246 54.6133 137.246 55.543V55.7891C137.246 56.7109 137.113 57.5664 136.848 58.3555C136.582 59.1367 136.191 59.8203 135.676 60.4062C135.168 60.9844 134.543 61.4336 133.801 61.7539C133.059 62.0742 132.207 62.2344 131.246 62.2344C130.285 62.2344 129.43 62.0742 128.68 61.7539C127.938 61.4336 127.309 60.9844 126.793 60.4062C126.285 59.8203 125.898 59.1367 125.633 58.3555C125.367 57.5664 125.234 56.7109 125.234 55.7891ZM128.609 55.543V55.7891C128.609 56.3203 128.656 56.8164 128.75 57.2773C128.844 57.7383 128.992 58.1445 129.195 58.4961C129.406 58.8398 129.68 59.1094 130.016 59.3047C130.352 59.5 130.762 59.5977 131.246 59.5977C131.715 59.5977 132.117 59.5 132.453 59.3047C132.789 59.1094 133.059 58.8398 133.262 58.4961C133.465 58.1445 133.613 57.7383 133.707 57.2773C133.809 56.8164 133.859 56.3203 133.859 55.7891V55.543C133.859 55.0273 133.809 54.543 133.707 54.0898C133.613 53.6289 133.461 53.2227 133.25 52.8711C133.047 52.5117 132.777 52.2305 132.441 52.0273C132.105 51.8242 131.699 51.7227 131.223 51.7227C130.746 51.7227 130.34 51.8242 130.004 52.0273C129.676 52.2305 129.406 52.5117 129.195 52.8711C128.992 53.2227 128.844 53.6289 128.75 54.0898C128.656 54.543 128.609 55.0273 128.609 55.543ZM146.82 58.9648V49.3203H150.195V62H147.02L146.82 58.9648ZM147.195 56.3633L148.191 56.3398C148.191 57.1836 148.094 57.9688 147.898 58.6953C147.703 59.4141 147.41 60.0391 147.02 60.5703C146.629 61.0938 146.137 61.5039 145.543 61.8008C144.949 62.0898 144.25 62.2344 143.445 62.2344C142.828 62.2344 142.258 62.1484 141.734 61.9766C141.219 61.7969 140.773 61.5195 140.398 61.1445C140.031 60.7617 139.742 60.2734 139.531 59.6797C139.328 59.0781 139.227 58.3555 139.227 57.5117V49.3203H142.602V57.5352C142.602 57.9102 142.645 58.2266 142.73 58.4844C142.824 58.7422 142.953 58.9531 143.117 59.1172C143.281 59.2812 143.473 59.3984 143.691 59.4688C143.918 59.5391 144.168 59.5742 144.441 59.5742C145.137 59.5742 145.684 59.4336 146.082 59.1523C146.488 58.8711 146.773 58.4883 146.938 58.0039C147.109 57.5117 147.195 56.9648 147.195 56.3633ZM156.148 52.0859V62H152.773V49.3203H155.949L156.148 52.0859ZM159.969 49.2383L159.91 52.3672C159.746 52.3438 159.547 52.3242 159.312 52.3086C159.086 52.2852 158.879 52.2734 158.691 52.2734C158.215 52.2734 157.801 52.3359 157.449 52.4609C157.105 52.5781 156.816 52.7539 156.582 52.9883C156.355 53.2227 156.184 53.5078 156.066 53.8438C155.957 54.1797 155.895 54.5625 155.879 54.9922L155.199 54.7812C155.199 53.9609 155.281 53.207 155.445 52.5195C155.609 51.8242 155.848 51.2188 156.16 50.7031C156.48 50.1875 156.871 49.7891 157.332 49.5078C157.793 49.2266 158.32 49.0859 158.914 49.0859C159.102 49.0859 159.293 49.1016 159.488 49.1328C159.684 49.1562 159.844 49.1914 159.969 49.2383ZM171.266 44.9375V62H167.75V44.9375H171.266ZM178.062 52.2266V54.9688H170.305V52.2266H178.062ZM178.883 44.9375V47.6914H170.305V44.9375H178.883ZM186.289 62.2344C185.305 62.2344 184.422 62.0781 183.641 61.7656C182.859 61.4453 182.195 61.0039 181.648 60.4414C181.109 59.8789 180.695 59.2266 180.406 58.4844C180.117 57.7344 179.973 56.9375 179.973 56.0938V55.625C179.973 54.6641 180.109 53.7852 180.383 52.9883C180.656 52.1914 181.047 51.5 181.555 50.9141C182.07 50.3281 182.695 49.8789 183.43 49.5664C184.164 49.2461 184.992 49.0859 185.914 49.0859C186.812 49.0859 187.609 49.2344 188.305 49.5312C189 49.8281 189.582 50.25 190.051 50.7969C190.527 51.3438 190.887 52 191.129 52.7656C191.371 53.5234 191.492 54.3672 191.492 55.2969V56.7031H181.414V54.4531H188.176V54.1953C188.176 53.7266 188.09 53.3086 187.918 52.9414C187.754 52.5664 187.504 52.2695 187.168 52.0508C186.832 51.832 186.402 51.7227 185.879 51.7227C185.434 51.7227 185.051 51.8203 184.73 52.0156C184.41 52.2109 184.148 52.4844 183.945 52.8359C183.75 53.1875 183.602 53.6016 183.5 54.0781C183.406 54.5469 183.359 55.0625 183.359 55.625V56.0938C183.359 56.6016 183.43 57.0703 183.57 57.5C183.719 57.9297 183.926 58.3008 184.191 58.6133C184.465 58.9258 184.793 59.168 185.176 59.3398C185.566 59.5117 186.008 59.5977 186.5 59.5977C187.109 59.5977 187.676 59.4805 188.199 59.2461C188.73 59.0039 189.188 58.6406 189.57 58.1562L191.211 59.9375C190.945 60.3203 190.582 60.6875 190.121 61.0391C189.668 61.3906 189.121 61.6797 188.48 61.9062C187.84 62.125 187.109 62.2344 186.289 62.2344ZM199.25 62.2344C198.266 62.2344 197.383 62.0781 196.602 61.7656C195.82 61.4453 195.156 61.0039 194.609 60.4414C194.07 59.8789 193.656 59.2266 193.367 58.4844C193.078 57.7344 192.934 56.9375 192.934 56.0938V55.625C192.934 54.6641 193.07 53.7852 193.344 52.9883C193.617 52.1914 194.008 51.5 194.516 50.9141C195.031 50.3281 195.656 49.8789 196.391 49.5664C197.125 49.2461 197.953 49.0859 198.875 49.0859C199.773 49.0859 200.57 49.2344 201.266 49.5312C201.961 49.8281 202.543 50.25 203.012 50.7969C203.488 51.3438 203.848 52 204.09 52.7656C204.332 53.5234 204.453 54.3672 204.453 55.2969V56.7031H194.375V54.4531H201.137V54.1953C201.137 53.7266 201.051 53.3086 200.879 52.9414C200.715 52.5664 200.465 52.2695 200.129 52.0508C199.793 51.832 199.363 51.7227 198.84 51.7227C198.395 51.7227 198.012 51.8203 197.691 52.0156C197.371 52.2109 197.109 52.4844 196.906 52.8359C196.711 53.1875 196.562 53.6016 196.461 54.0781C196.367 54.5469 196.32 55.0625 196.32 55.625V56.0938C196.32 56.6016 196.391 57.0703 196.531 57.5C196.68 57.9297 196.887 58.3008 197.152 58.6133C197.426 58.9258 197.754 59.168 198.137 59.3398C198.527 59.5117 198.969 59.5977 199.461 59.5977C200.07 59.5977 200.637 59.4805 201.16 59.2461C201.691 59.0039 202.148 58.6406 202.531 58.1562L204.172 59.9375C203.906 60.3203 203.543 60.6875 203.082 61.0391C202.629 61.3906 202.082 61.6797 201.441 61.9062C200.801 62.125 200.07 62.2344 199.25 62.2344ZM213.863 59.2344V44H217.262V62H214.203L213.863 59.2344ZM205.848 55.8125V55.5664C205.848 54.5977 205.957 53.7188 206.176 52.9297C206.395 52.1328 206.715 51.4492 207.137 50.8789C207.559 50.3086 208.078 49.8672 208.695 49.5547C209.312 49.2422 210.016 49.0859 210.805 49.0859C211.547 49.0859 212.195 49.2422 212.75 49.5547C213.312 49.8672 213.789 50.3125 214.18 50.8906C214.578 51.4609 214.898 52.1367 215.141 52.918C215.383 53.6914 215.559 54.5391 215.668 55.4609V56C215.559 56.8828 215.383 57.7031 215.141 58.4609C214.898 59.2188 214.578 59.8828 214.18 60.4531C213.789 61.0156 213.312 61.4531 212.75 61.7656C212.188 62.0781 211.531 62.2344 210.781 62.2344C209.992 62.2344 209.289 62.0742 208.672 61.7539C208.062 61.4336 207.547 60.9844 207.125 60.4062C206.711 59.8281 206.395 59.1484 206.176 58.3672C205.957 57.5859 205.848 56.7344 205.848 55.8125ZM209.223 55.5664V55.8125C209.223 56.3359 209.262 56.8242 209.34 57.2773C209.426 57.7305 209.562 58.1328 209.75 58.4844C209.945 58.8281 210.195 59.0977 210.5 59.293C210.812 59.4805 211.191 59.5742 211.637 59.5742C212.215 59.5742 212.691 59.4453 213.066 59.1875C213.441 58.9219 213.727 58.5586 213.922 58.0977C214.125 57.6367 214.242 57.1055 214.273 56.5039V54.9688C214.25 54.4766 214.18 54.0352 214.062 53.6445C213.953 53.2461 213.789 52.9062 213.57 52.625C213.359 52.3438 213.094 52.125 212.773 51.9688C212.461 51.8125 212.09 51.7344 211.66 51.7344C211.223 51.7344 210.848 51.8359 210.535 52.0391C210.223 52.2344 209.969 52.5039 209.773 52.8477C209.586 53.1914 209.445 53.5977 209.352 54.0664C209.266 54.5273 209.223 55.0273 209.223 55.5664ZM219.898 44H223.273V59.0938L222.934 62H219.898V44ZM231.301 55.5312V55.7773C231.301 56.7227 231.199 57.5898 230.996 58.3789C230.801 59.168 230.496 59.8516 230.082 60.4297C229.668 61 229.152 61.4453 228.535 61.7656C227.926 62.0781 227.207 62.2344 226.379 62.2344C225.605 62.2344 224.934 62.0781 224.363 61.7656C223.801 61.4531 223.328 61.0117 222.945 60.4414C222.562 59.8711 222.254 59.2031 222.02 58.4375C221.785 57.6719 221.609 56.8359 221.492 55.9297V55.3906C221.609 54.4844 221.785 53.6484 222.02 52.8828C222.254 52.1172 222.562 51.4492 222.945 50.8789C223.328 50.3086 223.801 49.8672 224.363 49.5547C224.926 49.2422 225.59 49.0859 226.355 49.0859C227.191 49.0859 227.918 49.2461 228.535 49.5664C229.16 49.8789 229.676 50.3242 230.082 50.9023C230.496 51.4727 230.801 52.1523 230.996 52.9414C231.199 53.7227 231.301 54.5859 231.301 55.5312ZM227.926 55.7773V55.5312C227.926 55.0156 227.887 54.5312 227.809 54.0781C227.738 53.6172 227.613 53.2148 227.434 52.8711C227.254 52.5195 227.008 52.2422 226.695 52.0391C226.391 51.8359 225.996 51.7344 225.512 51.7344C225.051 51.7344 224.66 51.8125 224.34 51.9688C224.02 52.125 223.754 52.3438 223.543 52.625C223.34 52.9062 223.188 53.2422 223.086 53.6328C222.984 54.0156 222.922 54.4375 222.898 54.8984V56.4336C222.922 57.0508 223.023 57.5977 223.203 58.0742C223.391 58.543 223.672 58.9141 224.047 59.1875C224.43 59.4531 224.926 59.5859 225.535 59.5859C226.012 59.5859 226.406 59.4922 226.719 59.3047C227.031 59.1172 227.273 58.8516 227.445 58.5078C227.625 58.1641 227.75 57.7617 227.82 57.3008C227.891 56.832 227.926 56.3242 227.926 55.7773ZM240.242 59.1406V53.4922C240.242 53.0859 240.176 52.7383 240.043 52.4492C239.91 52.1523 239.703 51.9219 239.422 51.7578C239.148 51.5938 238.793 51.5117 238.355 51.5117C237.98 51.5117 237.656 51.5781 237.383 51.7109C237.109 51.8359 236.898 52.0195 236.75 52.2617C236.602 52.4961 236.527 52.7734 236.527 53.0938H233.152C233.152 52.5547 233.277 52.043 233.527 51.5586C233.777 51.0742 234.141 50.6484 234.617 50.2812C235.094 49.9062 235.66 49.6133 236.316 49.4023C236.98 49.1914 237.723 49.0859 238.543 49.0859C239.527 49.0859 240.402 49.25 241.168 49.5781C241.934 49.9062 242.535 50.3984 242.973 51.0547C243.418 51.7109 243.641 52.5312 243.641 53.5156V58.9414C243.641 59.6367 243.684 60.207 243.77 60.6523C243.855 61.0898 243.98 61.4727 244.145 61.8008V62H240.734C240.57 61.6562 240.445 61.2266 240.359 60.7109C240.281 60.1875 240.242 59.6641 240.242 59.1406ZM240.688 54.2773L240.711 56.1875H238.824C238.379 56.1875 237.992 56.2383 237.664 56.3398C237.336 56.4414 237.066 56.5859 236.855 56.7734C236.645 56.9531 236.488 57.1641 236.387 57.4062C236.293 57.6484 236.246 57.9141 236.246 58.2031C236.246 58.4922 236.312 58.7539 236.445 58.9883C236.578 59.2148 236.77 59.3945 237.02 59.5273C237.27 59.6523 237.562 59.7148 237.898 59.7148C238.406 59.7148 238.848 59.6133 239.223 59.4102C239.598 59.207 239.887 58.957 240.09 58.6602C240.301 58.3633 240.41 58.082 240.418 57.8164L241.309 59.2461C241.184 59.5664 241.012 59.8984 240.793 60.2422C240.582 60.5859 240.312 60.9102 239.984 61.2148C239.656 61.5117 239.262 61.7578 238.801 61.9531C238.34 62.1406 237.793 62.2344 237.16 62.2344C236.355 62.2344 235.625 62.0742 234.969 61.7539C234.32 61.4258 233.805 60.9766 233.422 60.4062C233.047 59.8281 232.859 59.1719 232.859 58.4375C232.859 57.7734 232.984 57.1836 233.234 56.668C233.484 56.1523 233.852 55.7188 234.336 55.3672C234.828 55.0078 235.441 54.7383 236.176 54.5586C236.91 54.3711 237.762 54.2773 238.73 54.2773H240.688ZM251.48 59.5977C251.895 59.5977 252.262 59.5195 252.582 59.3633C252.902 59.1992 253.152 58.9727 253.332 58.6836C253.52 58.3867 253.617 58.0391 253.625 57.6406H256.801C256.793 58.5312 256.555 59.3242 256.086 60.0195C255.617 60.707 254.988 61.25 254.199 61.6484C253.41 62.0391 252.527 62.2344 251.551 62.2344C250.566 62.2344 249.707 62.0703 248.973 61.7422C248.246 61.4141 247.641 60.9609 247.156 60.3828C246.672 59.7969 246.309 59.1172 246.066 58.3438C245.824 57.5625 245.703 56.7266 245.703 55.8359V55.4961C245.703 54.5977 245.824 53.7617 246.066 52.9883C246.309 52.207 246.672 51.5273 247.156 50.9492C247.641 50.3633 248.246 49.9062 248.973 49.5781C249.699 49.25 250.551 49.0859 251.527 49.0859C252.566 49.0859 253.477 49.2852 254.258 49.6836C255.047 50.082 255.664 50.6523 256.109 51.3945C256.562 52.1289 256.793 53 256.801 54.0078H253.625C253.617 53.5859 253.527 53.2031 253.355 52.8594C253.191 52.5156 252.949 52.2422 252.629 52.0391C252.316 51.8281 251.93 51.7227 251.469 51.7227C250.977 51.7227 250.574 51.8281 250.262 52.0391C249.949 52.2422 249.707 52.5234 249.535 52.8828C249.363 53.2344 249.242 53.6367 249.172 54.0898C249.109 54.5352 249.078 55.0039 249.078 55.4961V55.8359C249.078 56.3281 249.109 56.8008 249.172 57.2539C249.234 57.707 249.352 58.1094 249.523 58.4609C249.703 58.8125 249.949 59.0898 250.262 59.293C250.574 59.4961 250.98 59.5977 251.48 59.5977ZM262.133 43.9883V62H258.758V43.9883H262.133ZM270.125 49.3203L264.617 55.6016L261.664 58.5898L260.434 56.1523L262.777 53.1758L266.07 49.3203H270.125ZM266.621 62L262.871 56.1406L265.203 54.1016L270.512 62H266.621Z" fill="#888888"/>
<path d="M107.205 107.146H99.251V101.191H107.205C108.289 101.191 109.168 101.008 109.842 100.642C110.516 100.275 111.006 99.77 111.314 99.1255C111.636 98.4663 111.797 97.7266 111.797 96.9062C111.797 96.0273 111.636 95.2144 111.314 94.4673C111.006 93.7202 110.516 93.1196 109.842 92.6655C109.168 92.1968 108.289 91.9624 107.205 91.9624H102.151V118H94.439V86.0078H107.205C109.769 86.0078 111.973 86.4766 113.819 87.4141C115.679 88.3516 117.107 89.6406 118.104 91.2812C119.1 92.9072 119.598 94.7676 119.598 96.8623C119.598 98.9277 119.1 100.729 118.104 102.268C117.107 103.806 115.679 105.007 113.819 105.871C111.973 106.721 109.769 107.146 107.205 107.146ZM130.87 100.114V118H123.465V94.2256H130.386L130.87 100.114ZM137.901 94.0498L137.769 100.927C137.476 100.898 137.081 100.861 136.583 100.817C136.084 100.773 135.667 100.751 135.33 100.751C134.466 100.751 133.719 100.854 133.089 101.059C132.474 101.25 131.961 101.542 131.551 101.938C131.155 102.319 130.862 102.802 130.672 103.388C130.496 103.974 130.416 104.655 130.43 105.432L129.09 104.553C129.09 102.956 129.244 101.506 129.551 100.202C129.874 98.8838 130.328 97.7485 130.914 96.7964C131.5 95.8296 132.21 95.0898 133.045 94.5771C133.88 94.0498 134.817 93.7861 135.857 93.7861C136.224 93.7861 136.583 93.8081 136.934 93.8521C137.3 93.896 137.623 93.9619 137.901 94.0498ZM138.736 106.354V105.893C138.736 104.15 138.985 102.546 139.483 101.081C139.981 99.6016 140.713 98.3198 141.68 97.2358C142.647 96.1519 143.841 95.3096 145.262 94.709C146.683 94.0938 148.323 93.7861 150.184 93.7861C152.059 93.7861 153.707 94.0938 155.127 94.709C156.563 95.3096 157.764 96.1519 158.731 97.2358C159.698 98.3198 160.43 99.6016 160.928 101.081C161.426 102.546 161.675 104.15 161.675 105.893V106.354C161.675 108.083 161.426 109.687 160.928 111.167C160.43 112.631 159.698 113.913 158.731 115.012C157.764 116.096 156.57 116.938 155.149 117.539C153.729 118.139 152.088 118.439 150.228 118.439C148.367 118.439 146.719 118.139 145.284 117.539C143.848 116.938 142.647 116.096 141.68 115.012C140.713 113.913 139.981 112.631 139.483 111.167C138.985 109.687 138.736 108.083 138.736 106.354ZM146.141 105.893V106.354C146.141 107.248 146.207 108.083 146.338 108.859C146.47 109.636 146.69 110.317 146.998 110.903C147.305 111.474 147.723 111.921 148.25 112.243C148.777 112.565 149.437 112.727 150.228 112.727C151.004 112.727 151.648 112.565 152.161 112.243C152.688 111.921 153.106 111.474 153.414 110.903C153.721 110.317 153.941 109.636 154.073 108.859C154.205 108.083 154.271 107.248 154.271 106.354V105.893C154.271 105.029 154.205 104.216 154.073 103.454C153.941 102.678 153.721 101.997 153.414 101.411C153.106 100.81 152.688 100.341 152.161 100.004C151.634 99.6675 150.975 99.499 150.184 99.499C149.407 99.499 148.755 99.6675 148.228 100.004C147.715 100.341 147.305 100.81 146.998 101.411C146.69 101.997 146.47 102.678 146.338 103.454C146.207 104.216 146.141 105.029 146.141 105.893ZM165.521 94.2256H172.947V118.769C172.947 120.673 172.581 122.277 171.849 123.581C171.116 124.899 170.069 125.896 168.707 126.569C167.344 127.258 165.718 127.602 163.829 127.602C163.199 127.602 162.62 127.573 162.093 127.514C161.551 127.47 160.958 127.375 160.313 127.229V121.625C160.694 121.684 161.045 121.728 161.368 121.757C161.69 121.801 162.042 121.823 162.422 121.823C163.096 121.823 163.66 121.713 164.114 121.494C164.568 121.274 164.913 120.937 165.147 120.483C165.396 120.029 165.521 119.458 165.521 118.769V94.2256ZM164.971 88.0952C164.971 87.0405 165.352 86.1763 166.114 85.5024C166.875 84.8286 167.864 84.4917 169.08 84.4917C170.296 84.4917 171.285 84.8286 172.046 85.5024C172.808 86.1763 173.189 87.0405 173.189 88.0952C173.189 89.1499 172.808 90.0142 172.046 90.688C171.285 91.3618 170.296 91.6987 169.08 91.6987C167.864 91.6987 166.875 91.3618 166.114 90.688C165.352 90.0142 164.971 89.1499 164.971 88.0952ZM188.658 118.439C186.724 118.439 184.996 118.139 183.472 117.539C181.949 116.923 180.66 116.081 179.605 115.012C178.565 113.942 177.767 112.712 177.21 111.32C176.668 109.929 176.397 108.457 176.397 106.904V106.069C176.397 104.326 176.639 102.714 177.122 101.235C177.605 99.7407 178.323 98.437 179.275 97.3237C180.228 96.2104 181.421 95.3462 182.857 94.731C184.292 94.1011 185.962 93.7861 187.867 93.7861C189.551 93.7861 191.06 94.0571 192.393 94.5991C193.726 95.1411 194.854 95.9175 195.777 96.9282C196.714 97.939 197.425 99.1621 197.908 100.598C198.406 102.033 198.655 103.645 198.655 105.432V108.442H179.231V103.806H191.426V103.234C191.441 102.443 191.302 101.77 191.009 101.213C190.73 100.656 190.32 100.231 189.778 99.9385C189.236 99.6455 188.577 99.499 187.801 99.499C186.995 99.499 186.329 99.6748 185.801 100.026C185.289 100.378 184.886 100.861 184.593 101.477C184.314 102.077 184.117 102.773 184 103.564C183.882 104.355 183.824 105.19 183.824 106.069V106.904C183.824 107.783 183.941 108.581 184.175 109.299C184.424 110.017 184.776 110.632 185.23 111.145C185.699 111.643 186.255 112.031 186.9 112.309C187.559 112.587 188.306 112.727 189.141 112.727C190.152 112.727 191.148 112.536 192.129 112.155C193.111 111.774 193.953 111.145 194.656 110.266L198.018 114.265C197.535 114.953 196.846 115.62 195.953 116.264C195.074 116.909 194.019 117.436 192.789 117.846C191.558 118.242 190.181 118.439 188.658 118.439ZM211.707 112.727C212.396 112.727 212.981 112.602 213.465 112.353C213.963 112.089 214.336 111.723 214.585 111.254C214.849 110.771 214.974 110.192 214.959 109.519H221.924C221.939 111.306 221.5 112.873 220.606 114.221C219.727 115.554 218.526 116.594 217.002 117.341C215.494 118.073 213.787 118.439 211.883 118.439C210.022 118.439 208.396 118.139 207.005 117.539C205.613 116.923 204.449 116.074 203.511 114.99C202.588 113.891 201.893 112.609 201.424 111.145C200.97 109.68 200.743 108.09 200.743 106.376V105.871C200.743 104.157 200.97 102.568 201.424 101.103C201.893 99.6235 202.588 98.3418 203.511 97.2578C204.449 96.1592 205.606 95.3096 206.983 94.709C208.375 94.0938 209.993 93.7861 211.839 93.7861C213.816 93.7861 215.56 94.1597 217.068 94.9067C218.592 95.6538 219.786 96.7378 220.65 98.1587C221.514 99.5796 221.939 101.301 221.924 103.322H214.959C214.974 102.604 214.864 101.96 214.629 101.389C214.395 100.817 214.029 100.363 213.531 100.026C213.047 99.6748 212.425 99.499 211.663 99.499C210.901 99.499 210.286 99.6675 209.817 100.004C209.349 100.341 208.99 100.81 208.741 101.411C208.506 101.997 208.345 102.67 208.257 103.432C208.184 104.194 208.147 105.007 208.147 105.871V106.376C208.147 107.255 208.184 108.083 208.257 108.859C208.345 109.621 208.514 110.295 208.763 110.881C209.012 111.452 209.371 111.906 209.839 112.243C210.308 112.565 210.931 112.727 211.707 112.727ZM237.613 94.2256V99.3672H223.287V94.2256H237.613ZM226.297 88.3149H233.702V110.244C233.702 110.874 233.775 111.364 233.921 111.716C234.068 112.053 234.317 112.294 234.668 112.441C235.035 112.573 235.518 112.639 236.119 112.639C236.543 112.639 236.895 112.631 237.173 112.617C237.452 112.587 237.715 112.551 237.964 112.507V117.802C237.334 118.007 236.675 118.161 235.987 118.264C235.298 118.381 234.566 118.439 233.79 118.439C232.208 118.439 230.853 118.19 229.725 117.692C228.611 117.194 227.762 116.411 227.176 115.341C226.59 114.272 226.297 112.88 226.297 111.167V88.3149ZM264.881 107.146H256.927V101.191H264.881C265.965 101.191 266.844 101.008 267.518 100.642C268.191 100.275 268.682 99.77 268.99 99.1255C269.312 98.4663 269.473 97.7266 269.473 96.9062C269.473 96.0273 269.312 95.2144 268.99 94.4673C268.682 93.7202 268.191 93.1196 267.518 92.6655C266.844 92.1968 265.965 91.9624 264.881 91.9624H259.827V118H252.115V86.0078H264.881C267.444 86.0078 269.649 86.4766 271.495 87.4141C273.355 88.3516 274.783 89.6406 275.779 91.2812C276.775 92.9072 277.273 94.7676 277.273 96.8623C277.273 98.9277 276.775 100.729 275.779 102.268C274.783 103.806 273.355 105.007 271.495 105.871C269.649 106.721 267.444 107.146 264.881 107.146ZM288.326 84.25V118H280.921V84.25H288.326ZM287.447 105.3L285.711 105.344C285.711 103.674 285.916 102.136 286.326 100.729C286.736 99.3232 287.322 98.1001 288.084 97.0601C288.846 96.02 289.761 95.2144 290.831 94.6431C291.9 94.0718 293.086 93.7861 294.39 93.7861C295.562 93.7861 296.631 93.9546 297.598 94.2915C298.58 94.6284 299.422 95.1704 300.125 95.9175C300.843 96.6646 301.392 97.6387 301.773 98.8398C302.168 100.041 302.366 101.506 302.366 103.234V118H294.917V103.19C294.917 102.224 294.778 101.477 294.5 100.949C294.236 100.407 293.855 100.034 293.357 99.8286C292.859 99.6089 292.251 99.499 291.534 99.499C290.669 99.499 289.966 99.6455 289.424 99.9385C288.882 100.231 288.465 100.642 288.172 101.169C287.894 101.682 287.703 102.29 287.601 102.993C287.498 103.696 287.447 104.465 287.447 105.3ZM314.297 94.2256V118H306.871V94.2256H314.297ZM306.431 88.0952C306.431 87.0405 306.812 86.1763 307.574 85.5024C308.335 84.8286 309.324 84.4917 310.54 84.4917C311.756 84.4917 312.745 84.8286 313.506 85.5024C314.268 86.1763 314.649 87.0405 314.649 88.0952C314.649 89.1499 314.268 90.0142 313.506 90.688C312.745 91.3618 311.756 91.6987 310.54 91.6987C309.324 91.6987 308.335 91.3618 307.574 90.688C306.812 90.0142 306.431 89.1499 306.431 88.0952ZM326.69 84.25V118H319.263V84.25H326.69ZM330.337 106.354V105.893C330.337 104.15 330.586 102.546 331.084 101.081C331.583 99.6016 332.315 98.3198 333.282 97.2358C334.249 96.1519 335.442 95.3096 336.863 94.709C338.284 94.0938 339.925 93.7861 341.785 93.7861C343.66 93.7861 345.308 94.0938 346.729 94.709C348.165 95.3096 349.366 96.1519 350.333 97.2358C351.299 98.3198 352.032 99.6016 352.53 101.081C353.028 102.546 353.277 104.15 353.277 105.893V106.354C353.277 108.083 353.028 109.687 352.53 111.167C352.032 112.631 351.299 113.913 350.333 115.012C349.366 116.096 348.172 116.938 346.751 117.539C345.33 118.139 343.689 118.439 341.829 118.439C339.969 118.439 338.321 118.139 336.885 117.539C335.45 116.938 334.249 116.096 333.282 115.012C332.315 113.913 331.583 112.631 331.084 111.167C330.586 109.687 330.337 108.083 330.337 106.354ZM337.742 105.893V106.354C337.742 107.248 337.808 108.083 337.94 108.859C338.072 109.636 338.292 110.317 338.599 110.903C338.907 111.474 339.324 111.921 339.852 112.243C340.379 112.565 341.038 112.727 341.829 112.727C342.605 112.727 343.25 112.565 343.763 112.243C344.29 111.921 344.708 111.474 345.015 110.903C345.323 110.317 345.542 109.636 345.674 108.859C345.806 108.083 345.872 107.248 345.872 106.354V105.893C345.872 105.029 345.806 104.216 345.674 103.454C345.542 102.678 345.323 101.997 345.015 101.411C344.708 100.81 344.29 100.341 343.763 100.004C343.235 99.6675 342.576 99.499 341.785 99.499C341.009 99.499 340.357 99.6675 339.83 100.004C339.317 100.341 338.907 100.81 338.599 101.411C338.292 101.997 338.072 102.678 337.94 103.454C337.808 104.216 337.742 105.029 337.742 105.893ZM369.031 111.32C369.031 110.91 368.892 110.559 368.614 110.266C368.35 109.958 367.881 109.68 367.208 109.431C366.534 109.167 365.589 108.903 364.373 108.64C363.216 108.391 362.125 108.061 361.099 107.651C360.088 107.241 359.202 106.743 358.44 106.157C357.679 105.571 357.078 104.875 356.639 104.069C356.214 103.264 356.001 102.341 356.001 101.301C356.001 100.29 356.214 99.3379 356.639 98.4443C357.078 97.5361 357.715 96.7378 358.55 96.0493C359.4 95.3462 360.433 94.7969 361.648 94.4014C362.864 93.9912 364.249 93.7861 365.801 93.7861C367.94 93.7861 369.786 94.1157 371.338 94.7749C372.891 95.4194 374.085 96.3276 374.92 97.4995C375.77 98.6567 376.194 99.9971 376.194 101.521H368.79C368.79 100.92 368.687 100.407 368.482 99.9824C368.292 99.5576 367.977 99.2354 367.537 99.0156C367.098 98.7812 366.512 98.6641 365.779 98.6641C365.267 98.6641 364.798 98.7593 364.373 98.9497C363.963 99.1401 363.633 99.4038 363.384 99.7407C363.135 100.078 363.011 100.473 363.011 100.927C363.011 101.25 363.084 101.542 363.23 101.806C363.392 102.055 363.633 102.29 363.956 102.509C364.278 102.714 364.688 102.905 365.186 103.081C365.684 103.242 366.285 103.388 366.988 103.52C368.584 103.813 370.079 104.23 371.47 104.772C372.862 105.314 373.99 106.083 374.854 107.08C375.733 108.076 376.172 109.416 376.172 111.101C376.172 112.155 375.931 113.129 375.447 114.023C374.964 114.902 374.268 115.678 373.36 116.352C372.452 117.011 371.36 117.524 370.086 117.89C368.812 118.256 367.376 118.439 365.779 118.439C363.509 118.439 361.59 118.037 360.022 117.231C358.455 116.411 357.269 115.385 356.463 114.155C355.672 112.91 355.276 111.65 355.276 110.375H362.176C362.205 111.108 362.381 111.708 362.703 112.177C363.04 112.646 363.487 112.99 364.043 113.21C364.6 113.43 365.245 113.54 365.977 113.54C366.651 113.54 367.208 113.444 367.647 113.254C368.101 113.063 368.445 112.807 368.68 112.485C368.914 112.148 369.031 111.76 369.031 111.32ZM378.721 106.354V105.893C378.721 104.15 378.97 102.546 379.468 101.081C379.966 99.6016 380.699 98.3198 381.666 97.2358C382.632 96.1519 383.826 95.3096 385.247 94.709C386.668 94.0938 388.309 93.7861 390.169 93.7861C392.044 93.7861 393.692 94.0938 395.113 94.709C396.548 95.3096 397.75 96.1519 398.716 97.2358C399.683 98.3198 400.416 99.6016 400.914 101.081C401.412 102.546 401.661 104.15 401.661 105.893V106.354C401.661 108.083 401.412 109.687 400.914 111.167C400.416 112.631 399.683 113.913 398.716 115.012C397.75 116.096 396.556 116.938 395.135 117.539C393.714 118.139 392.073 118.439 390.213 118.439C388.353 118.439 386.705 118.139 385.269 117.539C383.833 116.938 382.632 116.096 381.666 115.012C380.699 113.913 379.966 112.631 379.468 111.167C378.97 109.687 378.721 108.083 378.721 106.354ZM386.126 105.893V106.354C386.126 107.248 386.192 108.083 386.324 108.859C386.456 109.636 386.675 110.317 386.983 110.903C387.291 111.474 387.708 111.921 388.235 112.243C388.763 112.565 389.422 112.727 390.213 112.727C390.989 112.727 391.634 112.565 392.146 112.243C392.674 111.921 393.091 111.474 393.399 110.903C393.707 110.317 393.926 109.636 394.058 108.859C394.19 108.083 394.256 107.248 394.256 106.354V105.893C394.256 105.029 394.19 104.216 394.058 103.454C393.926 102.678 393.707 101.997 393.399 101.411C393.091 100.81 392.674 100.341 392.146 100.004C391.619 99.6675 390.96 99.499 390.169 99.499C389.393 99.499 388.741 99.6675 388.213 100.004C387.701 100.341 387.291 100.81 386.983 101.411C386.675 101.997 386.456 102.678 386.324 103.454C386.192 104.216 386.126 105.029 386.126 105.893ZM412.427 98.7959V127.141H405.022V94.2256H411.922L412.427 98.7959ZM427.017 105.827V106.289C427.017 108.017 426.819 109.621 426.424 111.101C426.028 112.58 425.442 113.869 424.666 114.968C423.89 116.066 422.923 116.923 421.766 117.539C420.623 118.139 419.297 118.439 417.789 118.439C416.368 118.439 415.145 118.125 414.119 117.495C413.094 116.865 412.237 115.993 411.548 114.88C410.86 113.767 410.303 112.492 409.878 111.057C409.454 109.621 409.117 108.105 408.868 106.508V105.915C409.117 104.201 409.454 102.612 409.878 101.147C410.303 99.6675 410.86 98.3784 411.548 97.2798C412.237 96.1812 413.086 95.3242 414.097 94.709C415.123 94.0938 416.346 93.7861 417.767 93.7861C419.275 93.7861 420.601 94.0718 421.744 94.6431C422.901 95.2144 423.868 96.0347 424.644 97.104C425.435 98.1587 426.028 99.4258 426.424 100.905C426.819 102.385 427.017 104.025 427.017 105.827ZM419.612 106.289V105.827C419.612 104.904 419.546 104.062 419.415 103.3C419.283 102.524 419.07 101.85 418.777 101.279C418.499 100.708 418.125 100.268 417.657 99.9604C417.188 99.6528 416.609 99.499 415.921 99.499C415.13 99.499 414.463 99.6235 413.921 99.8726C413.394 100.107 412.969 100.473 412.647 100.971C412.339 101.455 412.12 102.062 411.988 102.795C411.871 103.513 411.819 104.355 411.834 105.322V107.124C411.805 108.237 411.915 109.218 412.164 110.068C412.413 110.903 412.845 111.555 413.46 112.023C414.075 112.492 414.91 112.727 415.965 112.727C416.668 112.727 417.254 112.565 417.723 112.243C418.191 111.906 418.565 111.445 418.843 110.859C419.122 110.258 419.319 109.57 419.437 108.793C419.554 108.017 419.612 107.182 419.612 106.289ZM437.564 84.25V118H430.159V84.25H437.564ZM436.685 105.3L434.949 105.344C434.949 103.674 435.154 102.136 435.564 100.729C435.975 99.3232 436.561 98.1001 437.322 97.0601C438.084 96.02 439 95.2144 440.069 94.6431C441.138 94.0718 442.325 93.7861 443.628 93.7861C444.8 93.7861 445.87 93.9546 446.836 94.2915C447.818 94.6284 448.66 95.1704 449.363 95.9175C450.081 96.6646 450.63 97.6387 451.011 98.8398C451.407 100.041 451.604 101.506 451.604 103.234V118H444.156V103.19C444.156 102.224 444.017 101.477 443.738 100.949C443.475 100.407 443.094 100.034 442.596 99.8286C442.098 99.6089 441.49 99.499 440.772 99.499C439.908 99.499 439.205 99.6455 438.663 99.9385C438.121 100.231 437.703 100.642 437.41 101.169C437.132 101.682 436.941 102.29 436.839 102.993C436.736 103.696 436.685 104.465 436.685 105.3ZM463.008 115.209L469.161 94.2256H477.115L467.557 121.538C467.352 122.138 467.081 122.783 466.744 123.471C466.407 124.174 465.945 124.841 465.359 125.471C464.773 126.101 464.019 126.613 463.096 127.009C462.188 127.404 461.06 127.602 459.712 127.602C458.995 127.602 458.467 127.565 458.13 127.492C457.808 127.434 457.31 127.324 456.636 127.163V121.867C456.827 121.867 456.988 121.867 457.12 121.867C457.266 121.867 457.427 121.867 457.603 121.867C458.394 121.867 459.024 121.787 459.493 121.625C459.976 121.464 460.342 121.23 460.591 120.922C460.855 120.615 461.06 120.241 461.207 119.802L463.008 115.209ZM461.448 94.2256L466.128 110.859L466.941 118.703H461.976L453.516 94.2256H461.448Z" fill="#424241"/>
<path d="M1363 15C1363 6.71573 1356.28 0 1348 0H1134V167H1348C1356.28 167 1363 160.284 1363 152V15Z" fill="#B81010"/>
<path d="M1234.26 106.286H1262.74V111.857H1234.26V106.286ZM1239.96 117.429H1257.04V123H1239.96V117.429ZM1248.5 45C1240.95 45 1233.71 47.9349 1228.37 53.1592C1223.03 58.3834 1220.03 65.469 1220.03 72.8571C1219.84 76.9057 1220.63 80.9412 1222.34 84.6315C1224.05 88.3219 1226.64 91.5616 1229.88 94.0843C1232.73 96.675 1234.26 98.1514 1234.26 100.714H1239.96C1239.96 95.5886 1236.8 92.7193 1233.72 89.9614C1231.06 87.9676 1228.94 85.3658 1227.55 82.3838C1226.15 79.4019 1225.53 76.1308 1225.72 72.8571C1225.72 66.9466 1228.12 61.2781 1232.39 57.0988C1236.67 52.9194 1242.46 50.5714 1248.5 50.5714C1254.54 50.5714 1260.33 52.9194 1264.61 57.0988C1268.88 61.2781 1271.28 66.9466 1271.28 72.8571C1271.47 76.1333 1270.84 79.4059 1269.44 82.388C1268.04 85.3701 1265.92 87.9706 1263.25 89.9614C1260.2 92.7471 1257.04 95.5329 1257.04 100.714H1262.74C1262.74 98.1514 1264.25 96.675 1267.12 94.0564C1270.36 91.5381 1272.94 88.3031 1274.66 84.6176C1276.37 80.9321 1277.16 76.9014 1276.97 72.8571C1276.97 69.1989 1276.24 65.5765 1274.81 62.1967C1273.37 58.8169 1271.28 55.7459 1268.63 53.1592C1265.99 50.5724 1262.85 48.5205 1259.4 47.1205C1255.94 45.7205 1252.24 45 1248.5 45V45Z" fill="white"/>
</svg>
