<svg width="1363" height="167" viewBox="0 0 1363 167" fill="none" xmlns="http://www.w3.org/2000/svg">
<rect width="1363" height="167" rx="15" fill="#F0F0F0"/>
<path d="M0 15C0 6.71573 6.71573 0 15 0H37V167H15C6.71573 167 0 160.284 0 152V15Z" fill="#424241"/>
<path d="M100.906 54.9219L93.3945 52.2383V49.0859L103.602 53.375V55.6367L100.906 54.9219ZM93.3945 57.1719L100.918 54.4297L103.602 53.7852V56.0352L93.3945 60.3242V57.1719ZM114.242 44.9375L117.805 52.7188L121.367 44.9375H125.199L119.586 55.7891V62H116.023V55.7891L110.398 44.9375H114.242ZM125.234 55.7891V55.543C125.234 54.6133 125.367 53.7578 125.633 52.9766C125.898 52.1875 126.285 51.5039 126.793 50.9258C127.301 50.3477 127.926 49.8984 128.668 49.5781C129.41 49.25 130.262 49.0859 131.223 49.0859C132.184 49.0859 133.039 49.25 133.789 49.5781C134.539 49.8984 135.168 50.3477 135.676 50.9258C136.191 51.5039 136.582 52.1875 136.848 52.9766C137.113 53.7578 137.246 54.6133 137.246 55.543V55.7891C137.246 56.7109 137.113 57.5664 136.848 58.3555C136.582 59.1367 136.191 59.8203 135.676 60.4062C135.168 60.9844 134.543 61.4336 133.801 61.7539C133.059 62.0742 132.207 62.2344 131.246 62.2344C130.285 62.2344 129.43 62.0742 128.68 61.7539C127.938 61.4336 127.309 60.9844 126.793 60.4062C126.285 59.8203 125.898 59.1367 125.633 58.3555C125.367 57.5664 125.234 56.7109 125.234 55.7891ZM128.609 55.543V55.7891C128.609 56.3203 128.656 56.8164 128.75 57.2773C128.844 57.7383 128.992 58.1445 129.195 58.4961C129.406 58.8398 129.68 59.1094 130.016 59.3047C130.352 59.5 130.762 59.5977 131.246 59.5977C131.715 59.5977 132.117 59.5 132.453 59.3047C132.789 59.1094 133.059 58.8398 133.262 58.4961C133.465 58.1445 133.613 57.7383 133.707 57.2773C133.809 56.8164 133.859 56.3203 133.859 55.7891V55.543C133.859 55.0273 133.809 54.543 133.707 54.0898C133.613 53.6289 133.461 53.2227 133.25 52.8711C133.047 52.5117 132.777 52.2305 132.441 52.0273C132.105 51.8242 131.699 51.7227 131.223 51.7227C130.746 51.7227 130.34 51.8242 130.004 52.0273C129.676 52.2305 129.406 52.5117 129.195 52.8711C128.992 53.2227 128.844 53.6289 128.75 54.0898C128.656 54.543 128.609 55.0273 128.609 55.543ZM146.82 58.9648V49.3203H150.195V62H147.02L146.82 58.9648ZM147.195 56.3633L148.191 56.3398C148.191 57.1836 148.094 57.9688 147.898 58.6953C147.703 59.4141 147.41 60.0391 147.02 60.5703C146.629 61.0938 146.137 61.5039 145.543 61.8008C144.949 62.0898 144.25 62.2344 143.445 62.2344C142.828 62.2344 142.258 62.1484 141.734 61.9766C141.219 61.7969 140.773 61.5195 140.398 61.1445C140.031 60.7617 139.742 60.2734 139.531 59.6797C139.328 59.0781 139.227 58.3555 139.227 57.5117V49.3203H142.602V57.5352C142.602 57.9102 142.645 58.2266 142.73 58.4844C142.824 58.7422 142.953 58.9531 143.117 59.1172C143.281 59.2812 143.473 59.3984 143.691 59.4688C143.918 59.5391 144.168 59.5742 144.441 59.5742C145.137 59.5742 145.684 59.4336 146.082 59.1523C146.488 58.8711 146.773 58.4883 146.938 58.0039C147.109 57.5117 147.195 56.9648 147.195 56.3633ZM156.148 52.0859V62H152.773V49.3203H155.949L156.148 52.0859ZM159.969 49.2383L159.91 52.3672C159.746 52.3438 159.547 52.3242 159.312 52.3086C159.086 52.2852 158.879 52.2734 158.691 52.2734C158.215 52.2734 157.801 52.3359 157.449 52.4609C157.105 52.5781 156.816 52.7539 156.582 52.9883C156.355 53.2227 156.184 53.5078 156.066 53.8438C155.957 54.1797 155.895 54.5625 155.879 54.9922L155.199 54.7812C155.199 53.9609 155.281 53.207 155.445 52.5195C155.609 51.8242 155.848 51.2188 156.16 50.7031C156.48 50.1875 156.871 49.7891 157.332 49.5078C157.793 49.2266 158.32 49.0859 158.914 49.0859C159.102 49.0859 159.293 49.1016 159.488 49.1328C159.684 49.1562 159.844 49.1914 159.969 49.2383ZM171.266 44.9375V62H167.75V44.9375H171.266ZM178.062 52.2266V54.9688H170.305V52.2266H178.062ZM178.883 44.9375V47.6914H170.305V44.9375H178.883ZM186.289 62.2344C185.305 62.2344 184.422 62.0781 183.641 61.7656C182.859 61.4453 182.195 61.0039 181.648 60.4414C181.109 59.8789 180.695 59.2266 180.406 58.4844C180.117 57.7344 179.973 56.9375 179.973 56.0938V55.625C179.973 54.6641 180.109 53.7852 180.383 52.9883C180.656 52.1914 181.047 51.5 181.555 50.9141C182.07 50.3281 182.695 49.8789 183.43 49.5664C184.164 49.2461 184.992 49.0859 185.914 49.0859C186.812 49.0859 187.609 49.2344 188.305 49.5312C189 49.8281 189.582 50.25 190.051 50.7969C190.527 51.3438 190.887 52 191.129 52.7656C191.371 53.5234 191.492 54.3672 191.492 55.2969V56.7031H181.414V54.4531H188.176V54.1953C188.176 53.7266 188.09 53.3086 187.918 52.9414C187.754 52.5664 187.504 52.2695 187.168 52.0508C186.832 51.832 186.402 51.7227 185.879 51.7227C185.434 51.7227 185.051 51.8203 184.73 52.0156C184.41 52.2109 184.148 52.4844 183.945 52.8359C183.75 53.1875 183.602 53.6016 183.5 54.0781C183.406 54.5469 183.359 55.0625 183.359 55.625V56.0938C183.359 56.6016 183.43 57.0703 183.57 57.5C183.719 57.9297 183.926 58.3008 184.191 58.6133C184.465 58.9258 184.793 59.168 185.176 59.3398C185.566 59.5117 186.008 59.5977 186.5 59.5977C187.109 59.5977 187.676 59.4805 188.199 59.2461C188.73 59.0039 189.188 58.6406 189.57 58.1562L191.211 59.9375C190.945 60.3203 190.582 60.6875 190.121 61.0391C189.668 61.3906 189.121 61.6797 188.48 61.9062C187.84 62.125 187.109 62.2344 186.289 62.2344ZM199.25 62.2344C198.266 62.2344 197.383 62.0781 196.602 61.7656C195.82 61.4453 195.156 61.0039 194.609 60.4414C194.07 59.8789 193.656 59.2266 193.367 58.4844C193.078 57.7344 192.934 56.9375 192.934 56.0938V55.625C192.934 54.6641 193.07 53.7852 193.344 52.9883C193.617 52.1914 194.008 51.5 194.516 50.9141C195.031 50.3281 195.656 49.8789 196.391 49.5664C197.125 49.2461 197.953 49.0859 198.875 49.0859C199.773 49.0859 200.57 49.2344 201.266 49.5312C201.961 49.8281 202.543 50.25 203.012 50.7969C203.488 51.3438 203.848 52 204.09 52.7656C204.332 53.5234 204.453 54.3672 204.453 55.2969V56.7031H194.375V54.4531H201.137V54.1953C201.137 53.7266 201.051 53.3086 200.879 52.9414C200.715 52.5664 200.465 52.2695 200.129 52.0508C199.793 51.832 199.363 51.7227 198.84 51.7227C198.395 51.7227 198.012 51.8203 197.691 52.0156C197.371 52.2109 197.109 52.4844 196.906 52.8359C196.711 53.1875 196.562 53.6016 196.461 54.0781C196.367 54.5469 196.32 55.0625 196.32 55.625V56.0938C196.32 56.6016 196.391 57.0703 196.531 57.5C196.68 57.9297 196.887 58.3008 197.152 58.6133C197.426 58.9258 197.754 59.168 198.137 59.3398C198.527 59.5117 198.969 59.5977 199.461 59.5977C200.07 59.5977 200.637 59.4805 201.16 59.2461C201.691 59.0039 202.148 58.6406 202.531 58.1562L204.172 59.9375C203.906 60.3203 203.543 60.6875 203.082 61.0391C202.629 61.3906 202.082 61.6797 201.441 61.9062C200.801 62.125 200.07 62.2344 199.25 62.2344ZM213.863 59.2344V44H217.262V62H214.203L213.863 59.2344ZM205.848 55.8125V55.5664C205.848 54.5977 205.957 53.7188 206.176 52.9297C206.395 52.1328 206.715 51.4492 207.137 50.8789C207.559 50.3086 208.078 49.8672 208.695 49.5547C209.312 49.2422 210.016 49.0859 210.805 49.0859C211.547 49.0859 212.195 49.2422 212.75 49.5547C213.312 49.8672 213.789 50.3125 214.18 50.8906C214.578 51.4609 214.898 52.1367 215.141 52.918C215.383 53.6914 215.559 54.5391 215.668 55.4609V56C215.559 56.8828 215.383 57.7031 215.141 58.4609C214.898 59.2188 214.578 59.8828 214.18 60.4531C213.789 61.0156 213.312 61.4531 212.75 61.7656C212.188 62.0781 211.531 62.2344 210.781 62.2344C209.992 62.2344 209.289 62.0742 208.672 61.7539C208.062 61.4336 207.547 60.9844 207.125 60.4062C206.711 59.8281 206.395 59.1484 206.176 58.3672C205.957 57.5859 205.848 56.7344 205.848 55.8125ZM209.223 55.5664V55.8125C209.223 56.3359 209.262 56.8242 209.34 57.2773C209.426 57.7305 209.562 58.1328 209.75 58.4844C209.945 58.8281 210.195 59.0977 210.5 59.293C210.812 59.4805 211.191 59.5742 211.637 59.5742C212.215 59.5742 212.691 59.4453 213.066 59.1875C213.441 58.9219 213.727 58.5586 213.922 58.0977C214.125 57.6367 214.242 57.1055 214.273 56.5039V54.9688C214.25 54.4766 214.18 54.0352 214.062 53.6445C213.953 53.2461 213.789 52.9062 213.57 52.625C213.359 52.3438 213.094 52.125 212.773 51.9688C212.461 51.8125 212.09 51.7344 211.66 51.7344C211.223 51.7344 210.848 51.8359 210.535 52.0391C210.223 52.2344 209.969 52.5039 209.773 52.8477C209.586 53.1914 209.445 53.5977 209.352 54.0664C209.266 54.5273 209.223 55.0273 209.223 55.5664ZM219.898 44H223.273V59.0938L222.934 62H219.898V44ZM231.301 55.5312V55.7773C231.301 56.7227 231.199 57.5898 230.996 58.3789C230.801 59.168 230.496 59.8516 230.082 60.4297C229.668 61 229.152 61.4453 228.535 61.7656C227.926 62.0781 227.207 62.2344 226.379 62.2344C225.605 62.2344 224.934 62.0781 224.363 61.7656C223.801 61.4531 223.328 61.0117 222.945 60.4414C222.562 59.8711 222.254 59.2031 222.02 58.4375C221.785 57.6719 221.609 56.8359 221.492 55.9297V55.3906C221.609 54.4844 221.785 53.6484 222.02 52.8828C222.254 52.1172 222.562 51.4492 222.945 50.8789C223.328 50.3086 223.801 49.8672 224.363 49.5547C224.926 49.2422 225.59 49.0859 226.355 49.0859C227.191 49.0859 227.918 49.2461 228.535 49.5664C229.16 49.8789 229.676 50.3242 230.082 50.9023C230.496 51.4727 230.801 52.1523 230.996 52.9414C231.199 53.7227 231.301 54.5859 231.301 55.5312ZM227.926 55.7773V55.5312C227.926 55.0156 227.887 54.5312 227.809 54.0781C227.738 53.6172 227.613 53.2148 227.434 52.8711C227.254 52.5195 227.008 52.2422 226.695 52.0391C226.391 51.8359 225.996 51.7344 225.512 51.7344C225.051 51.7344 224.66 51.8125 224.34 51.9688C224.02 52.125 223.754 52.3438 223.543 52.625C223.34 52.9062 223.188 53.2422 223.086 53.6328C222.984 54.0156 222.922 54.4375 222.898 54.8984V56.4336C222.922 57.0508 223.023 57.5977 223.203 58.0742C223.391 58.543 223.672 58.9141 224.047 59.1875C224.43 59.4531 224.926 59.5859 225.535 59.5859C226.012 59.5859 226.406 59.4922 226.719 59.3047C227.031 59.1172 227.273 58.8516 227.445 58.5078C227.625 58.1641 227.75 57.7617 227.82 57.3008C227.891 56.832 227.926 56.3242 227.926 55.7773ZM240.242 59.1406V53.4922C240.242 53.0859 240.176 52.7383 240.043 52.4492C239.91 52.1523 239.703 51.9219 239.422 51.7578C239.148 51.5938 238.793 51.5117 238.355 51.5117C237.98 51.5117 237.656 51.5781 237.383 51.7109C237.109 51.8359 236.898 52.0195 236.75 52.2617C236.602 52.4961 236.527 52.7734 236.527 53.0938H233.152C233.152 52.5547 233.277 52.043 233.527 51.5586C233.777 51.0742 234.141 50.6484 234.617 50.2812C235.094 49.9062 235.66 49.6133 236.316 49.4023C236.98 49.1914 237.723 49.0859 238.543 49.0859C239.527 49.0859 240.402 49.25 241.168 49.5781C241.934 49.9062 242.535 50.3984 242.973 51.0547C243.418 51.7109 243.641 52.5312 243.641 53.5156V58.9414C243.641 59.6367 243.684 60.207 243.77 60.6523C243.855 61.0898 243.98 61.4727 244.145 61.8008V62H240.734C240.57 61.6562 240.445 61.2266 240.359 60.7109C240.281 60.1875 240.242 59.6641 240.242 59.1406ZM240.688 54.2773L240.711 56.1875H238.824C238.379 56.1875 237.992 56.2383 237.664 56.3398C237.336 56.4414 237.066 56.5859 236.855 56.7734C236.645 56.9531 236.488 57.1641 236.387 57.4062C236.293 57.6484 236.246 57.9141 236.246 58.2031C236.246 58.4922 236.312 58.7539 236.445 58.9883C236.578 59.2148 236.77 59.3945 237.02 59.5273C237.27 59.6523 237.562 59.7148 237.898 59.7148C238.406 59.7148 238.848 59.6133 239.223 59.4102C239.598 59.207 239.887 58.957 240.09 58.6602C240.301 58.3633 240.41 58.082 240.418 57.8164L241.309 59.2461C241.184 59.5664 241.012 59.8984 240.793 60.2422C240.582 60.5859 240.312 60.9102 239.984 61.2148C239.656 61.5117 239.262 61.7578 238.801 61.9531C238.34 62.1406 237.793 62.2344 237.16 62.2344C236.355 62.2344 235.625 62.0742 234.969 61.7539C234.32 61.4258 233.805 60.9766 233.422 60.4062C233.047 59.8281 232.859 59.1719 232.859 58.4375C232.859 57.7734 232.984 57.1836 233.234 56.668C233.484 56.1523 233.852 55.7188 234.336 55.3672C234.828 55.0078 235.441 54.7383 236.176 54.5586C236.91 54.3711 237.762 54.2773 238.73 54.2773H240.688ZM251.48 59.5977C251.895 59.5977 252.262 59.5195 252.582 59.3633C252.902 59.1992 253.152 58.9727 253.332 58.6836C253.52 58.3867 253.617 58.0391 253.625 57.6406H256.801C256.793 58.5312 256.555 59.3242 256.086 60.0195C255.617 60.707 254.988 61.25 254.199 61.6484C253.41 62.0391 252.527 62.2344 251.551 62.2344C250.566 62.2344 249.707 62.0703 248.973 61.7422C248.246 61.4141 247.641 60.9609 247.156 60.3828C246.672 59.7969 246.309 59.1172 246.066 58.3438C245.824 57.5625 245.703 56.7266 245.703 55.8359V55.4961C245.703 54.5977 245.824 53.7617 246.066 52.9883C246.309 52.207 246.672 51.5273 247.156 50.9492C247.641 50.3633 248.246 49.9062 248.973 49.5781C249.699 49.25 250.551 49.0859 251.527 49.0859C252.566 49.0859 253.477 49.2852 254.258 49.6836C255.047 50.082 255.664 50.6523 256.109 51.3945C256.562 52.1289 256.793 53 256.801 54.0078H253.625C253.617 53.5859 253.527 53.2031 253.355 52.8594C253.191 52.5156 252.949 52.2422 252.629 52.0391C252.316 51.8281 251.93 51.7227 251.469 51.7227C250.977 51.7227 250.574 51.8281 250.262 52.0391C249.949 52.2422 249.707 52.5234 249.535 52.8828C249.363 53.2344 249.242 53.6367 249.172 54.0898C249.109 54.5352 249.078 55.0039 249.078 55.4961V55.8359C249.078 56.3281 249.109 56.8008 249.172 57.2539C249.234 57.707 249.352 58.1094 249.523 58.4609C249.703 58.8125 249.949 59.0898 250.262 59.293C250.574 59.4961 250.98 59.5977 251.48 59.5977ZM262.133 43.9883V62H258.758V43.9883H262.133ZM270.125 49.3203L264.617 55.6016L261.664 58.5898L260.434 56.1523L262.777 53.1758L266.07 49.3203H270.125ZM266.621 62L262.871 56.1406L265.203 54.1016L270.512 62H266.621Z" fill="#888888"/>
<path d="M115.994 98.708V104.641H99.5806V98.708H115.994ZM102.151 86.0078V118H94.439V86.0078H102.151ZM121.18 86.0078V118H113.489V86.0078H121.18ZM124.805 106.354V105.893C124.805 104.15 125.054 102.546 125.552 101.081C126.05 99.6016 126.783 98.3198 127.75 97.2358C128.716 96.1519 129.91 95.3096 131.331 94.709C132.752 94.0938 134.393 93.7861 136.253 93.7861C138.128 93.7861 139.776 94.0938 141.197 94.709C142.632 95.3096 143.833 96.1519 144.8 97.2358C145.767 98.3198 146.5 99.6016 146.998 101.081C147.496 102.546 147.745 104.15 147.745 105.893V106.354C147.745 108.083 147.496 109.687 146.998 111.167C146.5 112.631 145.767 113.913 144.8 115.012C143.833 116.096 142.64 116.938 141.219 117.539C139.798 118.139 138.157 118.439 136.297 118.439C134.437 118.439 132.789 118.139 131.353 117.539C129.917 116.938 128.716 116.096 127.75 115.012C126.783 113.913 126.05 112.631 125.552 111.167C125.054 109.687 124.805 108.083 124.805 106.354ZM132.21 105.893V106.354C132.21 107.248 132.276 108.083 132.408 108.859C132.54 109.636 132.759 110.317 133.067 110.903C133.375 111.474 133.792 111.921 134.319 112.243C134.847 112.565 135.506 112.727 136.297 112.727C137.073 112.727 137.718 112.565 138.23 112.243C138.758 111.921 139.175 111.474 139.483 110.903C139.791 110.317 140.01 109.636 140.142 108.859C140.274 108.083 140.34 107.248 140.34 106.354V105.893C140.34 105.029 140.274 104.216 140.142 103.454C140.01 102.678 139.791 101.997 139.483 101.411C139.175 100.81 138.758 100.341 138.23 100.004C137.703 99.6675 137.044 99.499 136.253 99.499C135.477 99.499 134.825 99.6675 134.297 100.004C133.785 100.341 133.375 100.81 133.067 101.411C132.759 101.997 132.54 102.678 132.408 103.454C132.276 104.216 132.21 105.029 132.21 105.893ZM158.27 110.925L162.664 94.2256H167.3L165.652 102.597L161.302 118H157.588L158.27 110.925ZM156.534 94.2256L159.258 110.793L159.566 118H155.062L149.437 94.2256H156.534ZM171.211 110.441L173.958 94.2256H181.055L175.474 118H170.97L171.211 110.441ZM167.828 94.2256L172.266 110.881L172.947 118H169.19L164.927 102.641L163.345 94.2256H167.828ZM209.466 86.0078V118H201.753V86.0078H209.466ZM219.09 86.0078V91.9624H192.349V86.0078H219.09ZM216.475 106.354V105.893C216.475 104.15 216.724 102.546 217.222 101.081C217.72 99.6016 218.453 98.3198 219.419 97.2358C220.386 96.1519 221.58 95.3096 223.001 94.709C224.422 94.0938 226.062 93.7861 227.923 93.7861C229.798 93.7861 231.446 94.0938 232.867 94.709C234.302 95.3096 235.503 96.1519 236.47 97.2358C237.437 98.3198 238.169 99.6016 238.667 101.081C239.166 102.546 239.415 104.15 239.415 105.893V106.354C239.415 108.083 239.166 109.687 238.667 111.167C238.169 112.631 237.437 113.913 236.47 115.012C235.503 116.096 234.31 116.938 232.889 117.539C231.468 118.139 229.827 118.439 227.967 118.439C226.106 118.439 224.458 118.139 223.023 117.539C221.587 116.938 220.386 116.096 219.419 115.012C218.453 113.913 217.72 112.631 217.222 111.167C216.724 109.687 216.475 108.083 216.475 106.354ZM223.88 105.893V106.354C223.88 107.248 223.946 108.083 224.078 108.859C224.209 109.636 224.429 110.317 224.737 110.903C225.044 111.474 225.462 111.921 225.989 112.243C226.517 112.565 227.176 112.727 227.967 112.727C228.743 112.727 229.388 112.565 229.9 112.243C230.428 111.921 230.845 111.474 231.153 110.903C231.46 110.317 231.68 109.636 231.812 108.859C231.944 108.083 232.01 107.248 232.01 106.354V105.893C232.01 105.029 231.944 104.216 231.812 103.454C231.68 102.678 231.46 101.997 231.153 101.411C230.845 100.81 230.428 100.341 229.9 100.004C229.373 99.6675 228.714 99.499 227.923 99.499C227.146 99.499 226.495 99.6675 225.967 100.004C225.455 100.341 225.044 100.81 224.737 101.411C224.429 101.997 224.209 102.678 224.078 103.454C223.946 104.216 223.88 105.029 223.88 105.893ZM254.268 86.0078H266.858C269.319 86.0078 271.458 86.374 273.274 87.1064C275.091 87.8389 276.49 88.9229 277.471 90.3584C278.467 91.7939 278.965 93.5664 278.965 95.6758C278.965 97.5068 278.68 99.0376 278.108 100.268C277.537 101.499 276.739 102.517 275.713 103.322C274.703 104.113 273.523 104.765 272.176 105.278L269.649 106.706H259.08L259.036 100.751H266.858C267.84 100.751 268.653 100.576 269.297 100.224C269.942 99.8726 270.425 99.3745 270.748 98.73C271.084 98.0708 271.253 97.2871 271.253 96.3789C271.253 95.4561 271.084 94.665 270.748 94.0059C270.411 93.3467 269.913 92.8413 269.253 92.4897C268.609 92.1382 267.811 91.9624 266.858 91.9624H261.98V118H254.268V86.0078ZM271.78 118L264.705 103.85L272.879 103.806L280.042 117.67V118H271.78ZM297.159 112.221V94.2256H304.585V118H297.642L297.159 112.221ZM297.862 107.387L299.795 107.343C299.795 108.94 299.605 110.419 299.224 111.782C298.843 113.129 298.279 114.301 297.532 115.297C296.8 116.293 295.892 117.07 294.808 117.626C293.738 118.168 292.5 118.439 291.094 118.439C289.922 118.439 288.846 118.278 287.864 117.956C286.897 117.619 286.062 117.099 285.359 116.396C284.656 115.678 284.107 114.763 283.711 113.649C283.331 112.521 283.14 111.174 283.14 109.606V94.2256H290.545V109.65C290.545 110.178 290.611 110.632 290.743 111.013C290.875 111.394 291.065 111.716 291.314 111.979C291.563 112.229 291.871 112.419 292.237 112.551C292.618 112.668 293.05 112.727 293.533 112.727C294.646 112.727 295.518 112.492 296.148 112.023C296.778 111.555 297.217 110.917 297.466 110.112C297.73 109.306 297.862 108.398 297.862 107.387ZM315.945 99.3013V118H308.541V94.2256H315.484L315.945 99.3013ZM315.066 105.3L313.331 105.344C313.331 103.527 313.55 101.909 313.99 100.488C314.429 99.0522 315.052 97.8364 315.857 96.8403C316.663 95.8442 317.623 95.0898 318.736 94.5771C319.864 94.0498 321.116 93.7861 322.493 93.7861C323.592 93.7861 324.595 93.9473 325.503 94.2695C326.426 94.5918 327.217 95.1118 327.876 95.8296C328.55 96.5474 329.063 97.4995 329.415 98.686C329.781 99.8579 329.964 101.308 329.964 103.037V118H322.515V103.015C322.515 102.062 322.383 101.337 322.12 100.839C321.856 100.327 321.475 99.9751 320.977 99.7847C320.479 99.5942 319.871 99.499 319.153 99.499C318.392 99.499 317.747 99.6455 317.22 99.9385C316.692 100.231 316.268 100.642 315.945 101.169C315.638 101.682 315.411 102.29 315.264 102.993C315.132 103.696 315.066 104.465 315.066 105.3ZM345.85 107.871H339.544C339.544 106.582 339.632 105.446 339.808 104.465C339.998 103.469 340.32 102.575 340.774 101.784C341.229 100.993 341.844 100.261 342.62 99.5869C343.309 99.0156 343.902 98.4663 344.4 97.939C344.898 97.4116 345.279 96.877 345.542 96.335C345.806 95.793 345.938 95.2144 345.938 94.5991C345.938 93.8374 345.828 93.2148 345.608 92.7314C345.403 92.248 345.088 91.8892 344.664 91.6548C344.253 91.4058 343.733 91.2812 343.104 91.2812C342.591 91.2812 342.107 91.4058 341.653 91.6548C341.214 91.9038 340.855 92.292 340.577 92.8193C340.298 93.332 340.145 94.0132 340.115 94.8628H332.667C332.71 92.6802 333.194 90.9077 334.117 89.5454C335.054 88.1685 336.299 87.165 337.852 86.5352C339.419 85.8906 341.17 85.5684 343.104 85.5684C345.242 85.5684 347.081 85.8979 348.619 86.5571C350.157 87.2163 351.336 88.1978 352.156 89.5015C352.977 90.7905 353.387 92.3799 353.387 94.2695C353.387 95.5293 353.145 96.6279 352.662 97.5654C352.193 98.4883 351.556 99.3525 350.75 100.158C349.959 100.949 349.073 101.799 348.091 102.707C347.242 103.454 346.663 104.216 346.355 104.992C346.048 105.754 345.879 106.713 345.85 107.871ZM338.643 114.55C338.643 113.496 339.024 112.617 339.786 111.914C340.547 111.196 341.536 110.837 342.752 110.837C343.968 110.837 344.957 111.196 345.718 111.914C346.48 112.617 346.861 113.496 346.861 114.55C346.861 115.605 346.48 116.491 345.718 117.209C344.957 117.912 343.968 118.264 342.752 118.264C341.536 118.264 340.547 117.912 339.786 117.209C339.024 116.491 338.643 115.605 338.643 114.55Z" fill="#424241"/>
<path d="M1363 15C1363 6.71573 1356.28 0 1348 0H1134V167H1348C1356.28 167 1363 160.284 1363 152V15Z" fill="#B81010"/>
<path d="M1260.77 81.3079C1263.96 81.3079 1267.09 82.2553 1269.74 84.0303C1272.4 85.8053 1274.47 88.3282 1275.69 91.2799C1276.92 94.2316 1277.24 97.4796 1276.61 100.613C1275.99 103.747 1274.45 106.625 1272.19 108.884C1269.93 111.143 1267.05 112.682 1263.92 113.305C1260.79 113.928 1257.54 113.608 1254.59 112.386C1251.64 111.163 1249.11 109.093 1247.34 106.436C1245.56 103.78 1244.62 100.657 1244.62 97.4617C1244.62 93.1774 1246.32 89.0686 1249.35 86.0392C1252.38 83.0098 1256.48 81.3079 1260.77 81.3079V81.3079ZM1260.77 75.9233C1256.51 75.9233 1252.35 77.1865 1248.8 79.5532C1245.26 81.9198 1242.5 85.2837 1240.87 89.2193C1239.24 93.1549 1238.81 97.4856 1239.64 101.664C1240.48 105.842 1242.53 109.679 1245.54 112.692C1248.55 115.704 1252.39 117.755 1256.57 118.586C1260.75 119.417 1265.08 118.991 1269.01 117.361C1272.95 115.73 1276.31 112.97 1278.68 109.428C1281.04 105.886 1282.31 101.722 1282.31 97.4617C1282.31 91.7493 1280.04 86.271 1276 82.2317C1271.96 78.1925 1266.48 75.9233 1260.77 75.9233Z" fill="white"/>
<path d="M1274.23 49H1220.38C1218.96 49 1217.59 49.5673 1216.58 50.5771C1215.57 51.5869 1215 52.9565 1215 54.3846V108.231C1215 109.659 1215.57 111.028 1216.58 112.038C1217.59 113.048 1218.96 113.615 1220.38 113.615H1231.15V108.231H1220.38V70.5384H1279.62V54.3846C1279.62 52.9565 1279.05 51.5869 1278.04 50.5771C1277.03 49.5673 1275.66 49 1274.23 49V49ZM1220.38 65.1538V54.3846H1274.23V65.1538H1220.38Z" fill="white"/>
<path d="M1255.38 89.3849V105.539L1268.85 97.4618L1255.38 89.3849Z" fill="white"/>
</svg>
